<svg width="42" height="39" viewBox="0 0 42 39" fill="none" xmlns="http://www.w3.org/2000/svg">
<path d="M39.2071 14.5487H36.7376V12.1343C36.7376 11.1036 35.911 10.2631 34.8924 10.2631C33.8759 10.2631 33.0471 11.1036 33.0471 12.1343V14.5487H30.5818C29.5632 14.5487 28.7366 15.3892 28.7366 16.42C28.7366 17.4507 29.5632 18.2912 30.5818 18.2912H33.0471V20.7077C33.0471 21.7385 33.8759 22.5789 34.8924 22.5789C35.911 22.5789 36.7376 21.7385 36.7376 20.7077V18.2912H39.2071C40.2236 18.2912 41.0524 17.4507 41.0524 16.42C41.0524 15.3892 40.2236 14.5487 39.2071 14.5487Z" fill="#FFB527"/>
<path d="M15.3948 25.6897C7.09026 25.6897 0 27.0174 0 32.322C0 37.6244 7.04711 39 15.3948 39C23.6972 39 30.7895 37.6723 30.7895 32.3677C30.7895 27.0632 23.7424 25.6897 15.3948 25.6897Z" fill="#FFB527"/>
<path opacity="0.4" d="M15.3955 20.6376C21.0496 20.6376 25.5819 16.0469 25.5819 10.3199C25.5819 4.59284 21.0496 0 15.3955 0C9.74133 0 5.20898 4.59284 5.20898 10.3199C5.20898 16.0469 9.74133 20.6376 15.3955 20.6376Z" fill="#FFB527"/>
</svg>
