<svg width="17" height="18" viewBox="0 0 17 18" fill="none" xmlns="http://www.w3.org/2000/svg">
<path d="M12.2624 17.3681H4.23763C1.90118 17.3681 0 15.4846 0 13.1689V8.54099C0 6.22535 1.90118 4.3418 4.23763 4.3418H12.2624C14.5988 4.3418 16.5 6.22535 16.5 8.54099V13.1689C16.5 15.4846 14.5988 17.3681 12.2624 17.3681Z" fill="#DC5ED7"/>
<path d="M11.511 6.94737C11.1539 6.94737 10.8641 6.6663 10.8641 6.31997V3.78362C10.8641 2.38913 9.69459 1.25479 8.2577 1.25479C7.59618 1.25479 6.90188 1.51244 6.40768 1.98676C5.91262 2.46274 5.63835 3.09599 5.63576 3.77191V6.31997C5.63576 6.6663 5.34597 6.94737 4.9889 6.94737C4.63183 6.94737 4.34204 6.6663 4.34204 6.31997V3.78362C4.34635 2.75552 4.75689 1.8069 5.4969 1.09669C6.23605 0.384803 7.19167 0.0276054 8.26029 0C10.4079 0 12.1578 1.69732 12.1578 3.78362V6.31997C12.1578 6.6663 11.868 6.94737 11.511 6.94737Z" fill="#DC5ED7"/>
</svg>
