<svg width="29" height="22" viewBox="0 0 29 22" fill="none" xmlns="http://www.w3.org/2000/svg">
<path fill-rule="evenodd" clip-rule="evenodd" d="M0.258216 7.96463C0.529098 7.56925 0.974438 7.33337 1.45001 7.33337H27.55C28.0256 7.33337 28.4709 7.56925 28.7418 7.96463C29.0127 8.36 29.0747 8.8646 28.9077 9.31501L24.5577 21.0483C24.3454 21.6208 23.8044 22 23.2 22H5.8C5.19558 22 4.65456 21.6208 4.44233 21.0483L0.0923309 9.31501C-0.0746528 8.8646 -0.0126662 8.36 0.258216 7.96463ZM3.54236 10.2667L6.80486 19.0667H22.1951L25.4576 10.2667H3.54236Z" fill="black"/>
<path fill-rule="evenodd" clip-rule="evenodd" d="M12.5058 0.321446C13.1311 0.827458 13.2325 1.75042 12.7323 2.38293L6.93226 9.71625C6.432 10.3488 5.51953 10.4513 4.8942 9.9453C4.26887 9.43929 4.16748 8.51633 4.66775 7.88381L10.4677 0.5505C10.968 -0.082016 11.8805 -0.184567 12.5058 0.321446Z" fill="black"/>
<path fill-rule="evenodd" clip-rule="evenodd" d="M16.4942 0.321446C15.8689 0.827458 15.7675 1.75042 16.2677 2.38293L22.0677 9.71625C22.568 10.3488 23.4805 10.4513 24.1058 9.9453C24.7311 9.43929 24.8325 8.51633 24.3323 7.88381L18.5323 0.5505C18.032 -0.082016 17.1195 -0.184567 16.4942 0.321446Z" fill="black"/>
</svg>
