<svg width="14" height="14" viewBox="0 0 14 14" fill="none" xmlns="http://www.w3.org/2000/svg">
<path fill-rule="evenodd" clip-rule="evenodd" d="M12.222 0H9.85602C8.86902 0 8.07802 0.804999 8.07802 1.7927V4.17899C8.07802 5.17299 8.86902 5.97099 9.85602 5.97099H12.222C13.202 5.97099 14 5.17299 14 4.17899V1.7927C14 0.804999 13.202 0 12.222 0ZM1.778 6.44817e-05H4.14399C5.13099 6.44817e-05 5.92199 0.805063 5.92199 1.79276V4.17906C5.92199 5.17305 5.13099 5.97105 4.14399 5.97105H1.778C0.797998 5.97105 0 5.17305 0 4.17906V1.79276C0 0.805063 0.797998 6.44817e-05 1.778 6.44817e-05ZM1.778 8.02879H4.14399C5.13099 8.02879 5.92199 8.82749 5.92199 9.82149V12.2078C5.92199 13.1948 5.13099 13.9998 4.14399 13.9998H1.778C0.797998 13.9998 0 13.1948 0 12.2078V9.82149C0 8.82749 0.797998 8.02879 1.778 8.02879ZM9.85602 8.02879H12.222C13.202 8.02879 14 8.82749 14 9.82149V12.2078C14 13.1948 13.202 13.9998 12.222 13.9998H9.85602C8.86902 13.9998 8.07802 13.1948 8.07802 12.2078V9.82149C8.07802 8.82749 8.86902 8.02879 9.85602 8.02879Z" fill="#CDCDCD"/>
</svg>
