<svg width="15" height="15" viewBox="0 0 15 15" fill="none" xmlns="http://www.w3.org/2000/svg">
<path fill-rule="evenodd" clip-rule="evenodd" d="M7.5 15C11.6421 15 15 11.6421 15 7.5C15 3.35786 11.6421 0 7.5 0C3.35786 0 0 3.35786 0 7.5C0 11.6421 3.35786 15 7.5 15ZM9.83792 12.8459C11.769 12.0002 13.154 10.1389 13.3172 7.93749C12.6314 8.31153 11.7667 8.61818 10.781 8.83164C10.6569 10.3897 10.3189 11.7809 9.83792 12.8459ZM5.16208 2.15406C3.53937 2.86472 2.30229 4.29255 1.85173 6.03667C2.04475 6.21981 2.37344 6.44505 2.8736 6.66734C3.24763 6.83357 3.68378 6.98314 4.17114 7.10812C4.21545 5.17151 4.58624 3.42908 5.16208 2.15406ZM5.91716 9.0923C6.04776 10.3062 6.32099 11.3501 6.666 12.1264C6.91103 12.6777 7.15963 13.0207 7.35149 13.2033C7.41973 13.2682 7.46912 13.3028 7.5 13.3207C7.53088 13.3028 7.58027 13.2682 7.64851 13.2033C7.84037 13.0207 8.08897 12.6777 8.334 12.1264C8.67901 11.3501 8.95224 10.3062 9.08284 9.0923C8.57257 9.14102 8.04303 9.16667 7.50001 9.16667C6.95698 9.16667 6.42743 9.14102 5.91716 9.0923ZM4.21905 8.83163C4.34313 10.3897 4.68107 11.7809 5.16208 12.8459C3.231 12.0002 1.84604 10.1389 1.68282 7.93748C2.36859 8.31152 3.23334 8.61817 4.21905 8.83163ZM9.16639 7.408C8.64086 7.46738 8.08272 7.5 7.50001 7.5C6.91729 7.5 6.35914 7.46739 5.83361 7.408C5.84455 5.5534 6.18573 3.9542 6.666 2.8736C6.91103 2.32228 7.15963 1.9793 7.35149 1.79671C7.41973 1.73177 7.46912 1.69716 7.5 1.6793C7.53088 1.69716 7.58027 1.73177 7.64851 1.79671C7.84037 1.9793 8.08897 2.32228 8.334 2.8736C8.81427 3.9542 9.15545 5.5534 9.16639 7.408ZM10.8289 7.10812C10.7846 5.17152 10.4138 3.42908 9.83792 2.15406C11.4606 2.86472 12.6977 4.29256 13.1483 6.03668C12.9552 6.21982 12.6266 6.44505 12.1264 6.66734C11.7524 6.83357 11.3162 6.98314 10.8289 7.10812Z" fill="#DC5ED7"/>
</svg>
