<svg width="21" height="21" viewBox="0 0 21 21" fill="none" xmlns="http://www.w3.org/2000/svg">
<path d="M10.5 1.89263C13.3035 1.89263 13.636 1.90313 14.7438 1.95388C17.5893 2.08337 18.9184 3.4335 19.0479 6.258C19.0986 7.36487 19.1082 7.69738 19.1082 10.5009C19.1082 13.3053 19.0977 13.6369 19.0479 14.7438C18.9175 17.5656 17.5919 18.9184 14.7438 19.0479C13.636 19.0986 13.3053 19.1091 10.5 19.1091C7.6965 19.1091 7.364 19.0986 6.25712 19.0479C3.40462 18.9175 2.0825 17.5613 1.953 14.7429C1.90225 13.636 1.89175 13.3044 1.89175 10.5C1.89175 7.6965 1.90313 7.36487 1.953 6.25712C2.08338 3.4335 3.409 2.0825 6.25712 1.953C7.36487 1.90313 7.6965 1.89263 10.5 1.89263ZM10.5 0C7.64838 0 7.29138 0.01225 6.17137 0.063C2.35813 0.238 0.238875 2.35375 0.063875 6.1705C0.01225 7.29138 0 7.64838 0 10.5C0 13.3516 0.01225 13.7095 0.063 14.8295C0.238 18.6427 2.35375 20.762 6.1705 20.937C7.29138 20.9877 7.64838 21 10.5 21C13.3516 21 13.7095 20.9877 14.8295 20.937C18.6392 20.762 20.7638 18.6462 20.9361 14.8295C20.9877 13.7095 21 13.3516 21 10.5C21 7.64838 20.9877 7.29138 20.937 6.17137C20.7655 2.36162 18.6471 0.238875 14.8304 0.063875C13.7095 0.01225 13.3516 0 10.5 0V0ZM10.5 5.10825C7.52238 5.10825 5.10825 7.52238 5.10825 10.5C5.10825 13.4776 7.52238 15.8926 10.5 15.8926C13.4776 15.8926 15.8918 13.4785 15.8918 10.5C15.8918 7.52238 13.4776 5.10825 10.5 5.10825ZM10.5 14C8.56713 14 7 12.4338 7 10.5C7 8.56713 8.56713 7 10.5 7C12.4329 7 14 8.56713 14 10.5C14 12.4338 12.4329 14 10.5 14ZM16.1052 3.63563C15.4088 3.63563 14.8444 4.2 14.8444 4.89562C14.8444 5.59125 15.4088 6.15562 16.1052 6.15562C16.8009 6.15562 17.3644 5.59125 17.3644 4.89562C17.3644 4.2 16.8009 3.63563 16.1052 3.63563Z" fill="#4B4848"/>
</svg>
