<svg width="171" height="98" viewBox="0 0 171 98" fill="none" xmlns="http://www.w3.org/2000/svg">
<rect x="92" y="25" width="79" height="17" rx="8.5" fill="#DC5ED7" fill-opacity="0.1"/>
<rect y="70" width="142" height="21" rx="10.5" fill="#DC5ED7" fill-opacity="0.1"/>
<path d="M111.734 55.0885H103.77V28.7736C103.77 17.2998 94.4339 7.94613 82.9423 7.94613C71.4507 7.94613 62.1327 17.2998 62.1327 28.7736V55.0885H54.1865V28.7736C54.1865 12.9169 67.0856 0 82.9601 0C98.8345 0 111.734 12.9169 111.734 28.7736V55.0885Z" fill="#2F2F2F"/>
<path d="M123.92 94.9082C123.92 96.6186 122.53 97.9904 120.838 97.9904H45.0822C43.3897 97.9904 42 96.6008 42 94.9082V45.6814C42 43.971 43.3897 42.5991 45.0822 42.5991H120.838C122.548 42.5991 123.92 43.9888 123.92 45.6814V94.9082Z" fill="#E99DE6"/>
<path d="M90.796 62.906C90.9609 62.9446 91.1315 62.9833 91.2963 63.0219C91.41 63.0477 91.5351 63.067 91.5294 63.2408C91.5294 63.3953 91.4157 63.4147 91.3134 63.4469C91.1201 63.5048 90.9325 63.5628 90.7392 63.6207C90.3242 63.7044 89.9262 63.8589 89.5282 64.0907C89.6988 64.2581 89.8409 64.4062 90.0115 64.5801C89.2837 64.8119 88.5844 64.9535 87.7885 65.0372C87.942 65.1918 88.05 65.2884 88.1467 65.4043C88.2035 65.4686 88.3059 65.5202 88.2774 65.6296C88.249 65.7391 88.141 65.7262 88.0614 65.7455C87.2427 65.9387 86.4183 66.0224 85.5826 66.0675C85.5201 66.0739 85.412 66.0288 85.4064 66.1576C85.4064 66.2542 85.503 66.2413 85.5599 66.2671C85.6053 66.2864 85.6508 66.2993 85.6963 66.3186C86.2193 66.4989 86.7253 66.7435 87.22 67.014C87.2882 67.0526 87.3735 67.0848 87.345 67.1942C87.3223 67.278 87.2427 67.278 87.1745 67.278C87.1176 67.278 87.0608 67.2844 87.0039 67.2844C85.7816 67.3101 84.5649 67.3166 83.3483 66.956C83.3483 67.2522 83.3483 67.5162 83.3483 67.7866C83.3483 68.5271 83.3483 69.2675 83.3426 70.008C83.3426 70.2141 83.263 70.375 83.064 70.375C82.865 70.375 82.7911 70.2205 82.7854 70.008C82.7854 69.9114 82.7854 69.8148 82.7854 69.7183C82.7854 68.8104 82.7854 67.8961 82.7854 66.956C81.5517 67.3166 80.3237 67.323 79.0956 67.2844C78.9876 67.2844 78.8284 67.3488 78.7943 67.1942C78.7545 67.0268 78.9308 67.014 79.0217 66.9625C79.5164 66.6856 80.0224 66.4538 80.5511 66.2799C80.6193 66.2606 80.733 66.2735 80.7273 66.164C80.716 66.0224 80.5909 66.0932 80.517 66.0739C80.4601 66.061 80.4033 66.0739 80.3464 66.0675C79.5789 66.0095 78.8171 65.9387 78.0666 65.752C77.987 65.7326 77.879 65.7455 77.8562 65.6296C77.8335 65.5202 77.9302 65.4622 77.9927 65.4043C78.095 65.2948 78.203 65.1982 78.3111 65.1016C77.6345 64.9729 77.0148 64.8441 76.3951 64.6702C76.1961 64.6123 76.1791 64.5286 76.3269 64.3805C76.4122 64.2903 76.5259 64.226 76.5827 64.0907C76.1961 63.8718 75.8038 63.7108 75.3945 63.6336C75.1955 63.5692 75.0022 63.5048 74.8032 63.4533C74.6952 63.4211 74.5986 63.3889 74.6042 63.2408C74.6099 63.0927 74.7123 63.0605 74.8203 63.0412C74.9965 63.0026 75.1671 62.9639 75.3376 62.9253C75.9573 62.906 76.577 62.8867 77.1911 63.0026C77.2081 62.8545 77.0376 62.7708 77.1399 62.6549C77.2365 62.5519 77.3332 62.6742 77.4242 62.7064C77.5038 62.7322 77.5833 62.7772 77.6573 62.8223C78.0495 63.0477 78.4418 63.273 78.8455 63.5112C78.8569 63.3181 78.7886 63.1571 78.7602 62.9961C78.7318 62.8223 78.8057 62.7708 78.9308 62.8287C79.09 62.8996 79.2378 63.0026 79.3913 63.0798C79.4993 63.1378 79.5846 63.2666 79.7722 63.2344C79.4879 62.9446 79.2321 62.6935 78.9819 62.436C78.3566 61.7856 77.7312 61.1289 77.1058 60.4721C77.0489 60.4077 76.9523 60.3562 76.9807 60.2403C77.0091 60.1051 77.1285 60.1309 77.2138 60.1116C77.3503 60.0858 77.4924 60.0665 77.6743 60.0343C77.2991 59.7381 76.9921 59.4226 76.7192 59.0685C76.651 58.9783 76.5088 58.8946 76.56 58.7594C76.6168 58.6049 76.759 58.7079 76.867 58.695C76.9409 58.6821 77.0319 58.7594 77.1115 58.6371C76.776 58.2701 76.469 57.8773 76.2246 57.4394C76.1393 57.2849 75.9346 57.1304 76.0369 56.9437C76.1222 56.7827 76.3155 56.9565 76.4577 56.9501C76.4747 56.9501 76.4918 56.9372 76.5202 56.9308C76.3724 56.6088 76.2302 56.2869 76.0824 55.965C75.9573 55.5851 75.8266 55.2116 75.7015 54.8317C75.6674 54.7287 75.6276 54.6192 75.7413 54.5484C75.8436 54.484 75.8948 54.5806 75.9573 54.645C76.4975 55.1923 77.0319 55.7525 77.4526 56.4221C77.5606 56.3513 77.5322 56.2483 77.5549 56.1581C77.5777 56.068 77.5663 55.9521 77.6686 55.9263C77.771 55.9006 77.8164 56.0036 77.8676 56.0744C77.9302 56.1517 77.987 56.2354 78.0495 56.3127C78.3338 56.8342 78.5953 57.3686 78.8625 58.0125C78.9137 57.7807 78.9365 57.6455 78.9649 57.5167C78.9876 57.4073 78.9706 57.2592 79.0956 57.2205C79.2094 57.1883 79.2491 57.33 79.3003 57.4073C79.505 57.7163 79.7097 58.0254 79.8916 58.3473C80.6705 59.6866 81.2788 61.1224 81.853 62.5841C81.8871 62.6742 81.8985 62.8416 82.0122 62.8094C82.1487 62.7708 82.052 62.6227 82.035 62.5325C81.8985 61.747 81.745 60.9615 81.6086 60.1759C81.4494 59.2423 81.3072 58.3022 81.2504 57.3493C81.239 57.1948 81.1708 56.9952 81.2902 56.8986C81.4209 56.7956 81.5403 56.9823 81.6711 57.0402C81.7791 57.0853 81.8644 57.2012 81.9952 57.1948C81.9952 57.1497 81.9952 57.1304 81.9895 57.1111C81.6142 55.9972 81.4892 54.851 81.6484 53.6727C81.6654 53.5568 81.654 53.4216 81.7621 53.3766C81.8928 53.3186 81.9326 53.4731 82.0008 53.5504C82.1202 53.6856 82.2283 53.8273 82.3704 54.0076C82.4159 53.3186 82.4557 52.694 82.5012 52.0695C82.6092 51.4385 82.6717 50.801 82.8593 50.1893C82.8991 50.067 82.8878 49.8738 83.0583 49.8867C83.2004 49.8932 83.1948 50.067 83.2346 50.1829C83.4335 50.7882 83.5188 51.4256 83.587 52.063C83.6382 52.694 83.6894 53.3315 83.7462 54.0333C83.8997 53.8337 84.0078 53.6921 84.1272 53.5568C84.1954 53.4796 84.2409 53.325 84.3659 53.3766C84.4626 53.4152 84.4569 53.5504 84.474 53.6534C84.599 54.5227 84.582 55.3855 84.3887 56.2354C84.3148 56.5573 84.2238 56.8793 84.1215 57.2592C84.292 57.1561 84.4114 57.0724 84.5422 57.008C84.6388 56.9565 84.7355 56.8278 84.8492 56.9115C84.9458 56.9887 84.8947 57.1304 84.889 57.2398C84.8208 58.6886 84.5422 60.0987 84.2863 61.5152C84.2181 61.8951 84.1442 62.2686 84.076 62.6484C84.0646 62.7064 84.0362 62.7837 84.1101 62.8159C84.184 62.848 84.2011 62.7643 84.2295 62.7128C84.2465 62.6742 84.2579 62.6356 84.275 62.5969C84.6616 61.541 85.1164 60.5236 85.6053 59.5321C85.9749 58.7852 86.3785 58.0576 86.8504 57.3879C86.8959 57.3235 86.93 57.227 87.021 57.2398C87.129 57.2592 87.129 57.3751 87.1461 57.4652C87.1802 57.6262 87.1915 57.7936 87.2825 57.9867C87.5383 57.3557 87.8169 56.802 88.1182 56.2611C88.2376 56.1646 88.2831 55.9134 88.448 55.9521C88.6413 55.9972 88.5276 56.274 88.6356 56.4157C88.7266 56.4157 88.7436 56.3191 88.7834 56.2611C89.1928 55.6559 89.6931 55.1472 90.1877 54.6386C90.2502 54.5742 90.3128 54.4905 90.4037 54.5806C90.489 54.6579 90.4549 54.7545 90.4208 54.8446C90.2957 55.2245 90.165 55.5979 90.0399 55.9778C89.8978 56.2998 89.7499 56.6217 89.6021 56.9501C89.7784 57.0209 90.0115 56.7698 90.0967 56.9887C90.1763 57.1948 89.9376 57.3751 89.8409 57.5618C89.7897 57.6648 89.7215 57.7549 89.659 57.8451C89.4486 58.1284 89.2326 58.4053 89.0165 58.6886C89.1302 58.753 89.2212 58.7015 89.3122 58.7079C89.4031 58.7143 89.5168 58.6435 89.5623 58.7723C89.6021 58.8882 89.4998 58.9654 89.4429 59.0427C89.1587 59.4162 88.8403 59.7445 88.4537 60.0536C88.6129 60.0858 88.7323 60.1051 88.8517 60.1244C88.9597 60.1437 89.1018 60.1051 89.1416 60.2596C89.1757 60.3949 89.045 60.4528 88.9767 60.5365C88.846 60.691 88.7038 60.8391 88.5674 60.9808C87.8283 61.747 87.0892 62.5068 86.3501 63.273C86.2989 63.2988 86.2307 63.3181 86.2478 63.4147C86.2307 63.4147 86.2137 63.4211 86.1966 63.4211C86.2023 63.434 86.208 63.4469 86.2137 63.4597C86.225 63.4469 86.2307 63.4275 86.2421 63.4147C86.3103 63.4275 86.3501 63.3696 86.3899 63.331C86.6116 63.1957 86.8334 63.0477 87.0608 62.9189C87.1404 62.8738 87.2313 62.7837 87.3223 62.8545C87.4246 62.9382 87.3337 63.0477 87.328 63.1507C87.3223 63.2794 87.237 63.3889 87.2882 63.5434C87.4303 63.4533 87.5725 63.3696 87.7089 63.2859C88.0671 63.0734 88.4253 62.8545 88.8062 62.6935C88.8687 62.6678 88.9256 62.6163 88.9881 62.6871C89.0506 62.7643 88.9938 62.8223 88.9654 62.8867C88.9483 62.9318 88.8971 62.9704 88.9597 63.0412C89.5737 62.8609 90.1877 62.8931 90.796 62.906ZM79.8859 63.3567C79.8973 63.3696 79.903 63.3889 79.9143 63.4018C79.92 63.3889 79.9257 63.376 79.9314 63.3632C79.9143 63.3632 79.8973 63.3632 79.8859 63.3567C79.8916 63.2794 79.8461 63.2473 79.7893 63.2408C79.7836 63.2408 79.7665 63.273 79.7722 63.2859C79.7893 63.3374 79.8347 63.3567 79.8859 63.3567ZM86.1113 63.4726C86.117 63.4662 86.1227 63.4597 86.1284 63.4533C86.1227 63.4469 86.117 63.434 86.1113 63.434C86.1056 63.434 86.1 63.4469 86.0943 63.4469C86.1 63.4662 86.1056 63.4726 86.1113 63.4726ZM80.0224 63.4404C80.0167 63.4469 80.011 63.4533 80.0053 63.4533C80.011 63.4597 80.0167 63.4726 80.0224 63.4726C80.028 63.4726 80.0337 63.4662 80.0394 63.4597C80.0337 63.4533 80.028 63.4469 80.0224 63.4404Z" fill="#2F2F2F"/>
<path d="M123.92 94.9082V64.7449C98.9589 85.8574 62.9875 93.7857 42.5876 96.7076C43.14 97.4737 44.0486 97.9904 45.0819 97.9904H120.837C122.53 97.9904 123.92 96.6007 123.92 94.9082Z" fill="#DC5ED7"/>
<path d="M78.9336 67.3818L76.7778 82.6861H89.1424L86.9867 67.3818C88.6436 66.1524 77.2767 66.1524 78.9336 67.3818Z" fill="#2F2F2F"/>
<path d="M44.5833 48.4429V59.0437C44.8683 54.5361 47.0241 44.7549 60.5824 44.7549H48.2891C46.2402 44.7371 44.5833 46.4118 44.5833 48.4429Z" fill="#F5CFF3"/>
<path d="M76.7778 82.704C76.7778 82.704 85.9533 80.1028 86.9867 67.3997L89.1424 82.704H76.7778Z" fill="#151418"/>
</svg>
