<svg width="73" height="91" viewBox="0 0 73 91" fill="none" xmlns="http://www.w3.org/2000/svg">
<g clip-path="url(#clip0)">
<path d="M73 55.6352C67.5757 57.0939 62.5254 59.5373 57.3617 61.6637C56.5124 62.0115 55.6262 62.2792 54.8106 62.7008C53.6331 63.3163 52.6089 63.2178 51.4867 62.0853C53.2559 62.5131 53.9397 61.316 54.737 60.3251C55.3165 59.6111 56.0248 58.9741 56.4817 58.1894C57.7082 56.0691 59.5235 55.5891 61.86 55.6383C65.5703 55.7183 69.2898 55.4567 73.0061 55.3306L73 55.6352Z" fill="#DC5ED7"/>
<path d="M35.9281 91C35.269 87.5355 34.1834 84.1666 32.6962 80.9709C31.3256 78.0751 32.3129 76.0472 34.3428 73.5145C33.7296 77.8505 34.5084 81.5495 36.247 85.1192C36.5782 85.15 36.4463 84.7314 36.5536 84.4853C37.9918 81.1002 38.7399 77.6289 38.0868 73.8992L38.5069 73.8438C39.203 75.0532 39.8959 76.2626 40.6012 77.4658C40.9232 78.0136 40.5613 78.466 40.3958 78.9153C39.1202 82.368 37.8875 85.8331 36.848 89.3782C36.6916 89.9075 36.4034 90.4215 36.5414 91.0123L35.9281 91Z" fill="#DC5ED7"/>
<path d="M33.8001 48.2588C29.8783 41.7964 24.9262 36.2111 19.8207 30.7642C19.2627 30.1487 19.4405 29.7271 19.7195 29.1424C21.4643 25.4896 23.4237 21.9599 25.3984 18.4333C28.7161 12.5125 31.9358 6.5455 34.0362 0C34.1803 16.0883 33.8032 32.1459 33.8001 48.2588Z" fill="#DC5ED7"/>
<path d="M38.464 48.345C38.6142 32.1705 38.3015 16.0944 38.2095 0.00610352C38.8565 0.0368769 38.7032 0.523097 38.7921 0.809289C40.5951 6.65623 43.3732 12.0754 46.3567 17.3931C48.5338 21.2767 50.7385 25.1449 52.7193 29.1362C53.0474 29.7978 53.1057 30.244 52.5261 30.8595C47.4391 36.2633 42.582 41.8548 38.7737 48.2773C38.7583 48.3142 38.6848 48.3142 38.464 48.345Z" fill="#DC5ED7"/>
<path d="M62.2065 15.042C65.1349 23.0738 64.4572 30.8872 61.0107 38.6236C60.0049 40.8855 58.8642 42.658 56.3591 43.4212C54.7155 43.9259 53.1793 44.7999 51.6032 45.5261C51.134 45.7415 50.6833 45.9539 49.9903 45.7107C52.153 43.945 54.4313 42.3267 56.8098 40.867C57.7297 40.2977 57.9873 39.6669 57.8707 38.6267C57.5856 36.0756 57.279 33.5368 56.2732 31.1519C55.985 30.4718 56.1781 30.0194 56.5982 29.4932C57.4568 28.413 58.2724 27.299 59.0513 26.1666C61.3878 22.8092 62.0195 19.0425 61.6331 15.0451L62.2065 15.042Z" fill="#DC5ED7"/>
<path d="M10.7321 15.042C10.7873 17.1346 10.6156 19.2395 11.1645 21.3044C11.9341 24.1971 13.5072 26.6436 15.3899 28.887C16.1871 29.8502 16.4631 30.6626 15.9449 31.8813C14.9483 34.1585 14.7981 36.6419 14.5344 39.0822C14.4485 39.8731 14.7674 40.2732 15.3807 40.6763C17.5486 42.0949 19.7533 43.4674 21.6912 45.2123C21.9058 45.4062 22.2339 45.557 22.1235 45.9786C21.7127 46.3417 21.3876 45.8678 21.0687 45.7324C20.1488 45.3415 19.2596 44.8092 18.3305 44.3968C12.6915 41.9349 12.7528 41.9011 10.4807 36.1895C7.68115 29.1455 7.72101 22.1169 10.2477 15.0359L10.7321 15.042Z" fill="#DC5ED7"/>
<path d="M18.4409 32.3828C24.319 38.5159 29.498 44.9107 33.8277 52.3855C32.408 51.7393 31.252 51.213 30.3658 50.3237C26.5912 46.5509 22.3136 43.3905 17.9135 40.4208C17.0641 39.8484 16.7973 39.273 16.9936 38.2821C17.3462 36.3772 17.659 34.4662 18.4409 32.3828Z" fill="#DC5ED7"/>
<path d="M53.9919 32.3735C54.7346 34.4783 55.2486 36.6574 55.525 38.8729C55.6139 39.4883 55.387 39.7961 54.9118 40.1223C50.2908 43.3104 45.7618 46.6124 41.7664 50.6006C40.9954 51.3917 39.9696 51.8825 38.8718 51.9854C43.0788 44.7014 48.2272 38.4451 53.9919 32.3735Z" fill="#DC5ED7"/>
<path d="M20.8725 54.0042C19.0633 54.0042 17.2573 54.0042 15.4512 54.0042C15.2505 54.0125 15.0505 53.9757 14.8659 53.8963C14.6813 53.817 14.5166 53.6972 14.3841 53.5457C9.37989 48.1111 5.03797 42.2919 3.56 34.8078C3.50174 34.5185 3.3423 34.2354 3.58147 33.8507C4.70899 34.803 5.59937 36.0064 6.18171 37.365C7.18154 39.5736 8.87021 41.3958 10.9928 42.5565C11.6128 42.9074 12.0952 43.4599 12.3604 44.1229C13.4121 46.4555 14.5068 48.7758 15.1415 51.2592C15.2049 51.5813 15.3664 51.8757 15.6037 52.1018C15.841 52.3278 16.1423 52.4742 16.4662 52.5209C17.9595 52.8871 19.4374 53.3149 20.9246 53.718L20.8725 54.0042Z" fill="#DC5ED7"/>
<path d="M51.548 53.6841C53.0076 53.2902 54.461 52.8625 55.9328 52.5178C56.2805 52.4642 56.6026 52.3022 56.8535 52.0548C57.1044 51.8074 57.2715 51.4871 57.3311 51.1392C57.9811 48.6004 59.1249 46.2523 60.192 43.8736C60.4018 43.3491 60.7866 42.9141 61.2805 42.6426C63.5387 41.4097 65.3337 39.47 66.3921 37.1188C66.8735 36.091 67.8762 34.2199 68.3698 34.5585C69.4645 35.3124 68.3698 36.7526 68.0479 37.8389C66.2081 43.9936 62.3077 48.8342 58.1007 53.481C57.9541 53.6553 57.7693 53.7931 57.5608 53.8839C57.3523 53.9746 57.1257 54.0158 56.8987 54.0042C55.1295 53.9826 53.3571 54.0042 51.5879 54.0042L51.548 53.6841Z" fill="#DC5ED7"/>
<path d="M61.3817 69.1354C58.4441 69.6463 55.5097 69.597 52.5813 69.3478C48.6104 69.0093 44.707 68.203 40.779 67.5721C39.9205 67.4367 39.5954 66.9967 39.4084 66.2181C39.0159 64.5779 38.5345 62.9561 38.1236 61.319C38.0347 60.9682 37.4398 60.5835 37.9458 60.2635C38.4517 59.9434 38.7645 60.4696 39.0864 60.7928C40.3467 62.0637 41.8124 63.1869 42.8304 64.6333C44.9216 67.606 47.3287 68.1291 50.3766 66.2458C52.0968 65.1872 53.7496 65.298 55.4299 66.5197C57.1961 67.806 59.453 68.0645 61.3817 69.1354Z" fill="#DC5ED7"/>
<path d="M10.8425 69.2401C13.6022 68.1907 16.2822 67.1568 18.7383 65.5996C19.3025 65.2427 19.7778 65.3934 20.3144 65.5996C21.9304 66.2151 23.5862 66.7444 25.1653 67.446C26.0852 67.8584 26.6372 67.6214 27.2811 66.9537C29.2987 64.858 31.3654 62.8146 33.4137 60.7559C33.6499 60.5189 33.8768 60.0758 34.2754 60.3097C34.674 60.5436 34.4072 60.9652 34.3244 61.2821C33.8614 63.0608 33.3463 64.8272 32.9078 66.6121C32.8809 66.838 32.7787 67.0481 32.6179 67.2084C32.457 67.3688 32.2469 67.4698 32.0216 67.4953C25.3554 68.6893 18.7015 70.031 11.8636 69.3909C11.5263 69.3417 11.186 69.277 10.8425 69.2401Z" fill="#DC5ED7"/>
<path d="M21.2251 61.7992C20.1274 62.9286 19.1523 63.3378 17.662 62.7378C11.8207 60.362 6.13264 57.5955 0.0766511 55.7645C0.0030593 55.7399 -0.0398693 55.6199 0.0521205 55.743C4.40017 55.743 8.89234 55.743 13.3845 55.743C13.918 55.743 14.2001 56.0999 14.4945 56.4538C15.3776 57.5124 16.2362 58.5895 17.1438 59.6266C18.2048 60.8298 18.8855 62.7378 21.2251 61.7992Z" fill="#DC5ED7"/>
<path d="M40.3344 53.8535C45.8968 50.216 51.781 47.2064 58.159 44.3445C57.1471 46.5786 56.2027 48.425 55.6078 50.413C55.4606 50.9084 55.0283 50.9238 54.6419 51.0285C51.2015 51.9476 47.7611 52.8708 44.3207 53.7981C43.0236 54.1243 41.702 53.9058 40.3344 53.8535Z" fill="#DC5ED7"/>
<path d="M32.1412 53.8534C30.7307 53.9519 29.3447 54.1273 27.9649 53.7549C24.6257 52.8471 21.2864 51.9547 17.9441 51.0561C17.5148 50.9422 17.0058 50.9576 16.8341 50.4006C16.2209 48.425 15.3347 46.557 14.2063 44.3075C20.667 47.2002 26.5544 50.1975 32.1412 53.8534Z" fill="#DC5ED7"/>
<path d="M16.2791 55.7922H31.8284C30.5437 56.7524 29.4582 57.494 28.1673 57.8602C25.7142 58.5495 23.2611 59.1835 20.8081 59.8605C20.2224 60.0205 19.7686 60.0328 19.3362 59.4758C18.4286 58.3095 17.4535 57.2017 16.2791 55.7922Z" fill="#DC5ED7"/>
<path d="M40.8925 55.8168H56.1413C54.9639 57.2324 53.9643 58.4233 52.9738 59.6265C52.8763 59.773 52.7329 59.8827 52.5664 59.9384C52.3998 59.9941 52.2196 59.9927 52.0539 59.9343C48.5522 58.771 44.7346 58.5618 41.5426 56.463C41.2973 56.3153 40.9324 56.2938 40.8925 55.8168Z" fill="#DC5ED7"/>
<path d="M21.3968 64.0764L35.0511 56.1492C34.7844 57.0201 34.2508 57.3432 33.8522 57.7463C31.4911 60.1466 29.0841 62.5039 26.7475 64.9257C26.1343 65.5628 25.5977 65.7597 24.7728 65.3781C23.7579 64.9134 22.6908 64.5657 21.3968 64.0764Z" fill="#DC5ED7"/>
<path d="M37.7495 56.3645L50.9347 64.0055C50.8058 64.1018 50.6706 64.1892 50.53 64.2671C46.7063 65.9104 46.7063 65.9104 43.784 62.9654C42.7384 61.916 41.6867 60.8759 40.6503 59.8203C39.6138 58.7648 38.605 57.7062 37.5839 56.6507L37.7495 56.3645Z" fill="#DC5ED7"/>
<path d="M62.2065 15.0421H61.6331C61.2069 14.6513 61.1609 13.9958 61.6331 13.9219C62.2219 13.8481 62.0716 14.6205 62.2065 15.0421Z" fill="#DC5ED7"/>
<path d="M10.7321 15.042H10.2477L10.5022 13.9065C11.005 14.2696 10.8149 14.6635 10.7321 15.042Z" fill="#DC5ED7"/>
</g>
<defs>
<clipPath id="clip0">
<rect width="73" height="91" fill="white"/>
</clipPath>
</defs>
</svg>
