<svg width="61" height="61" viewBox="0 0 61 61" fill="none" xmlns="http://www.w3.org/2000/svg">
<path d="M0.000547718 30.0502C-0.0988235 13.6142 13.3362 0.0798506 29.8318 0.000353589C46.3672 -0.0791434 59.9214 13.2565 60.0009 29.6925C60.1003 46.4067 46.7845 59.9013 30.1299 60.0007C13.5548 60.1001 0.099919 46.7048 0.000547718 30.0502ZM43.9028 31.4215C43.9028 26.93 43.9226 22.4185 43.9028 17.9269C43.9028 15.542 42.452 14.1111 40.067 14.1111C33.3098 14.1111 26.5724 14.1111 19.8152 14.1111C17.6489 14.1111 16.1186 15.542 16.0987 17.6487C16.0788 24.7637 16.0788 31.8787 16.0987 38.9936C16.0987 41.1599 17.5893 42.5511 19.7556 42.5511C23.8298 42.5511 27.904 42.6306 31.9583 42.5313C34.2836 42.4716 36.4698 42.7896 38.5765 43.8032C40.0074 44.4789 41.5377 44.936 42.9886 45.572C43.7637 45.9099 43.9028 45.7509 43.8829 44.936C43.8829 40.4246 43.9028 35.933 43.9028 31.4215Z" fill="#DC5ED7"/>
<path d="M43.9033 31.4219C43.9033 35.9135 43.8834 40.4249 43.9231 44.9165C43.9231 45.7115 43.8039 45.8904 43.0288 45.5525C41.578 44.9165 40.0477 44.4594 38.6167 43.7837C36.51 42.7701 34.3239 42.4521 31.9986 42.5117C27.9244 42.6111 23.8501 42.5515 19.7958 42.5316C17.6096 42.5316 16.1389 41.1404 16.1389 38.9741C16.1191 31.8591 16.1191 24.7442 16.1389 17.6292C16.1389 15.5225 17.6692 14.0916 19.8355 14.0916C26.5928 14.0916 33.3302 14.0916 40.0874 14.0916C42.4723 14.0916 43.9231 15.5225 43.9231 17.9074C43.9231 22.4189 43.9033 26.9303 43.9033 31.4219ZM30.2298 38.517C30.826 38.4574 31.6806 38.4375 32.5352 38.3183C35.0592 37.9605 37.4044 37.1059 39.4514 35.5756C39.988 35.1781 40.2464 34.6415 39.7893 34.0453C39.3521 33.4491 38.8353 33.6478 38.3385 34.0254C37.6627 34.562 36.9274 34.9993 36.1126 35.3173C31.0446 37.3047 26.1754 37.0463 21.5845 33.9459C21.1075 33.628 20.6703 33.5087 20.2728 33.9658C19.8554 34.4428 19.915 34.9397 20.3523 35.3769C20.5908 35.5955 20.8491 35.7942 21.1274 35.9731C23.8104 37.7419 26.7915 38.4574 30.2298 38.517Z" fill="#FDFDFD"/>
<path d="M30.2295 38.517C26.7912 38.4574 23.8101 37.7419 21.1271 35.9731C20.8488 35.7942 20.5905 35.5955 20.352 35.3769C19.8949 34.9397 19.8551 34.4428 20.2725 33.9658C20.67 33.5087 21.1271 33.628 21.5842 33.9459C26.1751 37.0463 31.0443 37.3047 36.1123 35.3173C36.9072 34.9993 37.6625 34.562 38.3382 34.0254C38.835 33.628 39.3518 33.4292 39.789 34.0453C40.2461 34.6415 39.9878 35.1781 39.4512 35.5756C37.3842 37.1059 35.0589 37.9605 32.5349 38.3183C31.6803 38.4375 30.8058 38.4574 30.2295 38.517Z" fill="#DC5ED7"/>
</svg>
