<svg width="38" height="34" viewBox="0 0 38 34" fill="none" xmlns="http://www.w3.org/2000/svg">
<path d="M13.8821 22.3981C6.39489 22.3981 0 23.5547 0 28.1774C0 32.8037 6.35423 34.0001 13.8821 34.0001C21.3693 34.0001 27.7642 32.8436 27.7642 28.2208C27.7642 23.5945 21.4099 22.3981 13.8821 22.3981Z" fill="#2E5FF2"/>
<path opacity="0.4" d="M13.882 17.9914C18.9813 17.9914 23.0677 13.9895 23.0677 8.99568C23.0677 4.0019 18.9813 0 13.882 0C8.78458 0 4.69629 4.0019 4.69629 8.99568C4.69629 13.9895 8.78458 17.9914 13.882 17.9914Z" fill="#2E5FF2"/>
<path opacity="0.4" d="M26.7715 9.15872C26.7715 11.7018 25.9915 14.0747 24.6238 16.0458C24.4815 16.2485 24.6072 16.5218 24.8549 16.5652C25.1986 16.6213 25.5517 16.6557 25.9121 16.663C29.4976 16.7553 32.7154 14.4946 33.6044 11.09C34.9222 6.03829 31.0557 1.50244 26.1301 1.50244C25.596 1.50244 25.084 1.55674 24.585 1.65629C24.5166 1.67077 24.4427 1.70335 24.4057 1.76127C24.3577 1.83548 24.3928 1.93141 24.4409 1.99476C25.9213 4.02738 26.7715 6.50165 26.7715 9.15872Z" fill="#2E5FF2"/>
<path d="M37.3601 22.9865C36.704 21.6164 35.1201 20.677 32.71 20.2154C31.5733 19.9439 28.4941 19.5584 25.6312 19.6127C25.5887 19.6181 25.5647 19.6471 25.561 19.6652C25.5554 19.6942 25.5684 19.7376 25.6238 19.7684C26.9472 20.4091 32.0612 23.1965 31.418 29.0754C31.3903 29.3324 31.5992 29.5496 31.8598 29.5134C33.1184 29.3378 36.3565 28.6554 37.3601 26.5341C37.9164 25.4119 37.9164 24.1087 37.3601 22.9865Z" fill="#2E5FF2"/>
</svg>
