<svg width="16" height="16" viewBox="0 0 16 16" fill="none" xmlns="http://www.w3.org/2000/svg">
<path d="M8.11191 0.00074328C3.61288 -0.0600202 -0.0600231 3.61271 0.000743315 8.11152C0.0607405 12.4261 3.57404 15.9392 7.88884 15.9992C12.3886 16.0608 16.0608 12.388 15.9992 7.88923C15.94 3.57387 12.4267 0.0607376 8.11191 0.00074328ZM7.46617 7.40274L9.44877 5.13372C9.55618 5.01082 9.70801 4.93561 9.87087 4.92465C10.0337 4.91368 10.1943 4.96786 10.3172 5.07527C10.4401 5.18267 10.5153 5.3345 10.5263 5.49735C10.5372 5.6602 10.4831 5.82074 10.3757 5.94365L8.39305 8.21266C8.33987 8.27352 8.27522 8.32331 8.20279 8.35918C8.13037 8.39505 8.05159 8.41631 7.97095 8.42174C7.89031 8.42717 7.80938 8.41666 7.73281 8.39082C7.65623 8.36497 7.58549 8.3243 7.52463 8.27112C7.46377 8.21794 7.41398 8.15329 7.3781 8.08087C7.34223 8.00845 7.32097 7.92967 7.31554 7.84904C7.31011 7.7684 7.32062 7.68748 7.34647 7.61091C7.37231 7.53433 7.41299 7.4636 7.46617 7.40274ZM5.97162 10.8966C5.85623 11.0119 5.69978 11.0767 5.53664 11.0767C5.37351 11.0767 5.21705 11.0119 5.10166 10.8966L3.25752 9.05066C3.20039 8.99349 3.15509 8.92563 3.1242 8.85095C3.0933 8.77628 3.07742 8.69625 3.07745 8.61543C3.07749 8.53461 3.09344 8.4546 3.12441 8.37995C3.15537 8.3053 3.20073 8.23748 3.2579 8.18036C3.31507 8.12324 3.38294 8.07794 3.45762 8.04705C3.5323 8.01615 3.61233 8.00027 3.69315 8.00031C3.77397 8.00034 3.85399 8.01629 3.92865 8.04725C4.0033 8.07821 4.07112 8.12357 4.12825 8.18074L5.97431 10.0267C6.08927 10.1425 6.15357 10.2991 6.15306 10.4622C6.15256 10.6254 6.08729 10.7816 5.97162 10.8966ZM12.7713 5.94365L8.46843 10.8663C8.41299 10.9298 8.34509 10.9812 8.26894 11.0174C8.19279 11.0536 8.11002 11.0738 8.02576 11.0766H8.00499C7.92413 11.0766 7.84406 11.0607 7.76936 11.0298C7.69465 10.9988 7.62678 10.9534 7.56963 10.8963L5.72586 9.05028C5.6105 8.93482 5.54573 8.77826 5.5458 8.61504C5.54587 8.45183 5.61078 8.29533 5.72625 8.17997C5.84171 8.06462 5.99828 7.99985 6.1615 7.99992C6.32472 7.99999 6.48123 8.0649 6.59659 8.18036L7.74269 9.32756C7.77249 9.35736 7.80809 9.38072 7.84728 9.3962C7.88648 9.41168 7.92844 9.41894 7.97055 9.41753C8.01267 9.41612 8.05405 9.40608 8.09213 9.38802C8.1302 9.36997 8.16417 9.34428 8.19191 9.31256L11.8456 5.13372C11.953 5.01082 12.1048 4.93561 12.2677 4.92465C12.4305 4.91368 12.5911 4.96786 12.714 5.07527C12.8369 5.18267 12.9121 5.3345 12.9231 5.49735C12.9341 5.6602 12.8799 5.82074 12.7725 5.94365H12.7713Z" fill="#CDCDCD"/>
</svg>
