<svg width="296" height="202" viewBox="0 0 296 202" fill="none" xmlns="http://www.w3.org/2000/svg">
<g clip-path="url(#clip0)">
<path d="M63.184 192.908C25.5383 162.522 79.6778 148.73 52.4359 125.014C25.1758 101.298 40.3283 21.0225 85.369 17.6423C132.947 14.0451 136.572 52.6014 154.353 23.9689C171.155 -3.09098 230.279 -18.3291 227.632 40.2735C224.986 98.8761 278.31 78.8117 257.883 114.53C237.456 150.248 271.06 187.358 255.436 196.884L63.184 192.908Z" fill="#FBF3FA"/>
<path d="M214.456 188.443C150.547 175.537 145.145 136.745 110.98 148.495C76.8141 160.244 88.4685 108.438 56.9128 110.716C25.6108 112.957 22.6927 175.266 33.459 186.111C44.2071 196.957 153.084 196.65 153.084 196.65C153.084 196.65 209.924 201.169 213.894 197.011C217.863 192.854 214.456 188.443 214.456 188.443Z" fill="#F2F2F2"/>
<path d="M142.862 25.5596C159.374 12.2556 138.004 -5.82049 126.894 4.04904C115.765 13.9186 137.026 30.2774 142.862 25.5596Z" fill="#FBF3FA"/>
<path d="M240.846 44.919C222.231 47.4678 256.27 84.7587 258.645 75.793C261.037 66.8272 248.803 43.8345 240.846 44.919Z" fill="#FBF3FA"/>
<path d="M145.925 202C226.517 202 291.849 199.952 291.849 197.427C291.849 194.901 226.517 192.854 145.925 192.854C65.3327 192.854 0 194.901 0 197.427C0 199.952 65.3327 202 145.925 202Z" fill="#E6E6E6"/>
<path d="M40.5638 200.048C62.9666 200.048 81.1277 198.777 81.1277 197.21C81.1277 195.643 62.9666 194.372 40.5638 194.372C18.161 194.372 0 195.643 0 197.21C0 198.777 18.161 200.048 40.5638 200.048Z" fill="#CECCCC"/>
<path d="M138.802 200.048C150.514 200.048 160.008 198.777 160.008 197.21C160.008 195.643 150.514 194.372 138.802 194.372C127.09 194.372 117.595 195.643 117.595 197.21C117.595 198.777 127.09 200.048 138.802 200.048Z" fill="#CECCCC"/>
<path d="M225.439 200.048C237.281 200.048 246.881 198.947 246.881 197.589C246.881 196.232 237.281 195.131 225.439 195.131C213.597 195.131 203.997 196.232 203.997 197.589C203.997 198.947 213.597 200.048 225.439 200.048Z" fill="#CECCCC"/>
<path d="M273.706 200.048C282.936 200.048 290.418 198.947 290.418 197.589C290.418 196.232 282.936 195.131 273.706 195.131C264.477 195.131 256.995 196.232 256.995 197.589C256.995 198.947 264.477 200.048 273.706 200.048Z" fill="#CECCCC"/>
<path d="M29.5801 194.498L30.2507 194.462C30.2507 194.462 30.2145 193.83 30.1601 192.691C30.1057 191.57 29.997 189.961 29.852 188.045C29.5439 184.213 28.9639 179.098 28.112 174.036C27.2782 168.975 26.1907 163.95 25.2301 160.208C24.2876 156.466 23.5445 154.008 23.5445 154.008L22.892 154.189C22.892 154.189 23.6351 156.629 24.5776 160.353C25.5201 164.076 26.6076 169.065 27.4413 174.127C28.2932 179.17 28.8551 184.267 29.1632 188.081C29.3082 189.997 29.417 191.588 29.4714 192.709C29.5439 193.866 29.5801 194.498 29.5801 194.498Z" fill="#DFADB5"/>
<path d="M20.1913 159.72C22.2213 160.389 24.4144 159.395 24.4144 159.395C24.4144 159.395 24.1426 158.852 23.5988 158.238C23.055 157.623 22.2575 156.936 21.2425 156.611C19.1944 155.978 17.0194 157.045 17.0194 157.045C17.0194 157.045 18.1432 159.069 20.1913 159.72Z" fill="#DFADB5"/>
<path d="M29.5982 161.961C28.13 163.552 25.7013 163.643 25.7013 163.643C25.7013 163.643 25.7013 161.238 27.1332 159.63C28.5832 158.021 30.9938 157.858 30.9938 157.858C30.9938 157.858 31.0119 158.491 30.8488 159.304C30.6857 160.154 30.3413 161.166 29.5982 161.961Z" fill="#DFADB5"/>
<path d="M26.5714 155.888C25.647 156.954 24.052 157.081 24.052 157.081C24.052 157.081 23.9976 155.508 24.9039 154.424C25.8101 153.339 27.4051 153.177 27.4051 153.177C27.4051 153.177 27.5139 154.821 26.5714 155.888Z" fill="#DFADB5"/>
<path d="M23.8888 152.11C24.2332 153.502 23.4356 154.858 23.4356 154.858C23.4356 154.858 22.1125 154.008 21.7681 152.634C21.4238 151.279 22.185 149.887 22.185 149.887C22.185 149.887 23.5263 150.736 23.8888 152.11Z" fill="#DFADB5"/>
<path d="M20.9706 167.204C23.4175 168.125 26.1725 167.041 26.1725 167.041C26.1725 167.041 25.8644 166.372 25.23 165.577C24.5956 164.799 23.6713 163.896 22.4206 163.462C19.9375 162.594 17.2188 163.787 17.2188 163.787C17.2188 163.787 17.545 164.42 18.1794 165.161C18.8138 165.884 19.7381 166.752 20.9706 167.204Z" fill="#DFADB5"/>
<path d="M32.3895 170.511C30.4864 172.373 27.5139 172.337 27.5139 172.337C27.5139 172.337 27.6589 169.391 29.5258 167.511C31.3927 165.613 34.3652 165.541 34.3652 165.541C34.3652 165.541 34.3471 166.318 34.1114 167.33C33.8396 168.324 33.3321 169.572 32.3895 170.511Z" fill="#DFADB5"/>
<path d="M22.6927 176.531C25.0852 177.597 27.8946 176.657 27.8946 176.657C27.8946 176.657 27.6227 175.97 27.0427 175.157C26.4627 174.344 25.5746 173.404 24.3602 172.879C21.9315 171.867 19.1583 172.898 19.1583 172.898C19.1583 172.898 19.4483 173.548 20.0283 174.326C20.6083 175.085 21.4965 175.989 22.6927 176.531Z" fill="#DFADB5"/>
<path d="M33.8938 180.471C31.8819 182.225 28.9094 182.008 28.9094 182.008C28.9094 182.008 28.9819 181.267 29.3263 180.309C29.6344 179.351 30.2144 178.176 31.1932 177.29C33.1688 175.5 36.1232 175.609 36.1232 175.609C36.1232 175.609 35.9238 178.718 33.8938 180.471Z" fill="#DFADB5"/>
<path d="M23.8346 185.478C26.1727 186.671 29.0365 185.894 29.0365 185.894C29.0365 185.894 28.094 183.074 25.7196 181.936C23.3633 180.797 20.5177 181.682 20.5177 181.682C20.5177 181.682 21.5146 184.285 23.8346 185.478Z" fill="#DFADB5"/>
<path d="M34.8184 190.016C32.7159 191.661 29.7615 191.281 29.7615 191.281C29.7615 191.281 30.2327 188.371 32.299 186.708C34.3652 185.027 37.3196 185.298 37.3196 185.298C37.3196 185.298 36.939 188.371 34.8184 190.016Z" fill="#DFADB5"/>
<path d="M284.654 189.184L284.255 189.238C283.131 181.122 281.174 173.114 278.401 165.396L278.781 165.269C281.554 173.006 283.53 181.032 284.654 189.184Z" fill="#869964"/>
<path d="M282.026 167.131C281.228 168.162 279.778 168.342 279.778 168.342C279.778 168.342 279.651 166.896 280.431 165.866C281.21 164.836 282.66 164.601 282.66 164.601C282.66 164.601 282.823 166.101 282.026 167.131Z" fill="#869964"/>
<path d="M277.911 171.253C279.162 171.596 280.449 170.945 280.449 170.945C280.449 170.945 279.724 169.68 278.473 169.355C277.223 169.011 275.936 169.698 275.936 169.698C275.936 169.698 276.679 170.891 277.911 171.253Z" fill="#869964"/>
<path d="M277.549 167.33C278.364 167.529 279.198 167.077 279.198 167.077C279.198 167.077 278.709 166.264 277.875 166.065C277.041 165.866 276.226 166.336 276.226 166.336C276.226 166.336 276.733 167.131 277.549 167.33Z" fill="#869964"/>
<path d="M277.549 164.601C277.875 165.378 278.745 165.758 278.745 165.758C278.745 165.758 279.089 164.872 278.763 164.076C278.419 163.299 277.549 162.92 277.549 162.92C277.549 162.92 277.223 163.823 277.549 164.601Z" fill="#869964"/>
<path d="M284.001 171.47C282.968 172.699 281.192 172.861 281.192 172.861C281.192 172.861 281.101 171.09 282.098 169.843C283.095 168.595 284.871 168.379 284.871 168.379C284.871 168.379 285.016 170.258 284.001 171.47Z" fill="#869964"/>
<path d="M278.745 176.314C280.249 176.802 281.862 176.079 281.862 176.079C281.862 176.079 281.047 174.488 279.524 174.018C278.02 173.548 276.407 174.326 276.407 174.326C276.407 174.326 277.241 175.826 278.745 176.314Z" fill="#869964"/>
<path d="M285.524 177.308C284.436 178.483 282.642 178.555 282.642 178.555C282.642 178.555 282.642 176.784 283.693 175.591C284.763 174.398 286.539 174.271 286.539 174.271C286.539 174.271 286.611 176.133 285.524 177.308Z" fill="#869964"/>
<path d="M280.032 181.881C281.5 182.442 283.168 181.809 283.168 181.809C283.168 181.809 282.425 180.182 280.938 179.64C279.452 179.098 277.803 179.803 277.803 179.803C277.803 179.803 278.564 181.321 280.032 181.881Z" fill="#869964"/>
<path d="M286.72 182.948C285.578 184.069 283.784 184.069 283.784 184.069C283.784 184.069 283.856 182.297 284.98 181.158C286.104 180.02 287.88 179.965 287.88 179.965C287.88 179.965 287.862 181.809 286.72 182.948Z" fill="#869964"/>
<path d="M281.029 187.25C282.479 187.883 284.164 187.322 284.164 187.322C284.164 187.322 283.494 185.659 282.044 185.045C280.594 184.43 278.908 185.063 278.908 185.063C278.908 185.063 279.579 186.617 281.029 187.25Z" fill="#869964"/>
<path d="M290.11 195.438C295.13 186.979 292.121 175.519 292.121 175.519C292.121 175.519 284.001 178.158 280.177 195.438H290.11Z" fill="#1B687A"/>
<path d="M285.56 195.438C287.626 186.708 296.018 183.743 296.018 183.743C296.018 183.743 295.656 191.317 292.121 195.438H285.56Z" fill="#155263"/>
<path d="M283.639 195.438C285.47 187.684 288.406 183.797 288.406 183.797C288.406 183.797 284.998 191.371 284.636 195.438H283.639Z" fill="#155263"/>
<path d="M287.771 195.438L292.593 187.81L288.823 195.438H287.771Z" fill="#123F49"/>
<path d="M283.838 195.438C281.772 186.708 273.38 183.743 273.38 183.743C273.38 183.743 273.743 191.317 277.277 195.438H283.838Z" fill="#155263"/>
<path d="M281.627 195.438L276.806 187.81L280.576 195.438H281.627Z" fill="#123F49"/>
<path d="M191.111 175.699C193.304 165.468 199.919 161.184 198.107 152.237C197.799 150.718 198.687 145.277 199.539 143.976C200.971 141.771 202.819 137.938 201.659 133.998C198.723 123.984 202.747 121.959 200.137 118.272C197.527 114.566 196.004 112.397 196.657 110.427C197.309 108.474 194.137 102.925 190.657 101.624C187.159 100.322 184.241 101.063 182.048 103.449C179.855 105.835 178.332 112.361 178.55 114.331C178.767 116.301 176.357 121.074 175.052 124.128C173.747 127.165 175.469 133.058 176.339 136.529C177.209 140.017 175.469 140.596 174.852 143.56C174.091 147.248 176.556 148.35 179.166 152.056C181.776 155.761 177.354 159.811 181.087 163.299C182.102 164.239 189.153 169.843 189.371 172.012C189.588 174.181 191.111 175.699 191.111 175.699Z" fill="#F4CEF2"/>
<path d="M191.926 186.509C192.959 181.863 191.636 175.193 190.349 168.758C189.425 164.167 188.482 159.413 188.482 155.689C188.482 152.237 189.153 149.453 189.805 146.76C190.82 142.548 191.781 138.571 190.005 132.877C187.286 124.074 189.95 118.597 189.987 118.543L188.881 117.982C188.754 118.217 185.963 123.966 188.827 133.239C190.494 138.607 189.606 142.259 188.591 146.47C187.92 149.236 187.232 152.092 187.232 155.689C187.232 159.521 188.192 164.348 189.117 168.993C190.385 175.32 191.69 181.845 190.694 186.238L191.926 186.509Z" fill="#889DC6"/>
<path d="M185.927 193.595L196.802 193.613L195.787 185.623L186.942 185.605L185.927 193.595Z" fill="#FFCA3C"/>
<path d="M33.9664 59.5968L41.5608 76.3895L49.119 72.9911L41.5246 56.1985L33.9664 59.5968ZM39.5852 62.0009C38.9508 62.2901 38.1896 62.0009 37.8996 61.3682C37.6096 60.7356 37.8996 59.9764 38.5339 59.6872C39.1683 59.398 39.9296 59.6872 40.2196 60.3198C40.5096 60.9525 40.2377 61.7117 39.5852 62.0009Z" fill="#DC5ED7"/>
<path d="M49.1007 72.9912L41.5426 76.3895L38.5338 69.7555C41.2163 68.9964 45.2763 71.3824 45.7295 65.5438L49.1007 72.9912Z" fill="#DC5ED7"/>
<path d="M51.0946 72.0873L62.6947 66.8633C66.8272 65.0015 68.6759 60.139 66.809 56.0177L63.8909 49.5826C65.9572 48.6608 66.8815 46.2386 65.939 44.1779C65.0147 42.1172 62.5859 41.1953 60.5196 42.1353L50.9315 46.5639L51.6203 39.8577C51.9103 37.1282 49.1734 34.8687 46.6359 35.9533C46.6177 35.9533 46.5996 35.9714 46.5815 35.9714L43.9171 56.2346L51.0946 72.0873Z" fill="#DC5ED7"/>
<path d="M62.6765 66.8814L51.0765 72.0873L46.1102 61.1152C49.0102 64.4592 51.9284 65.0377 54.8827 64.4954C57.5109 64.0073 59.9578 62.6878 61.8065 60.9886C64.5615 58.4399 65.5946 52.8544 62.6221 50.5768C62.5496 50.5226 63.8909 49.5826 63.8909 49.5826L64.9784 51.9868L66.2109 54.7343L66.7909 56.0358C68.6759 60.1571 66.8271 65.0196 62.6765 66.8814Z" fill="#DC5ED7"/>
<rect x="112" y="70" width="35" height="19" rx="3" fill="#DC5ED7"/>
<path d="M135.757 86.5843L143.351 95.5501L141.956 84.8852L135.757 86.5843Z" fill="#DC5ED7"/>
<path d="M138.729 80.9265C139.53 80.9265 140.179 80.2791 140.179 79.4804C140.179 78.6818 139.53 78.0344 138.729 78.0344C137.928 78.0344 137.279 78.6818 137.279 79.4804C137.279 80.2791 137.928 80.9265 138.729 80.9265Z" fill="white"/>
<path d="M120.079 80.9265C120.879 80.9265 121.529 80.2791 121.529 79.4804C121.529 78.6818 120.879 78.0344 120.079 78.0344C119.278 78.0344 118.629 78.6818 118.629 79.4804C118.629 80.2791 119.278 80.9265 120.079 80.9265Z" fill="white"/>
<path d="M129.014 80.9265C129.815 80.9265 130.464 80.2791 130.464 79.4804C130.464 78.6818 129.815 78.0344 129.014 78.0344C128.213 78.0344 127.564 78.6818 127.564 79.4804C127.564 80.2791 128.213 80.9265 129.014 80.9265Z" fill="white"/>
<path d="M254.458 110.264H273.67C274.069 110.264 274.413 109.939 274.413 109.523V95.7489C274.413 95.3512 274.087 95.0078 273.67 95.0078H254.458C254.059 95.0078 253.714 95.3331 253.714 95.7489V109.523C253.714 109.939 254.041 110.264 254.458 110.264Z" fill="#F4CEF2"/>
<path d="M258.808 109.324L255.237 113.536L255.889 108.511L258.808 109.324Z" fill="#F4CEF2"/>
<path d="M259.641 101.913C259.623 104.19 264.064 106.649 264.064 106.649C264.064 106.649 268.577 104.01 268.595 102.021C268.613 100.611 267.471 99.4364 266.058 99.4364C265.296 99.4364 264.626 99.7437 264.136 100.25C263.665 99.7256 262.994 99.4002 262.251 99.3822C260.819 99.3641 259.659 100.503 259.641 101.913Z" fill="#D84178"/>
<path d="M98.6185 122.971L95.7548 122.99L92.9454 95.6766L50.3516 119.79L50.5147 155.617L93.326 179.351L95.8817 152.002H98.7454L97.241 137.505L98.6185 122.971Z" fill="#D9E0E9"/>
<path d="M116.254 137.396C116.29 145.693 109.947 152.562 101.845 153.357L101.682 121.562C109.802 122.285 116.2 129.099 116.254 137.396Z" fill="#F4CEF2"/>
<path opacity="0.49" d="M116.254 137.396C116.291 145.693 109.947 152.562 101.845 153.357L101.809 146.742C108.805 146.055 114.496 140.831 115.892 134.088C116.109 135.155 116.236 136.257 116.254 137.396Z" fill="#E897E4"/>
<path d="M31.6102 137.794L31.8459 189.979C31.864 194.191 35.2896 197.571 39.5127 197.553C43.7359 197.535 47.1253 194.119 47.1071 189.907L46.8715 137.722L31.6102 137.794Z" fill="#D9E0E9"/>
<path opacity="0.49" d="M46.9803 161.51C38.1172 164.311 31.719 160.66 31.719 160.66L31.6647 147.754L46.9441 148.911L46.9803 161.51Z" fill="#2D87C1"/>
<path d="M39.5672 119.844C29.6528 119.898 21.6415 127.942 21.6777 137.848C21.7321 147.736 29.7978 155.725 39.7303 155.689L50.5147 155.635L50.3516 119.808L39.5672 119.844Z" fill="#F4CEF2"/>
<path opacity="0.49" d="M97.7667 152.002H95.8999L93.3442 179.333L50.5148 155.617L39.7304 155.671C29.7979 155.725 21.7322 147.736 21.6779 137.848C21.6779 137.432 21.696 137.017 21.7504 136.601C27.1154 151.007 50.4604 142.024 50.4604 142.024C50.4604 142.024 67.0448 153.303 96.8786 148.549C96.8786 148.513 97.2049 149.796 97.7667 152.002Z" fill="#DC5ED7"/>
<path d="M98.4554 89.8561C95.3923 89.8742 92.9273 92.3506 92.9454 95.4055L93.3442 179.604C93.3623 182.659 95.8454 185.117 98.9086 185.099C101.972 185.081 104.437 182.604 104.419 179.55L104.02 95.3512C104.02 92.3145 101.519 89.838 98.4554 89.8561Z" fill="#596584"/>
<path d="M251.975 139.15L256.778 138.264C257.104 138.21 257.412 138.408 257.467 138.698L258.445 145.097C258.5 145.476 258.373 145.838 258.119 146.127L256.832 147.483L251.504 139.674L251.975 139.15Z" fill="#F4CEF2"/>
<path d="M257.031 138.553L258.101 145.494L257.448 146.073L255.636 140.614L251.648 139.836L252.246 139.222L257.031 138.553Z" fill="white"/>
<path d="M252.718 147.826L257.938 147.356L256.886 140.433C256.778 139.746 256.053 139.24 255.273 139.312L251.485 139.656L252.718 147.826Z" fill="#414042"/>
<path d="M252.953 141.897L255.908 141.626L255.708 140.27L252.754 140.523L252.953 141.897Z" fill="#F4CEF2"/>
<path d="M284.164 187.774L287.481 190.612L282.479 196.415C282.479 196.415 280.956 195.294 282.062 193.884C283.167 192.474 283.856 191.154 282.207 190.052C280.557 188.949 284.164 187.774 284.164 187.774Z" fill="white"/>
<path d="M271.459 159.214C274.903 161.166 270.988 175.031 270.988 175.031C270.988 175.031 277.223 178.212 279.506 182.189C281.79 186.165 284.563 187.666 284.563 187.666L282.261 190.413L266.873 177.688L263.411 164.348C263.411 164.33 269.393 158.039 271.459 159.214Z" fill="#456633"/>
<path d="M268.486 136.999L265.115 139.33L265.351 141.228C265.351 141.228 259.351 167.764 259.931 163.317C262.831 165.559 264.046 167.366 266.094 164.673C269.103 165.342 273.978 164.076 274.304 160.714C274.304 160.714 274.613 154.858 274.25 147.555C274.069 143.976 271.694 139.222 270.335 139.005C268.976 138.806 269.103 136.474 268.486 136.999Z" fill="#83C361"/>
<path d="M271.459 143.036C272.782 151.658 270.716 157.605 268.251 158.093C264.861 158.762 262.469 154.514 262.469 154.514L261.852 152.128L266.964 152.815L268.522 147.139L269.284 144.392L271.459 143.036Z" fill="#699A4D"/>
<path d="M269.302 151.007L268.849 153.918C268.776 154.442 268.45 154.894 267.997 155.147C267.453 155.454 266.801 155.436 266.275 155.111L256.923 149.381C256.923 149.381 255.889 149.363 254.748 148.802C253.606 148.242 252.627 147.898 252.591 147.537C252.554 147.175 253.986 147.573 253.986 147.573C253.986 147.573 251.63 146.85 251.739 146.47C251.848 146.073 254.911 146.886 254.911 146.886C254.911 146.886 251.829 145.512 252.065 145.024C252.301 144.554 255.545 145.946 255.545 145.946C255.545 145.946 252.772 144.482 252.971 144.12C253.171 143.759 257.648 145.675 257.648 145.675L258.391 144.862C258.391 144.862 258.354 146.832 259.043 147.356C259.732 147.88 265.514 150.049 266.311 150.266C267.109 150.483 269.302 151.007 269.302 151.007Z" fill="#FCBD8C"/>
<path d="M262.577 128.467C260.638 130.672 260.982 132.154 261.653 132.931C261.653 132.931 265.042 133.257 265.949 133.203C265.949 133.203 265.677 135.643 265.931 136.221L268.287 135.281C268.287 135.281 269.229 133.745 268.812 132.299C268.396 130.853 267.272 129.714 265.985 129.479C264.698 129.226 262.922 130.148 262.432 128.521" fill="#603813"/>
<path d="M261.653 132.931C261.653 132.931 261.726 134.432 260.964 135.01C260.203 135.589 259.931 135.516 259.931 135.516C259.931 135.516 260.62 136.474 260.711 137.342C260.801 138.21 261.49 139.023 262.795 139.168C264.1 139.312 265.024 138.716 265.024 138.716L265.894 139.041C265.894 139.041 267.471 138.625 268.015 137.74L267.417 136.89C267.417 136.89 268.74 135.552 267.816 134.974C266.891 134.396 265.894 136.203 265.894 136.203L266.021 133.148L261.653 132.931Z" fill="#FCBD8C"/>
<path d="M265.042 138.716C266.148 138.21 267.453 136.89 267.453 136.89C267.453 136.89 266.202 138.607 265.641 139.15L265.042 138.716Z" fill="#D89060"/>
<path d="M270.226 152.128L265.568 149.706L265.731 141.861L269.556 140.397L271.749 142.006L270.226 152.128Z" fill="#83C361"/>
<path d="M258.391 144.862C258.372 143.56 257.376 142.964 257.647 145.675C257.919 148.386 257.992 147.248 257.992 147.248L258.391 144.862Z" fill="#FCBD8C"/>
<path d="M261.617 193.179V197.535H253.932C253.932 197.535 253.787 195.655 255.581 195.565C257.376 195.475 258.826 195.149 258.59 193.179C258.354 191.209 261.617 193.179 261.617 193.179Z" fill="white"/>
<path d="M272.872 163.317L266.003 174.307L265.006 170.783L272.872 163.317Z" fill="#354F27"/>
<path d="M272.873 163.263L259.931 163.317L256.524 179.278L258.373 193.595H261.853C261.853 193.595 261.436 185.641 261.853 182.514C262.27 179.387 261.291 177.055 261.291 177.055L272.873 163.263Z" fill="#456633"/>
<path d="M192.071 190.341L188.464 192.655C188.464 192.655 185.473 187.883 184.64 186.346C183.806 184.828 187.068 185.298 188.482 187.485C189.388 188.877 191.31 188.335 191.31 188.335L192.071 190.341Z" fill="#414042"/>
<path d="M198.415 174.669L190.132 188.551L192.452 190.648L200.608 179.64L213.93 176.404L212.317 166.951L198.415 174.669Z" fill="#333333"/>
<path d="M233.867 188.497L237.456 189.726C237.456 189.726 237.257 195.312 237.094 197.047C236.912 198.782 234.302 195.673 234.484 194.028C234.647 192.384 232.725 190.468 232.725 190.468L233.867 188.497Z" fill="#414042"/>
<path d="M209.779 173.53L217.174 184.141L233.233 191.426L234.302 188.244L222.05 180.453L213.748 166.878L209.362 169.102L209.779 173.53Z" fill="#333333"/>
<path d="M217.301 169.409C218.986 173.964 220.436 178.104 220.436 178.104L214.854 169.662L217.301 169.409Z" fill="#333333"/>
<path d="M199.267 126.623L199.23 125.99C199.194 125.358 198.705 124.833 198.07 124.743L196.729 124.562L196.765 125.936L196.222 126.171L196.693 127.256C196.892 127.707 197.327 128.015 197.817 128.069C198.632 128.123 199.321 127.436 199.267 126.623Z" fill="#FAE3D9"/>
<path d="M209.108 152.002L201.985 140.09L198.94 127.454L196.783 127.527L198.27 143.669L207.64 158.238L209.108 152.002Z" fill="#DC5ED7"/>
<path d="M203.308 139.457C201.55 141.59 202.166 143.018 202.819 143.723C202.819 143.723 206.045 143.94 206.897 143.831C206.897 143.831 206.716 146.145 206.97 146.687L209.163 145.729C209.163 145.729 210.015 144.247 209.561 142.891C209.108 141.536 208.021 140.487 206.806 140.306C205.574 140.108 203.943 141.03 203.417 139.511L203.308 139.457Z" fill="#FF9A00"/>
<path d="M202.819 143.723C202.819 143.723 202.928 145.133 202.239 145.711C201.55 146.29 201.279 146.235 201.279 146.235C201.279 146.235 201.967 147.121 202.076 147.935C202.185 148.748 202.874 149.507 204.106 149.616C205.339 149.724 205.538 149.471 205.538 149.471L206.027 151.911C206.027 151.911 208.112 150.736 208.601 149.887L208.438 147.32C208.438 147.32 209.652 146.019 208.764 145.494C207.876 144.97 206.988 146.705 206.988 146.705L207.024 143.813L202.819 143.723Z" fill="#FAE3D9"/>
<path opacity="0.47" d="M205.538 149.471C205.538 149.471 207.822 148.332 208.438 147.302L208.51 148.423C208.51 148.423 206.589 149.869 205.628 149.778L205.538 149.471Z" fill="#7F7FC6"/>
<path d="M219.856 128.702L219.675 127.436C219.639 127.165 219.421 126.966 219.15 126.948C219.15 126.948 217.736 126.767 217.391 127.111C217.156 127.364 217.283 128.177 217.283 128.177L216.757 128.467L217.301 129.515C217.536 129.949 217.99 130.238 218.479 130.238C219.313 130.256 219.965 129.515 219.856 128.702Z" fill="#FAE3D9"/>
<path d="M205.193 150.863L208.166 149.598C208.891 149.29 209.725 149.453 210.287 150.013L210.74 150.483C212.19 151.947 213.567 153.032 214.165 154.984L217.863 168.849C218.207 170.005 217.283 171.144 216.068 171.036L206.154 170.15L205.193 150.863Z" fill="#DC5ED7"/>
<path d="M209.833 154.93C212.48 160.497 215.416 159.485 215.416 159.485C215.416 159.485 214.057 153.701 213.168 152.182C212.262 150.646 209.833 154.93 209.833 154.93Z" fill="#A22A9D"/>
<path d="M208.529 152.164L214.093 141.897L217.229 129.443L219.422 130.003L217.482 143.506L210.631 157.081L208.529 152.164Z" fill="#DC5ED7"/>
<path d="M139.798 193.07L139.653 197.499C139.653 197.499 145.49 197.608 147.302 197.517C149.097 197.445 146.922 194.806 144.239 194.733C142.517 194.679 141.973 192.691 141.973 192.691L139.798 193.07Z" fill="#414042"/>
<path d="M119.861 190.54L118.211 194.643C118.211 194.643 123.667 196.74 125.389 197.282C127.111 197.824 125.969 194.607 123.468 193.613C121.873 192.98 122.036 190.919 122.036 190.919L119.861 190.54Z" fill="#414042"/>
<path d="M139.4 160.244L142.916 175.229L142.318 193.468L139.345 193.54L136.916 176.567L134.995 170.566L132.585 176.784L121.746 191.498L119.063 190.395L126.875 174.705L129.993 161.347L139.4 160.244Z" fill="#BAD4F5"/>
<path d="M139.508 128.232C141.701 130.093 141.321 131.648 140.777 132.48C140.777 132.48 137.533 133.275 136.626 133.329C136.626 133.329 137.243 135.661 137.061 136.257L134.651 135.661C134.651 135.661 133.509 134.287 133.726 132.841C133.944 131.395 134.868 130.13 136.083 129.714C137.297 129.298 139.146 129.931 139.4 128.286L139.508 128.232Z" fill="#404B69"/>
<path d="M140.777 132.479C140.777 132.479 140.922 133.944 141.72 134.396C142.535 134.847 142.789 134.757 142.789 134.757C142.789 134.757 142.245 135.787 142.282 136.637C142.3 137.487 141.756 138.372 140.523 138.698C139.291 139.023 139.037 138.806 139.037 138.806L138.983 141.373C138.983 141.373 136.645 140.559 135.992 139.764L135.702 137.107C135.702 137.107 134.216 136.004 135.05 135.299C135.865 134.612 137.08 136.221 137.08 136.221L136.518 133.275L140.777 132.479Z" fill="#FAE3D9"/>
<path opacity="0.47" d="M139.037 138.824C139.037 138.824 136.518 138.083 135.684 137.125L135.811 138.282C135.811 138.282 138.04 139.403 139.001 139.132L139.037 138.824Z" fill="#7F7FC6"/>
<path d="M152.758 128.449L152.268 126.948C152.051 126.297 151.398 125.864 150.709 125.954C150.709 125.954 149.731 126.189 149.513 126.478C149.296 126.786 149.64 127.545 149.64 127.545C149.64 127.545 149.151 127.78 149.133 127.942C149.096 128.25 149.912 128.955 149.912 128.955C150.238 129.37 150.782 129.587 151.308 129.497L152.196 129.352C152.613 129.28 152.884 128.846 152.758 128.449Z" fill="#FAE3D9"/>
<path d="M137.605 140.126L149.332 137.722C149.767 137.631 150.075 137.233 150.039 136.782L149.985 128.81L152.939 128.973L153.374 140.632C153.41 141.066 153.12 141.463 152.685 141.572L139.055 145.765C138.167 145.982 138.149 144.554 137.551 143.867C136.989 143.217 136.826 142.295 137.116 141.481L137.605 140.126Z" fill="#DC5ED7"/>
<path d="M139.635 140.18L136.373 139.421C134.433 138.77 133.418 140.487 133.418 140.487C132.204 142.241 130.555 147.121 130.246 149.109C129.268 155.545 129.485 161.708 129.485 161.708L140.541 163.209L139.635 140.18Z" fill="#DC5ED7"/>
<path d="M140.288 145.404L135.648 146.326L139.907 147.32L140.288 145.404Z" fill="#2D27A0"/>
<path d="M19.1404 196.939C11.6003 184.231 16.1316 167.023 16.1316 167.023C16.1316 167.023 28.3298 170.981 34.0754 196.939H19.1404Z" fill="#1B687A"/>
<path d="M25.9914 196.939C22.8921 183.834 10.2952 179.369 10.2952 179.369C10.2952 179.369 10.8389 190.757 16.1314 196.939H25.9914Z" fill="#155263"/>
<path d="M28.8734 196.939C26.1365 185.28 21.714 179.459 21.714 179.459C21.714 179.459 26.8253 190.847 27.369 196.939H28.8734Z" fill="#155263"/>
<path d="M22.6744 196.939L15.4062 185.497L21.0975 196.939H22.6744Z" fill="#123F49"/>
<path d="M28.5653 196.939C31.6647 183.834 44.2616 179.369 44.2616 179.369C44.2616 179.369 43.7178 190.757 38.4253 196.939H28.5653Z" fill="#155263"/>
<path d="M31.882 196.939L39.1501 185.497L33.4588 196.939H31.882Z" fill="#123F49"/>
<path d="M62.35 198.475C67.9357 198.475 72.4637 197.706 72.4637 196.758C72.4637 195.81 67.9357 195.041 62.35 195.041C56.7643 195.041 52.2362 195.81 52.2362 196.758C52.2362 197.706 56.7643 198.475 62.35 198.475Z" fill="#E09D27"/>
<path d="M72.4637 193.739H52.2362V196.758H72.4637V193.739Z" fill="#E09D27"/>
<path d="M62.35 195.456C67.9357 195.456 72.4637 194.688 72.4637 193.739C72.4637 192.791 67.9357 192.022 62.35 192.022C56.7643 192.022 52.2362 192.791 52.2362 193.739C52.2362 194.688 56.7643 195.456 62.35 195.456Z" fill="#FCB72B"/>
<path d="M54.665 193.884C54.665 194.607 58.1088 195.185 62.3501 195.185C66.5913 195.185 70.0351 194.607 70.0351 193.884C70.0351 193.866 70.0351 193.83 70.0169 193.812C69.7813 194.498 66.4463 195.041 62.3501 195.041C58.2538 195.041 54.9188 194.498 54.6832 193.812C54.6832 193.848 54.665 193.866 54.665 193.884Z" fill="#FFC285"/>
<path d="M62.35 195.041C66.5843 195.041 70.0169 194.49 70.0169 193.812C70.0169 193.133 66.5843 192.582 62.35 192.582C58.1157 192.582 54.6831 193.133 54.6831 193.812C54.6831 194.49 58.1157 195.041 62.35 195.041Z" fill="#DD9624"/>
<path d="M54.665 193.739C54.665 193.775 54.665 193.812 54.6832 193.83C54.955 193.143 58.29 192.619 62.3319 192.619C66.3919 192.619 69.7088 193.161 69.9807 193.83C69.9988 193.793 69.9988 193.775 69.9988 193.739C69.9988 193.016 66.5551 192.438 62.3138 192.438C58.1088 192.438 54.665 193.016 54.665 193.739Z" fill="#A36F40"/>
<path d="M62.6763 194.39V194.227C63.2201 194.227 63.7638 194.191 64.0901 194.155L63.8726 194.047C63.5463 194.083 63.0569 194.119 62.5313 194.119C61.8788 194.119 61.4257 194.047 61.4257 193.956C61.4257 193.866 61.7882 193.812 62.4769 193.775C63.4194 193.721 63.9994 193.631 63.9994 193.504C63.9994 193.378 63.4557 193.269 62.6038 193.251V193.089H62.0238V193.233C61.4619 193.233 61.0813 193.269 60.8276 193.287L61.0632 193.396C61.2625 193.378 61.6432 193.342 62.2232 193.342C62.9301 193.342 63.2019 193.414 63.2019 193.468C63.2019 193.558 62.8576 193.595 62.0601 193.649C61.0994 193.721 60.6282 193.793 60.6282 193.938C60.6282 194.065 61.1357 194.173 62.0963 194.209V194.372H62.6763V194.39Z" fill="#FCD183"/>
<path d="M57.3837 195.167C62.9694 195.167 67.4974 194.398 67.4974 193.45C67.4974 192.502 62.9694 191.733 57.3837 191.733C51.798 191.733 47.2699 192.502 47.2699 193.45C47.2699 194.398 51.798 195.167 57.3837 195.167Z" fill="#E09D27"/>
<path d="M67.4974 190.431H47.2699V193.45H67.4974V190.431Z" fill="#E09D27"/>
<path d="M57.3837 192.149C62.9694 192.149 67.4974 191.38 67.4974 190.431C67.4974 189.483 62.9694 188.714 57.3837 188.714C51.798 188.714 47.2699 189.483 47.2699 190.431C47.2699 191.38 51.798 192.149 57.3837 192.149Z" fill="#FCB72B"/>
<path d="M49.6987 190.576C49.6987 191.299 53.1425 191.877 57.3837 191.877C61.625 191.877 65.0688 191.299 65.0688 190.576C65.0688 190.558 65.0688 190.522 65.0506 190.504C64.815 191.191 61.48 191.733 57.3837 191.733C53.2875 191.733 49.9525 191.191 49.7169 190.504C49.6987 190.54 49.6987 190.558 49.6987 190.576Z" fill="#FFC285"/>
<path d="M57.3837 191.733C61.618 191.733 65.0506 191.183 65.0506 190.504C65.0506 189.825 61.618 189.274 57.3837 189.274C53.1494 189.274 49.7168 189.825 49.7168 190.504C49.7168 191.183 53.1494 191.733 57.3837 191.733Z" fill="#DD9624"/>
<path d="M49.6987 190.431C49.6987 190.468 49.6987 190.486 49.7169 190.522C49.9887 189.835 53.3237 189.311 57.3656 189.311C61.4256 189.311 64.7425 189.853 65.0144 190.522C65.0325 190.486 65.0325 190.468 65.0325 190.431C65.0325 189.708 61.5888 189.13 57.3475 189.13C53.1062 189.13 49.6987 189.708 49.6987 190.431Z" fill="#A36F40"/>
<path d="M57.6917 191.082V190.919C58.2354 190.919 58.7792 190.883 59.1054 190.847L58.8879 190.739C58.5617 190.775 58.0723 190.811 57.5467 190.811C56.8942 190.811 56.4411 190.739 56.4411 190.648C56.4411 190.558 56.8036 190.504 57.4923 190.467C58.4348 190.413 59.0148 190.323 59.0148 190.196C59.0148 190.07 58.4711 189.961 57.6192 189.943V189.781H57.0392V189.925C56.4773 189.925 56.0967 189.961 55.8429 189.979L56.0786 190.088C56.2779 190.07 56.6586 190.034 57.2386 190.034C57.9454 190.034 58.2173 190.106 58.2173 190.178C58.2173 190.269 57.8729 190.305 57.0754 190.359C56.1148 190.431 55.6436 190.504 55.6436 190.648C55.6436 190.775 56.1511 190.883 57.1117 190.919V191.082H57.6917Z" fill="#FCD183"/>
<path d="M62.9479 191.895C68.5336 191.895 73.0617 191.127 73.0617 190.178C73.0617 189.23 68.5336 188.461 62.9479 188.461C57.3622 188.461 52.8341 189.23 52.8341 190.178C52.8341 191.127 57.3622 191.895 62.9479 191.895Z" fill="#E09D27"/>
<path d="M73.0617 187.141H52.8341V190.16H73.0617V187.141Z" fill="#E09D27"/>
<path d="M62.9479 188.859C68.5336 188.859 73.0617 188.09 73.0617 187.141C73.0617 186.193 68.5336 185.424 62.9479 185.424C57.3622 185.424 52.8341 186.193 52.8341 187.141C52.8341 188.09 57.3622 188.859 62.9479 188.859Z" fill="#FCB72B"/>
<path d="M55.2629 187.304C55.2629 188.027 58.7067 188.606 62.948 188.606C67.1892 188.606 70.633 188.027 70.633 187.304C70.633 187.286 70.633 187.25 70.6148 187.232C70.3792 187.919 67.0442 188.461 62.948 188.461C58.8517 188.461 55.5167 187.919 55.2811 187.232C55.2811 187.25 55.2629 187.268 55.2629 187.304Z" fill="#FFC285"/>
<path d="M62.9479 188.461C67.1822 188.461 70.6148 187.911 70.6148 187.232C70.6148 186.553 67.1822 186.003 62.9479 186.003C58.7136 186.003 55.281 186.553 55.281 187.232C55.281 187.911 58.7136 188.461 62.9479 188.461Z" fill="#C98A1B"/>
<path d="M55.2629 187.141C55.2629 187.178 55.2629 187.196 55.2811 187.232C55.5529 186.545 58.8879 186.021 62.9298 186.021C66.9898 186.021 70.3067 186.563 70.5786 187.232C70.5967 187.196 70.5967 187.178 70.5967 187.141C70.5967 186.418 67.153 185.84 62.9117 185.84C58.6704 185.84 55.2629 186.418 55.2629 187.141Z" fill="#A36F40"/>
<path d="M63.2559 187.792V187.63C63.7996 187.63 64.3434 187.593 64.6696 187.557L64.4521 187.449C64.1259 187.485 63.6365 187.521 63.1109 187.521C62.4584 187.521 62.0053 187.449 62.0053 187.358C62.0053 187.268 62.3678 187.214 63.0565 187.178C63.999 187.123 64.579 187.033 64.579 186.906C64.579 186.78 64.0353 186.671 63.1834 186.653V186.491H62.6034V186.635C62.0415 186.635 61.6609 186.672 61.4071 186.69L61.6428 186.798C61.8421 186.78 62.2228 186.744 62.8028 186.744C63.5096 186.744 63.7815 186.816 63.7815 186.888C63.7815 186.979 63.4371 187.015 62.6396 187.069C61.679 187.141 61.2078 187.214 61.2078 187.358C61.2078 187.485 61.7153 187.593 62.6759 187.63V187.792H63.2559Z" fill="#FCD183"/>
<path d="M63.9448 188.588C69.5305 188.588 74.0586 187.819 74.0586 186.87C74.0586 185.922 69.5305 185.153 63.9448 185.153C58.3591 185.153 53.8311 185.922 53.8311 186.87C53.8311 187.819 58.3591 188.588 63.9448 188.588Z" fill="#E09D27"/>
<path d="M74.0586 183.834H53.8311V186.852H74.0586V183.834Z" fill="#E09D27"/>
<path d="M63.9448 185.551C69.5305 185.551 74.0586 184.782 74.0586 183.834C74.0586 182.885 69.5305 182.116 63.9448 182.116C58.3591 182.116 53.8311 182.885 53.8311 183.834C53.8311 184.782 58.3591 185.551 63.9448 185.551Z" fill="#FCB72B"/>
<path d="M56.2599 183.996C56.2599 184.719 59.7036 185.298 63.9449 185.298C68.1862 185.298 71.6299 184.719 71.6299 183.996C71.6299 183.978 71.6299 183.942 71.6118 183.924C71.3762 184.611 68.0412 185.153 63.9449 185.153C59.8486 185.153 56.5136 184.611 56.278 183.924C56.2599 183.942 56.2599 183.96 56.2599 183.996Z" fill="#FFC285"/>
<path d="M56.278 183.924C56.5136 184.611 59.8486 185.153 63.9448 185.153C68.0411 185.153 71.3761 184.611 71.6117 183.924C71.3761 183.237 68.0411 182.695 63.9448 182.695C59.8486 182.677 56.4955 183.237 56.278 183.924Z" fill="#C98A1B"/>
<path d="M56.2599 183.834C56.2599 183.87 56.2599 183.906 56.278 183.924C56.5499 183.237 59.8849 182.713 63.9268 182.713C67.9868 182.713 71.3037 183.255 71.5756 183.924C71.5937 183.888 71.5937 183.87 71.5937 183.834C71.5937 183.111 68.1499 182.532 63.9087 182.532C59.7036 182.532 56.2599 183.111 56.2599 183.834Z" fill="#A36F40"/>
<path d="M64.2532 184.484V184.322C64.7969 184.322 65.3407 184.285 65.6669 184.249L65.4494 184.141C65.1232 184.177 64.6338 184.213 64.1082 184.213C63.4557 184.213 63.0025 184.141 63.0025 184.05C63.0025 183.96 63.365 183.906 64.0538 183.87C64.9963 183.815 65.5763 183.743 65.5763 183.599C65.5763 183.472 65.0325 183.364 64.1807 183.345V183.183H63.6188V183.327C63.0569 183.327 62.6763 183.364 62.4225 183.382L62.6582 183.49C62.8575 183.472 63.2382 183.436 63.8182 183.436C64.525 183.436 64.7969 183.508 64.7969 183.562C64.7969 183.653 64.4525 183.689 63.655 183.743C62.6944 183.815 62.2231 183.888 62.2231 184.032C62.2231 184.159 62.7306 184.267 63.6913 184.304V184.466H64.2532V184.484Z" fill="#FCD183"/>
<path d="M61.2262 184.611L63.945 198.475C63.945 198.475 69.2737 198.222 70.6331 197.734C72.0106 197.264 72.4637 196.957 72.4637 196.957V193.721C72.4637 193.721 72.4637 192.673 67.4793 192.275C67.4793 191.877 67.4975 191.679 67.4975 191.679L69.5818 191.534L61.2262 184.611Z" fill="#D1D3D4"/>
<path d="M69.8902 192.926L82.5959 191.209L70.5427 182.912L60.6283 184.557L69.8902 192.926Z" fill="#456E89"/>
<path d="M62.3502 185.442L69.4915 191.751C70.2165 191.661 71.1046 191.805 71.4852 192.076L79.3878 190.992C78.9528 190.721 79.1521 190.413 79.8228 190.323L70.9415 184.05C70.3796 184.141 69.6546 183.996 69.3284 183.725L62.9665 184.774C63.2202 185.045 62.9665 185.352 62.3502 185.442Z" fill="#699BB7"/>
<path d="M67.0266 187.268L67.8603 187.395C68.1503 187.178 68.6034 186.979 68.9841 186.888L69.4191 187.069C69.0384 187.178 68.6397 187.34 68.3678 187.539C68.0234 187.81 68.1322 188.027 68.6216 188.1C69.0928 188.172 69.5822 188.063 70.1803 187.828C70.9959 187.503 71.6847 187.322 72.4097 187.431C73.1166 187.539 73.4066 187.828 73.1347 188.19L74.0228 188.316L73.7509 188.551L72.8809 188.425C72.5909 188.642 72.2647 188.768 71.9747 188.859L71.5034 188.678C71.7028 188.624 72.0834 188.497 72.3734 188.262C72.7178 187.973 72.4459 187.81 72.1016 187.756C71.6484 187.684 71.2678 187.792 70.5428 188.063C69.6909 188.389 68.9841 188.515 68.2047 188.407C67.5159 188.298 67.1716 188.009 67.5341 187.611L66.6641 187.485L67.0266 187.268Z" fill="#456E89"/>
<path d="M63.9451 185.298C69.5308 185.298 74.0588 184.529 74.0588 183.58C74.0588 182.632 69.5308 181.863 63.9451 181.863C58.3594 181.863 53.8313 182.632 53.8313 183.58C53.8313 184.529 58.3594 185.298 63.9451 185.298Z" fill="#E09D27"/>
<path d="M74.0588 180.562H53.8313V183.58H74.0588V180.562Z" fill="#E09D27"/>
<path d="M63.9451 182.279C69.5308 182.279 74.0588 181.51 74.0588 180.562C74.0588 179.613 69.5308 178.845 63.9451 178.845C58.3594 178.845 53.8313 179.613 53.8313 180.562C53.8313 181.51 58.3594 182.279 63.9451 182.279Z" fill="#FCB72B"/>
<path d="M56.2601 180.706C56.2601 181.429 59.7039 182.008 63.9451 182.008C68.1864 182.008 71.6302 181.429 71.6302 180.706C71.6302 180.688 71.6302 180.652 71.612 180.634C71.3764 181.321 68.0414 181.863 63.9451 181.863C59.8489 181.863 56.5139 181.321 56.2783 180.634C56.2601 180.652 56.2601 180.688 56.2601 180.706Z" fill="#FFC285"/>
<path d="M63.9451 181.863C68.1794 181.863 71.612 181.313 71.612 180.634C71.612 179.955 68.1794 179.405 63.9451 179.405C59.7108 179.405 56.2782 179.955 56.2782 180.634C56.2782 181.313 59.7108 181.863 63.9451 181.863Z" fill="#C98A1B"/>
<path d="M56.2601 180.562C56.2601 180.598 56.2601 180.634 56.2783 180.652C56.5501 179.965 59.8851 179.441 63.927 179.441C67.987 179.441 71.3039 179.983 71.5758 180.652C71.5939 180.616 71.5939 180.598 71.5939 180.562C71.5939 179.839 68.1502 179.26 63.9089 179.26C59.7039 179.242 56.2601 179.839 56.2601 180.562Z" fill="#A36F40"/>
<path d="M64.2534 181.194V181.032C64.7972 181.032 65.3409 180.996 65.6672 180.959L65.4497 180.851C65.1234 180.887 64.634 180.923 64.1084 180.923C63.4559 180.923 63.0028 180.851 63.0028 180.761C63.0028 180.67 63.3653 180.616 64.054 180.58C64.9965 180.526 65.5765 180.453 65.5765 180.309C65.5765 180.182 65.0328 180.074 64.1809 180.056V179.893H63.619V180.038C63.0571 180.038 62.6765 180.074 62.4228 180.092L62.6584 180.2C62.8578 180.182 63.2384 180.146 63.8184 180.146C64.5253 180.146 64.7972 180.218 64.7972 180.273C64.7972 180.363 64.4528 180.399 63.6553 180.453C62.6946 180.526 62.2234 180.598 62.2234 180.743C62.2234 180.869 62.7309 180.978 63.6915 181.014V181.176H64.2534V181.194Z" fill="#FCD183"/>
<path d="M62.9482 181.99C68.5339 181.99 73.062 181.221 73.062 180.273C73.062 179.324 68.5339 178.555 62.9482 178.555C57.3626 178.555 52.8345 179.324 52.8345 180.273C52.8345 181.221 57.3626 181.99 62.9482 181.99Z" fill="#E09D27"/>
<path d="M73.062 177.254H52.8345V180.273H73.062V177.254Z" fill="#E09D27"/>
<path d="M62.9482 178.971C68.5339 178.971 73.062 178.202 73.062 177.254C73.062 176.306 68.5339 175.537 62.9482 175.537C57.3626 175.537 52.8345 176.306 52.8345 177.254C52.8345 178.202 57.3626 178.971 62.9482 178.971Z" fill="#FCB72B"/>
<path d="M55.2633 177.399C55.2633 178.122 58.7071 178.7 62.9483 178.7C67.1896 178.7 70.6333 178.122 70.6333 177.399C70.6333 177.38 70.6333 177.344 70.6152 177.326C70.3796 178.013 67.0446 178.555 62.9483 178.555C58.8521 178.555 55.5171 178.013 55.2814 177.326C55.2814 177.344 55.2633 177.38 55.2633 177.399Z" fill="#FFC285"/>
<path d="M62.9483 178.555C67.1826 178.555 70.6152 178.005 70.6152 177.326C70.6152 176.647 67.1826 176.097 62.9483 176.097C58.714 176.097 55.2814 176.647 55.2814 177.326C55.2814 178.005 58.714 178.555 62.9483 178.555Z" fill="#C98A1B"/>
<path d="M55.2633 177.254C55.2633 177.29 55.2633 177.308 55.2814 177.344C55.5533 176.657 58.8883 176.133 62.9302 176.133C66.9902 176.133 70.3071 176.675 70.579 177.344C70.5971 177.308 70.5971 177.29 70.5971 177.254C70.5971 176.531 67.1533 175.952 62.9121 175.952C58.6708 175.952 55.2633 176.531 55.2633 177.254Z" fill="#A36F40"/>
<path d="M63.2563 177.887V177.724C63.8 177.724 64.3438 177.688 64.67 177.652L64.4525 177.543C64.1263 177.579 63.6369 177.615 63.1113 177.615C62.4588 177.615 62.0056 177.543 62.0056 177.453C62.0056 177.362 62.3681 177.308 63.0569 177.272C63.9994 177.218 64.5794 177.127 64.5794 177.001C64.5794 176.874 64.0356 176.766 63.1838 176.748V176.603H62.6038V176.748C62.0419 176.748 61.6613 176.784 61.4075 176.802L61.6431 176.91C61.8425 176.892 62.2231 176.856 62.8031 176.856C63.51 176.856 63.7819 176.929 63.7819 177.001C63.7819 177.091 63.4375 177.127 62.64 177.182C61.6794 177.254 61.2081 177.326 61.2081 177.471C61.2081 177.597 61.7156 177.706 62.6763 177.742V177.905H63.2563V177.887Z" fill="#FCD183"/>
<path d="M64.4889 178.284L59.7039 188.371C59.7039 188.371 55.5714 189.455 54.0489 188.823C52.5264 188.19 52.8526 187.919 52.8526 187.919V187.16C52.8526 187.16 52.762 186.888 53.5957 186.509C53.7951 186.437 53.8132 186.382 53.8132 186.382L53.8495 183.201L64.4889 178.284Z" fill="#D1D3D4"/>
<path d="M57.7825 184.611L46.5269 183.074L57.2206 175.717L66.0113 177.182L57.7825 184.611Z" fill="#456E89"/>
<path d="M64.4888 177.977L58.145 183.581C57.4925 183.49 56.7131 183.617 56.3869 183.87L49.3725 182.912C49.7531 182.677 49.5719 182.406 48.9738 182.315L56.8581 176.766C57.3475 176.856 58 176.712 58.29 176.477L63.945 177.399C63.7094 177.615 63.945 177.887 64.4888 177.977Z" fill="#699BB7"/>
<path d="M54.1213 179.785L54.9007 179.911C54.5745 180.273 54.8826 180.526 55.4807 180.616C56.1695 180.724 56.8038 180.598 57.547 180.309C58.1813 180.056 58.5257 179.965 58.9245 180.038C59.2326 180.092 59.4682 180.236 59.1601 180.489C58.9063 180.706 58.562 180.815 58.3807 180.869L58.7976 181.032C59.0513 180.959 59.3413 180.833 59.5951 180.652L60.3563 180.761L60.592 180.562L59.7945 180.453C60.0301 180.128 59.7763 179.875 59.142 179.766C58.4895 179.676 57.8913 179.821 57.1663 180.11C56.6226 180.327 56.2057 180.417 55.7707 180.345C55.3357 180.273 55.2451 180.074 55.5532 179.839C55.7888 179.658 56.1695 179.513 56.4957 179.423L56.1151 179.26C55.7888 179.351 55.3901 179.531 55.1182 179.712L54.3751 179.604L54.1213 179.785Z" fill="#456E89"/>
<path d="M63.9451 178.7C69.5308 178.7 74.0588 177.931 74.0588 176.983C74.0588 176.034 69.5308 175.266 63.9451 175.266C58.3594 175.266 53.8313 176.034 53.8313 176.983C53.8313 177.931 58.3594 178.7 63.9451 178.7Z" fill="#E09D27"/>
<path d="M74.0588 173.964H53.8313V176.983H74.0588V173.964Z" fill="#E09D27"/>
<path d="M63.9451 175.681C69.5308 175.681 74.0588 174.912 74.0588 173.964C74.0588 173.016 69.5308 172.247 63.9451 172.247C58.3594 172.247 53.8313 173.016 53.8313 173.964C53.8313 174.912 58.3594 175.681 63.9451 175.681Z" fill="#FCB72B"/>
<path d="M56.2601 174.109C56.2601 174.832 59.7039 175.41 63.9451 175.41C68.1864 175.41 71.6302 174.832 71.6302 174.109C71.6302 174.091 71.6302 174.054 71.612 174.036C71.3764 174.723 68.0414 175.265 63.9451 175.265C59.8489 175.265 56.5139 174.723 56.2783 174.036C56.2601 174.072 56.2601 174.091 56.2601 174.109Z" fill="#FFC285"/>
<path d="M63.9451 175.266C68.1794 175.266 71.612 174.715 71.612 174.036C71.612 173.358 68.1794 172.807 63.9451 172.807C59.7108 172.807 56.2782 173.358 56.2782 174.036C56.2782 174.715 59.7108 175.266 63.9451 175.266Z" fill="#C98A1B"/>
<path d="M56.2601 173.964C56.2601 174 56.2601 174.036 56.2783 174.054C56.5501 173.368 59.8851 172.843 63.927 172.843C67.987 172.843 71.3039 173.386 71.5758 174.054C71.5939 174.018 71.5939 174 71.5939 173.964C71.5939 173.241 68.1502 172.663 63.9089 172.663C59.7039 172.663 56.2601 173.241 56.2601 173.964Z" fill="#A36F40"/>
<path d="M64.2534 174.615V174.452C64.7972 174.452 65.3409 174.416 65.6672 174.38L65.4497 174.271C65.1234 174.307 64.634 174.344 64.1084 174.344C63.4559 174.344 63.0028 174.271 63.0028 174.181C63.0028 174.091 63.3653 174.036 64.054 174C64.9965 173.946 65.5765 173.856 65.5765 173.729C65.5765 173.603 65.0328 173.494 64.1809 173.476V173.313H63.619V173.458C63.0571 173.458 62.6765 173.494 62.4228 173.512L62.6584 173.621C62.8578 173.603 63.2384 173.566 63.8184 173.566C64.5253 173.566 64.7972 173.639 64.7972 173.711C64.7972 173.801 64.4528 173.838 63.6553 173.892C62.6946 173.964 62.2234 174.036 62.2234 174.181C62.2234 174.307 62.7309 174.416 63.6915 174.452V174.615H64.2534Z" fill="#FCD183"/>
<path d="M66.1019 175.482L69.1469 184.954L77.5932 187.756L74.0226 185.298L74.0588 179.73L66.1019 175.482Z" fill="#D1D3D4"/>
<path d="M72.337 181.104L85.0245 179.369L72.9895 171.072L63.0751 172.735L72.337 181.104Z" fill="#456E89"/>
<path d="M64.797 173.621L71.9383 179.929C72.6633 179.839 73.5514 179.983 73.932 180.255L81.8345 179.17C81.3995 178.899 81.5989 178.592 82.2695 178.501L73.3883 172.229C72.8264 172.319 72.1014 172.175 71.7751 171.903L65.4132 172.952C65.667 173.223 65.4132 173.53 64.797 173.621Z" fill="#699BB7"/>
<path d="M76.1432 176.675L75.3095 176.549C75.0195 176.766 74.5663 176.965 74.1857 177.055L73.7507 176.874C74.1314 176.766 74.5301 176.603 74.802 176.404C75.1464 176.133 75.0376 175.916 74.5482 175.844C74.077 175.772 73.5876 175.88 72.9895 176.115C72.1739 176.44 71.4851 176.621 70.7601 176.513C70.0532 176.404 69.7632 176.115 70.0351 175.754L69.147 175.627L69.4188 175.392L70.2888 175.519C70.5788 175.302 70.9051 175.175 71.1951 175.085L71.6663 175.266C71.467 175.32 71.0864 175.446 70.7964 175.681C70.452 175.971 70.7239 176.133 71.0682 176.187C71.5214 176.26 71.902 176.151 72.627 175.88C73.4789 175.555 74.1857 175.428 74.9651 175.537C75.6539 175.645 75.9982 175.934 75.6357 176.332L76.5057 176.459L76.1432 176.675Z" fill="#456E89"/>
<path d="M66.8813 175.392C72.467 175.392 76.9951 174.623 76.9951 173.675C76.9951 172.726 72.467 171.958 66.8813 171.958C61.2957 171.958 56.7676 172.726 56.7676 173.675C56.7676 174.623 61.2957 175.392 66.8813 175.392Z" fill="#E09D27"/>
<path d="M76.9951 170.656H56.7676V173.675H76.9951V170.656Z" fill="#E09D27"/>
<path d="M66.8813 172.373C72.467 172.373 76.9951 171.605 76.9951 170.656C76.9951 169.708 72.467 168.939 66.8813 168.939C61.2957 168.939 56.7676 169.708 56.7676 170.656C56.7676 171.605 61.2957 172.373 66.8813 172.373Z" fill="#FCB72B"/>
<path d="M59.1964 170.801C59.1964 171.524 62.6402 172.102 66.8814 172.102C71.1227 172.102 74.5664 171.524 74.5664 170.801C74.5664 170.783 74.5664 170.747 74.5483 170.728C74.3127 171.415 70.9777 171.958 66.8814 171.958C62.7852 171.958 59.4502 171.415 59.2145 170.728C59.2145 170.765 59.1964 170.783 59.1964 170.801Z" fill="#FFC285"/>
<path d="M59.2145 170.728C59.4501 171.415 62.7851 171.958 66.8814 171.958C70.9776 171.958 74.3126 171.415 74.5483 170.728C74.3126 170.042 70.9776 169.499 66.8814 169.499C62.7851 169.499 59.4501 170.042 59.2145 170.728Z" fill="#DD9624"/>
<path d="M59.1964 170.656C59.1964 170.692 59.1964 170.728 59.2145 170.747C59.4864 170.06 62.8214 169.535 66.8633 169.535C70.9233 169.535 74.2402 170.078 74.512 170.747C74.5302 170.71 74.5302 170.692 74.5302 170.656C74.5302 169.933 71.0864 169.355 66.8452 169.355C62.6402 169.355 59.1964 169.933 59.1964 170.656Z" fill="#A36F40"/>
<path d="M66.5734 171.307V171.144C66.0297 171.144 65.4859 171.108 65.1597 171.072L65.3772 170.963C65.7034 171 66.1928 171.036 66.7184 171.036C67.3709 171.036 67.8241 170.963 67.8241 170.873C67.8241 170.783 67.4615 170.728 66.7728 170.692C65.8303 170.638 65.2503 170.566 65.2503 170.421C65.2503 170.295 65.794 170.186 66.6459 170.168V170.005H67.2259V170.15C67.7878 170.15 68.1684 170.186 68.4222 170.204L68.1866 170.313C67.9872 170.295 67.6065 170.258 67.0265 170.258C66.3197 170.258 66.0478 170.331 66.0478 170.385C66.0478 170.475 66.3922 170.511 67.1897 170.566C68.1503 170.638 68.6216 170.71 68.6216 170.855C68.6216 170.981 68.114 171.09 67.1534 171.126V171.289H66.5734V171.307Z" fill="#FCD183"/>
<path d="M45.0769 198.981C51.2031 198.981 56.1694 198.14 56.1694 197.101C56.1694 196.063 51.2031 195.221 45.0769 195.221C38.9507 195.221 33.9844 196.063 33.9844 197.101C33.9844 198.14 38.9507 198.981 45.0769 198.981Z" fill="#E09D27"/>
<path d="M56.188 193.793H34.0029V197.101H56.188V193.793Z" fill="#E09D27"/>
<path d="M45.0769 195.673C51.2031 195.673 56.1694 194.832 56.1694 193.793C56.1694 192.755 51.2031 191.914 45.0769 191.914C38.9507 191.914 33.9844 192.755 33.9844 193.793C33.9844 194.832 38.9507 195.673 45.0769 195.673Z" fill="#FCB72B"/>
<path d="M53.5048 193.956C53.5048 194.752 49.7348 195.384 45.0767 195.384C40.4186 195.384 36.6486 194.733 36.6486 193.956C36.6486 193.92 36.6486 193.902 36.6667 193.866C36.9204 194.625 40.5817 195.221 45.0767 195.221C49.5717 195.221 53.233 194.625 53.4867 193.866C53.5048 193.902 53.5048 193.92 53.5048 193.956Z" fill="#FFC285"/>
<path d="M45.077 195.221C49.7217 195.221 53.487 194.614 53.487 193.866C53.487 193.117 49.7217 192.51 45.077 192.51C40.4323 192.51 36.667 193.117 36.667 193.866C36.667 194.614 40.4323 195.221 45.077 195.221Z" fill="#C98A1B"/>
<path d="M53.5051 193.793C53.5051 193.83 53.5051 193.866 53.487 193.902C53.1788 193.161 49.5357 192.564 45.0951 192.564C40.6363 192.564 36.9932 193.161 36.7032 193.902C36.6851 193.866 36.6851 193.83 36.6851 193.793C36.6851 192.998 40.4551 192.365 45.1132 192.365C49.7713 192.365 53.5051 192.998 53.5051 193.793Z" fill="#A36F40"/>
<path d="M44.7323 194.498V194.318C44.1342 194.318 43.5361 194.282 43.1736 194.245L43.4092 194.137C43.7717 194.173 44.2973 194.209 44.8773 194.209C45.6023 194.209 46.0917 194.137 46.0917 194.047C46.0917 193.956 45.693 193.884 44.9498 193.848C43.9167 193.775 43.2823 193.703 43.2823 193.54C43.2823 193.396 43.8805 193.287 44.823 193.269V193.089H45.4573V193.251C46.0736 193.251 46.4905 193.287 46.7805 193.305L46.5267 193.414C46.3092 193.396 45.8923 193.36 45.2398 193.36C44.4605 193.36 44.1705 193.432 44.1705 193.504C44.1705 193.595 44.5511 193.631 45.4211 193.703C46.4723 193.775 46.998 193.866 46.998 194.028C46.998 194.173 46.4361 194.3 45.3848 194.318V194.498H44.7323Z" fill="#FCD183"/>
<path d="M45.0769 195.348C51.2031 195.348 56.1694 194.506 56.1694 193.468C56.1694 192.43 51.2031 191.588 45.0769 191.588C38.9507 191.588 33.9844 192.43 33.9844 193.468C33.9844 194.506 38.9507 195.348 45.0769 195.348Z" fill="#E09D27"/>
<path d="M56.188 190.16H34.0029V193.468H56.188V190.16Z" fill="#E09D27"/>
<path d="M45.0769 192.058C51.2031 192.058 56.1694 191.208 56.1694 190.16C56.1694 189.112 51.2031 188.262 45.0769 188.262C38.9507 188.262 33.9844 189.112 33.9844 190.16C33.9844 191.208 38.9507 192.058 45.0769 192.058Z" fill="#FCB72B"/>
<path d="M53.5048 190.323C53.5048 191.118 49.7348 191.751 45.0767 191.751C40.4186 191.751 36.6486 191.1 36.6486 190.323C36.6486 190.287 36.6486 190.269 36.6667 190.232C36.9204 190.992 40.5817 191.588 45.0767 191.588C49.5717 191.588 53.233 190.992 53.4867 190.232C53.5048 190.269 53.5048 190.287 53.5048 190.323Z" fill="#FFC285"/>
<path d="M45.077 191.588C49.7217 191.588 53.487 190.981 53.487 190.232C53.487 189.484 49.7217 188.877 45.077 188.877C40.4323 188.877 36.667 189.484 36.667 190.232C36.667 190.981 40.4323 191.588 45.077 191.588Z" fill="#C98A1B"/>
<path d="M53.5051 190.16C53.5051 190.196 53.5051 190.232 53.487 190.269C53.1788 189.528 49.5357 188.931 45.0951 188.931C40.6363 188.931 36.9932 189.528 36.7032 190.269C36.6851 190.232 36.6851 190.196 36.6851 190.16C36.6851 189.365 40.4551 188.732 45.1132 188.732C49.7713 188.732 53.5051 189.365 53.5051 190.16Z" fill="#A36F40"/>
<path d="M44.7323 190.865V190.684C44.1342 190.684 43.5361 190.648 43.1736 190.612L43.4092 190.504C43.7717 190.54 44.2973 190.576 44.8773 190.576C45.6023 190.576 46.0917 190.504 46.0917 190.413C46.0917 190.323 45.693 190.251 44.9498 190.214C43.9167 190.142 43.2823 190.07 43.2823 189.907C43.2823 189.763 43.8805 189.654 44.823 189.636V189.455H45.4573V189.618C46.0736 189.618 46.4905 189.654 46.7805 189.672L46.5267 189.781C46.3092 189.763 45.8923 189.726 45.2398 189.726C44.4605 189.726 44.1705 189.799 44.1705 189.871C44.1705 189.961 44.5511 189.998 45.4211 190.07C46.4723 190.142 46.998 190.233 46.998 190.395C46.998 190.54 46.4361 190.666 45.3848 190.684V190.865H44.7323Z" fill="#FCD183"/>
<path d="M45.0769 191.751C51.2031 191.751 56.1694 190.909 56.1694 189.871C56.1694 188.833 51.2031 187.991 45.0769 187.991C38.9507 187.991 33.9844 188.833 33.9844 189.871C33.9844 190.909 38.9507 191.751 45.0769 191.751Z" fill="#E09D27"/>
<path d="M56.188 186.563H34.0029V189.871H56.188V186.563Z" fill="#E09D27"/>
<path d="M45.0769 188.461C51.2031 188.461 56.1694 187.611 56.1694 186.563C56.1694 185.515 51.2031 184.665 45.0769 184.665C38.9507 184.665 33.9844 185.515 33.9844 186.563C33.9844 187.611 38.9507 188.461 45.0769 188.461Z" fill="#FCB72B"/>
<path d="M53.5048 186.726C53.5048 187.521 49.7348 188.154 45.0767 188.154C40.4186 188.154 36.6486 187.503 36.6486 186.726C36.6486 186.69 36.6486 186.672 36.6667 186.635C36.9204 187.395 40.5817 187.991 45.0767 187.991C49.5717 187.991 53.233 187.395 53.4867 186.635C53.5048 186.672 53.5048 186.69 53.5048 186.726Z" fill="#FFC285"/>
<path d="M45.077 187.991C49.7217 187.991 53.487 187.384 53.487 186.635C53.487 185.887 49.7217 185.28 45.077 185.28C40.4323 185.28 36.667 185.887 36.667 186.635C36.667 187.384 40.4323 187.991 45.077 187.991Z" fill="#C98A1B"/>
<path d="M53.5051 186.563C53.5051 186.599 53.5051 186.635 53.487 186.672C53.1788 185.93 49.5357 185.334 45.0951 185.334C40.6363 185.334 36.9932 185.93 36.7032 186.672C36.6851 186.635 36.6851 186.599 36.6851 186.563C36.6851 185.768 40.4551 185.135 45.1132 185.135C49.7713 185.135 53.5051 185.768 53.5051 186.563Z" fill="#A36F40"/>
<path d="M44.7323 187.268V187.087C44.1342 187.087 43.5361 187.051 43.1736 187.015L43.4092 186.907C43.7717 186.943 44.2973 186.979 44.8773 186.979C45.6023 186.979 46.0917 186.907 46.0917 186.816C46.0917 186.726 45.693 186.653 44.9498 186.617C43.9167 186.545 43.2823 186.473 43.2823 186.31C43.2823 186.165 43.8805 186.057 44.823 186.039V185.858H45.4573V186.021C46.0736 186.021 46.4905 186.057 46.7805 186.075L46.5267 186.183C46.3092 186.165 45.8923 186.129 45.2398 186.129C44.4605 186.129 44.1705 186.202 44.1705 186.274C44.1705 186.364 44.5511 186.4 45.4211 186.473C46.4723 186.545 46.998 186.635 46.998 186.798C46.998 186.943 46.4361 187.069 45.3848 187.087V187.268H44.7323Z" fill="#FCD183"/>
<path d="M45.0769 188.118C51.2031 188.118 56.1694 187.276 56.1694 186.238C56.1694 185.199 51.2031 184.358 45.0769 184.358C38.9507 184.358 33.9844 185.199 33.9844 186.238C33.9844 187.276 38.9507 188.118 45.0769 188.118Z" fill="#E09D27"/>
<path d="M56.188 182.93H34.0029V186.238H56.188V182.93Z" fill="#E09D27"/>
<path d="M45.0769 184.81C51.2031 184.81 56.1694 183.968 56.1694 182.93C56.1694 181.892 51.2031 181.05 45.0769 181.05C38.9507 181.05 33.9844 181.892 33.9844 182.93C33.9844 183.968 38.9507 184.81 45.0769 184.81Z" fill="#FCB72B"/>
<path d="M53.5048 183.092C53.5048 183.888 49.7348 184.52 45.0767 184.52C40.4186 184.52 36.6486 183.87 36.6486 183.092C36.6486 183.056 36.6486 183.038 36.6667 183.002C36.9204 183.761 40.5817 184.358 45.0767 184.358C49.5717 184.358 53.233 183.761 53.4867 183.002C53.5048 183.038 53.5048 183.056 53.5048 183.092Z" fill="#FFC285"/>
<path d="M45.077 184.358C49.7217 184.358 53.487 183.751 53.487 183.002C53.487 182.253 49.7217 181.646 45.077 181.646C40.4323 181.646 36.667 182.253 36.667 183.002C36.667 183.751 40.4323 184.358 45.077 184.358Z" fill="#DD9624"/>
<path d="M53.5051 182.93C53.5051 182.966 53.5051 183.002 53.487 183.038C53.1788 182.297 49.5357 181.701 45.0951 181.701C40.6363 181.701 36.9932 182.297 36.7032 183.038C36.6851 183.002 36.6851 182.966 36.6851 182.93C36.6851 182.134 40.4551 181.502 45.1132 181.502C49.7713 181.502 53.5051 182.134 53.5051 182.93Z" fill="#A36F40"/>
<path d="M44.7323 183.635V183.454C44.1342 183.454 43.5361 183.418 43.1736 183.382L43.4092 183.273C43.7717 183.309 44.2973 183.346 44.8773 183.346C45.6023 183.346 46.0917 183.273 46.0917 183.183C46.0917 183.092 45.693 183.02 44.9498 182.984C43.9167 182.912 43.2823 182.839 43.2823 182.677C43.2823 182.532 43.8805 182.424 44.823 182.406V182.225H45.4573V182.387C46.0736 182.387 46.4905 182.424 46.7805 182.442L46.5267 182.55C46.3092 182.532 45.8923 182.496 45.2398 182.496C44.4605 182.496 44.1705 182.568 44.1705 182.641C44.1705 182.731 44.5511 182.767 45.4211 182.839C46.4723 182.912 46.998 183.002 46.998 183.165C46.998 183.309 46.4361 183.436 45.3848 183.454V183.635H44.7323Z" fill="#FCD183"/>
<path d="M44.515 183.002C49.8304 183.002 54.1394 178.705 54.1394 173.404C54.1394 168.103 49.8304 163.805 44.515 163.805C39.1996 163.805 34.8906 168.103 34.8906 173.404C34.8906 178.705 39.1996 183.002 44.515 183.002Z" fill="#FCB72B"/>
<path d="M37.2105 174.253C37.2105 178.284 40.4911 181.538 44.5149 181.538C48.5568 181.538 51.8193 178.266 51.8193 174.253C51.8193 174.109 51.8193 173.964 51.8011 173.837C51.5836 177.67 48.3936 180.706 44.4968 180.706C40.5999 180.706 37.4099 177.67 37.1924 173.837C37.2105 173.964 37.2105 174.109 37.2105 174.253Z" fill="#FCD183"/>
<path d="M44.5151 180.706C48.5492 180.706 51.8195 177.631 51.8195 173.838C51.8195 170.044 48.5492 166.969 44.5151 166.969C40.481 166.969 37.2107 170.044 37.2107 173.838C37.2107 177.631 40.481 180.706 44.5151 180.706Z" fill="#DD9624"/>
<path d="M37.2107 173.404C37.2107 173.584 37.2107 173.765 37.2288 173.928C37.5007 170.15 40.6545 167.167 44.5151 167.167C48.3757 167.167 51.5295 170.15 51.8014 173.928C51.8195 173.765 51.8195 173.584 51.8195 173.404C51.8195 169.373 48.5389 166.119 44.5151 166.119C40.4913 166.119 37.2107 169.391 37.2107 173.404Z" fill="#A36F40"/>
<path d="M44.2249 177.019V176.133C43.7174 176.133 43.1918 175.97 42.8837 175.754L43.1012 175.157C43.4093 175.374 43.8805 175.537 44.3699 175.537C45.0043 175.537 45.4212 175.175 45.4212 174.669C45.4212 174.181 45.0768 173.892 44.4243 173.621C43.518 173.277 42.9743 172.861 42.9743 172.102C42.9743 171.379 43.4999 170.819 44.2974 170.692V169.807H44.8412V170.656C45.3668 170.674 45.7293 170.819 45.983 170.963L45.7655 171.542C45.5843 171.433 45.2218 171.235 44.6599 171.235C43.9893 171.235 43.7174 171.632 43.7174 171.994C43.7174 172.446 44.0437 172.681 44.8049 172.988C45.7112 173.349 46.1643 173.819 46.1643 174.597C46.1643 175.284 45.6749 175.934 44.7687 176.097V177.019H44.2249Z" fill="#FCD183"/>
</g>
<defs>
<clipPath id="clip0">
<rect width="296" height="202" fill="white"/>
</clipPath>
</defs>
</svg>
