<svg width="15" height="15" viewBox="0 0 15 15" fill="none" xmlns="http://www.w3.org/2000/svg">
<path d="M15 7.5C15 6.51508 14.806 5.53986 14.4291 4.62982C14.0522 3.71997 13.4997 2.89307 12.8033 2.19672C12.1069 1.50018 11.2801 0.947754 10.3701 0.570923C9.46019 0.193909 8.48492 0 7.5 0V1.5C8.28793 1.5 9.06814 1.65527 9.7961 1.95667C10.5241 2.25824 11.1855 2.70026 11.7426 3.25745C12.2998 3.81445 12.7418 4.47601 13.0433 5.20386C13.3448 5.93188 13.5 6.7121 13.5 7.5H15Z" fill="#DC5ED7"/>
<path d="M0 6V2.25C0 1.83582 0.335793 1.5 0.75 1.5H4.5C4.91421 1.5 5.25 1.83582 5.25 2.25V5.25C5.25 5.66418 4.91421 6 4.5 6H3C3 9.31366 5.68629 12 9 12V10.5C9 10.0858 9.33579 9.75 9.75 9.75H12.75C13.1642 9.75 13.5 10.0858 13.5 10.5V14.25C13.5 14.6642 13.1642 15 12.75 15H9C4.02944 15 0 10.9706 0 6Z" fill="#DC5ED7"/>
<path d="M11.6575 5.77789C11.8836 6.32391 12 6.90912 12 7.5H10.65C10.65 7.08636 10.5685 6.67676 10.4102 6.29462C10.2519 5.91229 10.0199 5.56512 9.72739 5.27271C9.43488 4.9801 9.08764 4.74811 8.70545 4.58972C8.32329 4.43152 7.91366 4.35004 7.5 4.35004V3C8.09095 3 8.67611 3.11646 9.22208 3.34259C9.76804 3.56873 10.2641 3.90015 10.682 4.31799C11.0999 4.73584 11.4313 5.23187 11.6575 5.77789Z" fill="#DC5ED7"/>
</svg>
