<svg width="25" height="21" viewBox="0 0 25 21" fill="none" xmlns="http://www.w3.org/2000/svg">
<path d="M25 10.268C25 8.736 23.7583 7.4907 22.2323 7.4907C21.4875 7.4907 20.8125 7.791 20.3156 8.274C18.4302 7.02345 15.8792 6.22755 13.0542 6.1257L14.599 1.22325L18.7823 2.2113L18.776 2.2722C18.776 3.52485 19.7917 4.54335 21.0406 4.54335C22.2885 4.54335 23.3031 3.52485 23.3031 2.2722C23.3031 1.01955 22.2875 0 21.0406 0C20.0823 0 19.2656 0.6027 18.9354 1.44795L14.426 0.3822C14.2292 0.3339 14.0292 0.44835 13.9677 0.64365L12.2448 6.111C9.28854 6.1467 6.61042 6.9489 4.64062 8.23725C4.14687 7.77735 3.49167 7.48965 2.76667 7.48965C1.24062 7.48965 0 8.736 0 10.268C0 11.2864 0.555208 12.1695 1.37187 12.6525C1.31771 12.9486 1.28229 13.2478 1.28229 13.5523C1.28229 17.6589 6.29062 21 12.4479 21C18.6052 21 23.6146 17.6589 23.6146 13.5523C23.6146 13.2646 23.5844 12.9811 23.5365 12.7018C24.4031 12.2325 25 11.3243 25 10.268ZM7.05833 12.1747C7.05833 11.2633 7.79792 10.521 8.70625 10.521C9.61458 10.521 10.3531 11.2633 10.3531 12.1747C10.3531 13.0861 9.61458 13.8274 8.70625 13.8274C7.79792 13.8274 7.05833 13.0861 7.05833 12.1747ZM16.4969 17.0772C15.6667 17.9098 14.3635 18.3151 12.5135 18.3151L12.5 18.312L12.4865 18.3151C10.6354 18.3151 9.33229 17.9098 8.50313 17.0772C8.35208 16.926 8.35208 16.6792 8.50313 16.528C8.65417 16.3758 8.9 16.3758 9.05104 16.528C9.72812 17.2074 10.8521 17.5371 12.4865 17.5371L12.5 17.5402L12.5135 17.5371C14.1479 17.5371 15.2719 17.2063 15.949 16.527C16.1 16.3747 16.3458 16.3758 16.4969 16.527C16.6479 16.6792 16.6479 16.9249 16.4969 17.0772ZM16.3 13.8274C15.3917 13.8274 14.6531 13.0861 14.6531 12.1747C14.6531 11.2633 15.3917 10.521 16.3 10.521C17.2083 10.521 17.9469 11.2633 17.9469 12.1747C17.9469 13.0861 17.2083 13.8274 16.3 13.8274Z" fill="#4B4848"/>
</svg>
