<svg width="16" height="16" viewBox="0 0 16 16" fill="none" xmlns="http://www.w3.org/2000/svg">
<path opacity="0.4" d="M15.2311 9.86558L13.8999 9.09683C14.0343 8.37183 14.0343 7.62808 13.8999 6.90308L15.2311 6.13433C15.3843 6.04683 15.453 5.86558 15.403 5.69683C15.0561 4.58433 14.4655 3.57808 13.6936 2.74058C13.5749 2.61246 13.3811 2.58121 13.2311 2.66871L11.8999 3.43746C11.3405 2.95621 10.6968 2.58433 9.99989 2.34058V0.806206C9.99989 0.631206 9.87802 0.478081 9.70614 0.440581C8.55927 0.184331 7.38427 0.196831 6.29365 0.440581C6.12177 0.478081 5.9999 0.631206 5.9999 0.806206V2.34371C5.30615 2.59058 4.6624 2.96246 4.0999 3.44058L2.77177 2.67183C2.61865 2.58433 2.42802 2.61246 2.30927 2.74371C1.5374 3.57808 0.946773 4.58433 0.599898 5.69996C0.546773 5.86871 0.618648 6.04996 0.771773 6.13746L2.10302 6.90621C1.96865 7.63121 1.96865 8.37496 2.10302 9.09996L0.771773 9.86871C0.618648 9.95621 0.549898 10.1375 0.599898 10.3062C0.946773 11.4187 1.5374 12.425 2.30927 13.2625C2.42802 13.3906 2.62177 13.4218 2.77177 13.3343L4.10302 12.5656C4.6624 13.0468 5.30615 13.4187 6.00302 13.6625V15.2C6.00302 15.375 6.1249 15.5281 6.29677 15.5656C7.44365 15.8218 8.61864 15.8093 9.70927 15.5656C9.88114 15.5281 10.003 15.375 10.003 15.2V13.6625C10.6968 13.4156 11.3405 13.0437 11.903 12.5656L13.2343 13.3343C13.3874 13.4218 13.578 13.3937 13.6968 13.2625C14.4686 12.4281 15.0593 11.4218 15.4061 10.3062C15.453 10.1343 15.3843 9.95308 15.2311 9.86558ZM7.99989 10.5C6.62177 10.5 5.4999 9.37808 5.4999 7.99996C5.4999 6.62183 6.62177 5.49996 7.99989 5.49996C9.37802 5.49996 10.4999 6.62183 10.4999 7.99996C10.4999 9.37808 9.37802 10.5 7.99989 10.5Z" fill="#8C8C8C"/>
</svg>
