<svg width="16" height="16" viewBox="0 0 16 16" fill="none" xmlns="http://www.w3.org/2000/svg">
<path d="M14.6048 1.40497C14.2546 1.04713 13.7364 0.914774 13.2532 1.05483L1.9856 4.31046C1.47579 4.45192 1.11444 4.85599 1.0171 5.3686C0.91766 5.89101 1.265 6.55488 1.71879 6.8322L5.24193 8.98348C5.60328 9.20477 6.06967 9.14944 6.36869 8.84972L10.403 4.81537C10.6061 4.60458 10.9423 4.60458 11.1453 4.81537C11.3484 5.01775 11.3484 5.34759 11.1453 5.55767L7.10399 9.59203C6.80427 9.89175 6.74825 10.3567 6.96884 10.7188L9.12152 14.2552C9.37362 14.6747 9.8078 14.9135 10.284 14.9135C10.34 14.9135 10.403 14.9135 10.4591 14.9058C11.0053 14.8365 11.4395 14.4646 11.6005 13.9394L14.9409 2.75653C15.088 2.28033 14.9549 1.76212 14.6048 1.40497Z" fill="#CDCDCD"/>
<path opacity="0.4" fill-rule="evenodd" clip-rule="evenodd" d="M1.70754 11.3697C1.57308 11.3697 1.43863 11.3186 1.33638 11.2157C1.1312 11.0105 1.1312 10.6785 1.33638 10.4734L2.29227 9.51677C2.49746 9.31228 2.83009 9.31228 3.03528 9.51677C3.23976 9.72195 3.23976 10.0546 3.03528 10.2598L2.07869 11.2157C1.97645 11.3186 1.84199 11.3697 1.70754 11.3697ZM4.3416 12.2047C4.20715 12.2047 4.07269 12.1536 3.97045 12.0507C3.76527 11.8455 3.76527 11.5136 3.97045 11.3084L4.92634 10.3518C5.13153 10.1473 5.46416 10.1473 5.66935 10.3518C5.87383 10.557 5.87383 10.8896 5.66935 11.0948L4.71275 12.0507C4.61051 12.1536 4.47606 12.2047 4.3416 12.2047ZM4.51919 14.7034C4.62143 14.8063 4.75589 14.8575 4.89034 14.8575C5.0248 14.8575 5.15925 14.8063 5.26149 14.7034L6.21808 13.7475C6.42257 13.5423 6.42257 13.2097 6.21808 13.0045C6.0129 12.8 5.68026 12.8 5.47508 13.0045L4.51919 13.9611C4.314 14.1663 4.314 14.4982 4.51919 14.7034Z" fill="#CDCDCD"/>
</svg>
