<svg width="538" height="369" viewBox="0 0 538 369" fill="none" xmlns="http://www.w3.org/2000/svg">
<path d="M404.038 337.199C392.825 330.741 381.606 324.278 370.383 317.81C360.43 312.093 350.419 306.46 340.479 300.729C329.087 294.182 317.737 287.563 306.359 281.016C294.982 274.468 283.322 267.864 271.817 261.302C259.55 254.262 247.312 247.095 235.046 240.04C224.43 233.929 213.771 227.888 203.168 221.735C190.893 214.666 178.636 207.574 166.398 200.458C158.352 195.764 150.301 191.071 142.246 186.377C141.357 186.267 140.517 185.911 139.821 185.349C137.297 183.772 134.506 182.617 132.236 180.646C130.741 179.168 128.499 178.801 127.103 177.196C126.705 176.676 126.501 176.034 126.525 175.38C126.525 163.974 126.37 152.554 126.61 141.149C127.012 139.412 127.775 137.779 128.852 136.358C129.928 134.936 131.292 133.757 132.856 132.897C150.489 122.637 168.141 112.395 185.812 102.172C186.827 101.581 187.8 100.961 188.815 100.384C189.478 100.018 190.155 99.511 190.958 100.088C192.136 102.94 193.08 105.884 193.778 108.889C195.611 115.127 197.472 121.351 199.249 127.603C199.527 128.26 199.633 128.977 199.559 129.687C195.146 135.235 196.33 141.205 198.417 147.133C200.578 152.693 203.736 157.813 207.736 162.242C213.583 168.969 220.144 175.041 227.306 180.35C227.926 180.829 229.251 181.111 228.547 182.463C227.616 182.764 226.631 182.864 225.658 182.755C224.685 182.646 223.747 182.33 222.907 181.829C221.889 181.031 220.69 180.498 219.415 180.277C218.14 180.056 216.831 180.153 215.604 180.562C209.857 182.112 204.329 184.378 199.15 187.306C197.245 188.404 195.523 189.791 194.046 191.418C193.494 191.967 193.062 192.624 192.777 193.347C192.044 195.333 192.777 196.473 194.807 196.755C196.227 196.836 197.651 196.717 199.037 196.403C203.189 195.761 207.288 194.82 211.303 193.587C216.52 191.46 221.821 192.094 227.123 193.08C227.703 193.161 228.26 193.363 228.758 193.671C229.114 193.956 229.362 194.353 229.463 194.798C229.914 197.163 231.507 197.909 233.693 198.205C240.897 199.163 248.088 200.247 255.363 200.669C256.014 200.625 256.658 200.826 257.168 201.233C258.578 203.246 258.437 205.71 259.015 207.963C259.113 208.386 259.142 208.836 259.268 209.259C259.464 211.643 259.898 214.002 260.566 216.299C260.749 216.834 260.932 217.524 261.595 217.552C262.257 217.581 262.525 216.919 262.751 216.398C264.135 212.265 265.025 207.982 265.402 203.64C265.378 203.284 265.446 202.928 265.599 202.605C265.752 202.282 265.985 202.004 266.276 201.796C267.329 201.471 268.439 201.375 269.533 201.514C277.802 201.775 286.078 201.252 294.248 199.951C297.243 199.451 300.178 198.639 303.004 197.529C310.335 194.572 313.183 190.798 313.79 182.153C314.227 176.056 311.788 170.677 308.94 165.467C307.671 163.143 306.12 160.989 304.95 158.609C304.893 158.326 304.925 158.032 305.041 157.768C305.157 157.503 305.351 157.281 305.598 157.131C308.095 155.21 310.485 153.155 312.76 150.977C313.011 150.772 313.314 150.64 313.635 150.597C314.919 150.778 316.129 151.309 317.131 152.132C320.501 154.033 323.856 155.99 327.212 157.933C328.058 158.279 328.736 158.941 329.101 159.778C329.623 162.045 329.017 164.284 328.819 166.509C328.1 174.957 327.409 183.406 326.69 191.855C326.042 199.43 325.393 206.992 324.872 214.581C324.773 215.99 325.577 216.539 326.563 217.102L335.305 222.073C335.998 222.418 336.643 222.854 337.222 223.368C337.457 223.678 337.622 224.034 337.708 224.413C337.793 224.792 337.796 225.185 337.716 225.565C337.053 232.155 336.658 238.773 336.052 245.377C335.934 246 336.029 246.645 336.323 247.207C336.618 247.769 337.093 248.216 337.674 248.475C343.464 251.723 349.244 255.008 355.015 258.331C362.065 262.373 369.115 266.315 376.164 270.371C376.889 270.921 377.777 271.214 378.688 271.201C382.988 270.779 387.246 269.934 391.518 269.258C396.876 268.413 402.247 267.695 407.845 266.667C405.194 264.471 402.6 262.527 400.062 260.514C397.524 258.5 394.535 256.289 391.828 254.065C390.765 253.01 389.418 252.286 387.951 251.981C387.584 251.981 387.19 251.755 387.274 251.234C388.066 250.675 389.012 250.375 389.981 250.375C404.771 248.066 419.589 245.616 434.309 243.335C434.417 243.337 434.522 243.302 434.607 243.235C434.692 243.169 434.751 243.074 434.774 242.969C434.647 242.349 434.041 242.025 433.618 241.561C426.216 233.915 418.264 226.818 410.82 219.214C409.198 217.567 407.351 216.144 405.73 214.483C404.109 212.821 402.135 213.455 400.231 213.582C398.991 213.666 397.679 214.229 396.622 213.033C395.836 208.383 395.553 203.662 395.776 198.951C396.368 197.797 397.186 198.332 397.891 198.74C399.977 199.895 402.121 201.05 404.123 202.289C423.523 213.554 442.923 224.748 462.366 235.886C463.311 236.435 464.269 236.97 465.186 237.59C465.736 237.97 466.511 238.238 466.427 239.153C465.892 239.885 465.165 240.456 464.326 240.8C455.584 245.912 446.603 250.657 438.045 256.05C427.612 262.64 422.085 272.426 421.013 284.677C420.858 286.409 421.154 288.155 421.14 289.901C421.14 307.812 421.14 325.728 421.14 343.648C421.14 344.718 421.436 345.873 420.59 346.803L413.682 342.987C412.229 342.731 410.873 342.084 409.762 341.114C407.943 339.846 405.533 339.157 404.038 337.199Z" fill="#F8BE59"/>
<path d="M420.703 346.774C420.703 326.892 420.901 307.023 420.703 287.155C420.576 277.383 424.242 269.399 430.178 262.063C433.942 257.402 439.117 254.839 444.094 251.91C451.566 247.517 459.25 243.462 466.554 238.759C468.718 237.016 471.085 235.541 473.603 234.365C482.387 229.296 491.142 224.171 499.983 219.214C500.565 218.942 501.049 218.497 501.37 217.94C501.69 217.384 501.831 216.742 501.773 216.102C501.773 206.935 502.14 197.797 501.646 188.616C501.486 184.174 500.172 179.85 497.834 176.068C495.495 172.286 492.213 169.177 488.308 167.044C467.259 154.793 446.11 142.726 425.003 130.574C422.372 129.062 419.73 127.56 417.08 126.068C415.394 125.107 413.479 124.62 411.539 124.66C410.107 124.604 408.698 125.027 407.533 125.861C406.369 126.694 405.516 127.892 405.11 129.264C404.898 129.856 404.898 130.574 404.151 130.855C403.277 130.616 403.277 129.856 403.122 129.166C402.4 125.187 400.817 121.413 398.484 118.108C396.151 114.803 393.124 112.046 389.615 110.03C375.243 101.75 360.867 93.4796 346.486 85.2187C337.758 80.2059 329.059 75.1226 320.275 70.2083C318.341 68.8989 316.082 68.1485 313.748 68.0398C312.348 67.9925 310.971 68.401 309.824 69.2036C308.677 70.0062 307.822 71.1594 307.389 72.4894C307.191 72.9541 307.163 73.6441 306.571 73.6863C305.979 73.7286 305.796 73.0527 305.683 72.588C304.448 67.6888 302.115 63.134 298.859 59.2674C298.71 59.05 298.605 58.8062 298.549 58.5492C298.196 51.213 296.744 43.9753 296.589 36.625C296.54 36.3389 296.549 36.046 296.614 35.7632C296.68 35.4804 296.8 35.2134 296.97 34.9775C300.087 36.3288 303.07 37.9694 305.88 39.8777C309.574 42.018 313.508 43.7923 316.61 46.9182C319.876 50.1969 322.37 54.1603 323.913 58.521C324.308 59.6475 324.759 59.9291 325.746 59.1969C330.413 55.4091 335.079 56.2822 339.845 59.0702C350.701 65.3926 361.6 71.6446 372.484 77.9388C383.858 84.51 395.236 91.0811 406.618 97.6523C408.719 98.748 410.732 100.005 412.639 101.412C416.876 104.888 420.007 109.522 421.648 114.747C422.184 116.296 422.776 116.155 423.932 115.563C425.347 114.56 426.906 113.777 428.556 113.24C431.87 112.522 434.69 113.831 437.439 115.409C444.77 119.623 452.097 123.848 459.419 128.081C466.582 132.221 473.73 136.403 480.892 140.529C488.055 144.655 495.358 148.837 502.549 152.977C506.383 155.188 510.374 157.201 513.334 160.623C517.79 165.833 520.821 171.592 520.793 178.661C520.793 187.884 520.793 197.121 520.793 206.344C520.725 206.807 520.81 207.279 521.034 207.69C521.257 208.102 521.608 208.429 522.033 208.625C526.587 211.23 531.071 213.99 535.569 216.708C536.06 217.07 536.531 217.46 536.979 217.876C535.347 219.241 533.54 220.382 531.607 221.27C506.031 236.008 480.46 250.746 454.894 265.484C449.656 268.629 445.372 273.136 442.501 278.523C439.04 284.607 437.328 291.526 437.552 298.519C437.735 311.093 437.453 323.681 437.665 336.27C437.777 342.128 437.989 347.999 437.975 353.857C438.152 354.75 437.981 355.677 437.495 356.448L422.367 347.816C421.747 347.492 421.225 347.112 420.703 346.774Z" fill="#F8CE85"/>
<path d="M437.425 356.448C437.551 344.338 436.79 332.243 436.987 320.133C437.1 312.135 436.987 304.137 436.987 296.195C436.987 287.268 440.54 279.678 445.856 272.694C449.747 267.582 455.218 264.78 460.561 261.697L484.107 248.108C491.231 243.997 498.356 239.89 505.481 235.787C513.334 231.253 521.159 226.705 529.04 222.227C531.555 220.566 534.211 219.129 536.978 217.933L537.105 232.619C537.484 233.223 537.643 233.939 537.556 234.647C537.556 242.842 538.078 251.023 537.979 259.218C537.852 271.483 537.979 283.747 537.979 296.012C538.071 296.994 537.857 297.98 537.368 298.837C536.879 299.693 536.137 300.379 535.244 300.8C510.674 314.871 486.099 328.99 461.52 343.155C454.696 347.098 447.872 351.041 441.048 354.983C439.981 355.578 438.851 356.05 437.678 356.392H437.551L437.425 356.448Z" fill="#EAB04B"/>
<path d="M127.146 140.388V177.253C123.254 175.563 119.885 172.958 116.134 171.015C116.079 170.977 116.027 170.934 115.979 170.888C114.189 169.79 111.622 169.086 110.805 167.48C109.987 165.875 110.509 163.087 110.509 160.834C110.509 143.092 110.509 125.364 110.509 107.622C110.509 98.7084 113.935 91.161 119.236 84.1908C123.015 79.2202 128.288 76.3759 133.504 73.3625L168.259 53.2548L189.238 41.1732L208.61 29.9084C208.836 30.1384 209.007 30.4157 209.112 30.7202C209.217 31.0246 209.253 31.3486 209.216 31.6685C209.343 37.5262 208.779 43.3558 208.667 49.1994C208.371 50.1569 207.468 50.4949 206.707 50.9455C190.436 60.3329 174.166 69.7202 157.896 79.1076C153.483 81.6563 148.985 84.0923 144.671 86.7958C134.999 92.8648 129.81 101.919 127.752 112.958C127.665 113.659 127.641 114.366 127.681 115.071C127.681 122.111 127.681 129.011 127.681 135.967C127.721 137.459 127.54 138.949 127.146 140.388Z" fill="#F8CE85"/>
<path d="M242.744 322.837C242.166 320.02 243.787 318.387 245.987 317.12C254.738 312.079 263.507 307.047 272.296 302.025C273.297 301.462 274.312 300.926 275.327 300.377C278.231 301.794 281.055 303.369 283.787 305.094C303.864 316.796 324.011 328.413 344.103 340.128C347.049 341.846 350.038 343.536 352.971 345.296C353.605 345.69 354.381 345.93 354.592 346.831C354.296 347.915 353.267 348.239 352.463 348.661C343.369 353.942 334.304 359.264 325.111 364.39C323.108 365.557 320.826 366.16 318.507 366.136C316.189 366.111 313.92 365.459 311.943 364.249C299.103 356.833 286.268 349.389 273.438 341.916C264.123 336.5 254.804 331.093 245.479 325.695C244.848 325.437 244.279 325.049 243.807 324.556C243.336 324.064 242.974 323.478 242.744 322.837Z" fill="#F4CEF2"/>
<path d="M354.367 346.788L327.325 330.975C318.287 325.695 309.278 320.386 300.24 315.148C292.669 310.741 285.07 306.404 277.485 302.025C276.681 301.574 275.75 301.278 275.271 300.377C278.161 298.561 281.094 296.801 284.139 295.252C284.92 295.216 285.688 295.456 286.311 295.928L323.673 317.627C336.278 324.977 348.939 332.243 361.529 339.621C362.437 339.977 363.214 340.601 363.757 341.409C363.771 341.505 363.764 341.601 363.737 341.694C363.71 341.786 363.664 341.871 363.602 341.945C360.864 343.932 357.93 345.635 354.846 347.028C354.733 347.098 354.55 346.943 354.367 346.788Z" fill="#1B195B"/>
<path d="M363.658 341.424C352.887 335.115 342.115 328.812 331.343 322.513C322.136 317.162 312.873 311.882 303.653 306.545C297.153 302.799 290.681 299.011 284.196 295.28C286.249 293.787 288.678 292.895 291.211 292.704C293.744 292.512 296.279 293.029 298.535 294.196C301.57 295.454 304.47 297.016 307.191 298.857C325.99 309.746 344.789 320.645 363.588 331.553C364.377 332.003 365.153 332.454 365.914 332.961C366.877 333.45 367.637 334.259 368.065 335.249C368.492 336.239 368.559 337.348 368.255 338.382C367.197 340.072 366.069 341.748 363.658 341.424Z" fill="#F4CEF2"/>
<path d="M367.944 338.326C368.353 335.636 367.042 334.102 364.772 332.792C350.743 324.724 336.785 316.542 322.785 308.389L298.971 294.548C298.813 294.436 298.666 294.309 298.534 294.168C302.129 293.9 304.949 295.815 307.84 297.477C317.239 302.884 326.587 308.314 335.883 313.768L363.066 329.638C366.013 331.356 369.03 332.975 371.934 334.763C372.729 335.217 373.391 335.87 373.855 336.658C374.319 337.446 374.568 338.341 374.578 339.255C374.588 340.169 374.358 341.07 373.912 341.868C373.465 342.666 372.818 343.333 372.033 343.803C367.493 346.62 362.826 349.225 358.202 351.886C351.067 356.012 343.947 360.166 336.771 364.207C333.824 365.868 331.131 368.164 327.649 368.699C324.606 369.371 321.423 368.91 318.696 367.403C318.766 367.291 318.865 367.15 318.964 367.136C324.688 366.77 328.904 363.052 333.57 360.433C343.44 354.871 353.239 349.168 363.108 343.536C365.265 342.254 367.394 341.043 367.944 338.326Z" fill="#E4E3F4"/>
<path d="M367.944 338.326C368.094 339.173 367.959 340.047 367.562 340.81C367.164 341.574 366.525 342.185 365.745 342.55C358.019 347.042 350.236 351.449 342.524 355.913C337.236 358.954 331.935 361.996 326.69 365.094C324.362 366.745 321.55 367.577 318.696 367.459C314.466 367.91 311.393 365.474 308.079 363.559L285.112 350.196L262.807 337.256C256.871 333.806 250.964 330.314 245.014 326.892C244.235 326.568 243.588 325.992 243.177 325.256C242.765 324.521 242.613 323.669 242.744 322.837C244.831 325.343 247.848 326.455 250.527 328.047C258.831 332.961 267.206 337.777 275.553 342.62C283.18 347.056 290.822 351.449 298.45 355.885C302.961 358.49 307.389 361.25 311.971 363.742C314.003 364.952 316.328 365.583 318.694 365.568C321.06 365.554 323.376 364.893 325.393 363.658C334.163 358.635 342.928 353.604 351.688 348.563C352.633 348.014 353.507 347.38 354.423 346.788C357.646 345.26 360.735 343.465 363.658 341.424C365.405 340.921 366.921 339.826 367.944 338.326Z" fill="#FF94F9"/>
<path d="M404.038 337.199L413.794 342.958C413.794 346.211 413.611 349.45 413.385 352.703C413.202 355.279 412.61 356.166 410.016 356.49C408.631 356.669 407.225 356.408 405.997 355.744C405.645 355.603 405.342 355.361 405.128 355.047C404.915 354.733 404.8 354.363 404.799 353.984C404.573 348.394 404.305 342.789 404.038 337.199Z" fill="#1B195B"/>
<path d="M132.235 180.185C135.697 181.869 139.041 183.784 142.246 185.916C141.569 186.31 141.879 186.958 141.893 187.479C141.954 190.545 141.818 193.612 141.484 196.66C141.231 198.786 139.384 198.969 137.974 199.082C134.689 199.321 132.771 198.462 132.856 194.66C133.011 189.845 132.475 184.958 132.235 180.185Z" fill="#1B195B"/>
<path d="M208.187 49.2594C207.891 42.6553 208.836 36.0654 208.554 29.4614C208.554 25.988 208.554 22.5053 208.554 19.0132C208.476 17.2096 209.004 15.4317 210.054 13.9622C211.104 12.4927 212.616 11.4157 214.349 10.9025C216.59 9.83235 218.663 10.7898 220.665 11.6206C223.474 12.9379 226.196 14.4336 228.814 16.0984C236.019 20.3227 243.252 24.3922 250.456 28.5742C251.119 28.9544 251.866 29.2079 252.163 30.0527C250.781 36.7173 251.204 43.6294 253.389 50.076C253.538 50.7043 253.544 51.3577 253.407 51.9887C253.271 52.6196 252.995 53.2121 252.6 53.723C251.345 55.7648 249.78 57.6235 248.61 59.6652C247.943 60.6967 247.496 61.8536 247.294 63.0645C247.093 64.2754 247.142 65.5147 247.439 66.7058C248.244 69.8932 249.266 73.0218 250.499 76.0697C251.014 77.3567 251.213 78.7484 251.078 80.1279C250.943 81.5074 250.478 82.8344 249.723 83.9973C246.205 89.2572 242.411 94.3287 238.359 99.1908C237.185 100.652 235.825 101.954 234.313 103.063C234.089 103.296 233.816 103.475 233.513 103.587C233.21 103.699 232.886 103.741 232.565 103.711C226.361 100.374 220.355 96.6703 214.236 93.2345L209.541 90.6155C209.091 90.4295 208.69 90.1421 208.369 89.7757C208.049 89.4093 207.818 88.9738 207.694 88.5033C207.539 87.1008 207.497 85.6882 207.567 84.279C207.567 73.69 207.567 63.0917 207.567 52.4839C207.349 51.3694 207.571 50.2137 208.187 49.2594Z" fill="#F8C56E"/>
<path d="M249.23 84.1242C250.042 82.8129 250.513 81.3192 250.599 79.7796C250.685 78.2399 250.384 76.7031 249.723 75.3095C248.793 73.31 248.384 71.0852 247.552 69.0575C246.752 67.181 246.486 65.1202 246.785 63.1025C247.083 61.0848 247.934 59.1888 249.244 57.6237C250.442 55.9903 251.556 54.3005 252.67 52.5967C252.901 52.2253 253.04 51.8037 253.075 51.3676C253.109 50.9314 253.038 50.4933 252.867 50.0903C251.267 45.2463 250.592 40.1448 250.879 35.0518C250.947 33.2772 251.309 31.5261 251.951 29.8699C251.528 27.5606 253.037 25.9413 254.207 24.3642C256.447 21.1961 259.494 18.6829 263.033 17.0843C263.951 16.6204 264.965 16.3792 265.994 16.3803C267.962 15.9396 269.969 15.6897 271.986 15.634C277.611 15.7173 283.063 17.5907 287.548 20.9817C292.034 24.3726 295.319 29.1043 296.927 34.4885C297.547 40.9799 297.829 47.4994 298.901 53.9485C299.054 55.4785 299.087 57.018 299 58.553C299.484 60.2662 299.513 62.0756 299.086 63.8037C298.658 65.5317 297.788 67.1191 296.56 68.4098C295.489 68.621 294.897 67.748 294.121 67.3115C287.706 61.679 284.407 54.3569 282.715 46.1899C283.189 45.1463 283.517 44.0421 283.688 42.909C283.747 42.3672 283.674 41.8191 283.475 41.3116C283.276 40.804 282.958 40.352 282.546 39.9942C282.269 39.7224 281.917 39.5396 281.535 39.4693C281.153 39.3991 280.759 39.4445 280.403 39.5999C279.712 39.9379 279.74 40.6138 279.783 41.2615C279.842 41.4795 279.845 41.7091 279.791 41.9284C279.737 42.1478 279.627 42.3496 279.472 42.5147C278.688 42.8275 277.837 42.9336 277 42.8226C276.162 42.7116 275.368 42.3874 274.693 41.8811C273.018 40.6403 270.968 40.0092 268.884 40.0928C267.525 40.0003 266.203 39.6161 265.007 38.9663C264.678 38.7541 264.3 38.6308 263.91 38.6086C263.519 38.5864 263.13 38.666 262.779 38.8396C261.99 39.4169 262.455 40.3181 262.68 40.994C263.706 43.9792 264.268 47.104 264.344 50.2593C264.516 52.2864 265.226 54.2309 266.403 55.8917C267.897 58.3418 269.335 58.8487 272.127 58.032C272.916 57.8067 273.692 57.342 274.566 57.7786C275.229 58.6516 274.862 59.5669 274.693 60.4821C274.594 63.3969 272.93 65.6217 271.422 67.9028C270.925 68.6894 270.509 69.5245 270.181 70.3952C270.041 70.8551 269.942 71.3262 269.885 71.8033C269.606 74.6904 269.516 77.5926 269.617 80.4913C269.535 85.7931 268.509 91.038 266.586 95.9805C265.978 97.407 265.176 98.7432 264.203 99.9513C263.289 101.235 261.917 102.12 260.37 102.424C258.822 102.728 257.217 102.428 255.885 101.585C249.371 97.8533 247.792 93.3614 248.44 86.5884C248.604 85.7385 248.869 84.9113 249.23 84.1242Z" fill="#594839"/>
<path d="M265.993 16.3801C261.917 17.7231 258.289 20.1585 255.504 23.4206C253.873 25.2714 252.661 27.452 251.951 29.8134C244.253 25.406 236.583 20.9283 228.828 16.6195C225.191 14.6059 221.779 11.9868 217.634 11.0715C216.554 10.9274 215.466 10.8521 214.377 10.8462C216.765 9.1669 219.256 7.63847 221.835 6.26988C224.443 4.62239 227.263 3.32694 229.801 1.60905C233.467 -0.869214 237.062 -0.207423 240.502 1.72168C249.06 6.50924 257.506 11.4799 265.993 16.3801Z" fill="#F8CE85"/>
<path d="M404.038 130.701C404.842 129.461 404.856 127.884 405.829 126.716C408.761 123.012 413.752 123.561 417.108 125.462C428.246 131.771 439.328 138.135 450.424 144.584C461.802 151.132 473.138 157.75 484.53 164.298C488.04 166.312 491.72 168.086 494.399 171.24C499.052 176.647 502.168 182.688 502.14 190.052C502.14 198.895 502.14 207.733 502.14 216.567C502.196 217.163 502.066 217.761 501.768 218.281C501.47 218.8 501.019 219.214 500.476 219.467C489.535 225.748 478.603 232.037 467.681 238.336C467.28 238.53 466.859 238.681 466.426 238.787C456.98 233.309 447.548 227.804 438.087 222.354C430.009 217.693 421.916 213.089 413.823 208.456L403.953 202.824C403.444 201.921 403.222 200.884 403.319 199.853C403.319 177.745 403.319 155.633 403.319 133.517C403.23 133.023 403.248 132.517 403.373 132.031C403.497 131.545 403.724 131.091 404.038 130.701Z" fill="#F8C56E"/>
<path d="M404.038 130.211V202.25C401.561 200.686 398.99 199.275 396.34 198.026C395.949 197.598 395.656 197.091 395.481 196.539C395.305 195.987 395.252 195.404 395.325 194.829C395.085 187.324 394.295 179.833 394.098 172.3C394.057 171.661 393.972 171.026 393.844 170.399C393.844 169.131 392.9 168.667 391.997 168.146C383.636 163.288 375.233 158.486 366.873 153.642L344.906 140.969C342.777 139.744 342.791 139.716 341.678 141.983C341.568 142.143 341.482 142.319 341.424 142.504C340.676 146.461 337.673 146.897 334.445 146.94C333.499 146.998 332.557 147.111 331.625 147.278C331.301 147.288 330.994 147.42 330.764 147.647C330.534 147.874 330.398 148.18 330.384 148.503C330.215 150.981 329.933 153.445 329.806 155.923C329.806 156.979 329.806 158.106 328.791 158.866C323.914 155.759 318.878 152.906 313.705 150.319C313.437 149.263 314.184 148.643 314.762 147.982C317.194 145.266 318.565 141.767 318.625 138.125C319.15 124.906 318.109 111.672 315.524 98.698C314.668 94.5278 313.388 90.456 311.703 86.546C310.462 83.7298 308.277 81.7303 306.303 79.5055C303.483 76.3654 300.579 73.2113 297.491 70.2683C296.913 69.7192 296.151 69.1982 296.292 68.1984C298.043 66.1103 299.002 63.4731 299 60.7496C299 59.9892 299 59.2288 299 58.4543C302.349 62.0198 304.727 66.3829 305.908 71.1273C306.063 71.6765 306.232 72.2256 306.416 72.9015C308.234 66.6777 313.465 65.7061 317.963 67.9027C325.012 71.2963 331.526 75.5065 338.294 79.3225C345.527 83.406 352.689 87.588 359.879 91.7279L381.282 104.049C384.229 105.739 387.161 107.485 390.136 109.146C395.874 112.385 399.526 117.327 402.149 123.227C402.936 125.51 403.567 127.843 404.038 130.211Z" fill="#F7C46D"/>
<path d="M296.236 68.297C297.759 69.8741 299.268 71.4512 300.819 73.0001C303.272 75.4643 305.302 78.3509 307.868 80.6461C313.198 85.5041 314.467 92.0658 315.961 98.4868C317.453 105.543 318.395 112.703 318.781 119.904C319.232 126.156 318.978 132.38 319.035 138.618C319.001 142.377 317.48 145.971 314.805 148.615C314.366 149.159 313.965 149.733 313.607 150.333C310.928 152.952 307.967 155.29 305.147 157.641C301.89 160.598 298.323 162.668 293.699 161.866C291.205 159.474 289.182 156.637 287.735 153.502C288.606 151.331 289.938 149.376 291.64 147.771C293.448 145.747 295.434 143.89 297.576 142.223C299.888 140.645 301.904 138.576 304.625 137.731C306.106 138.012 307.107 137.111 308.39 136.407C306.783 135.816 305.852 138.224 304.343 136.928C302.41 130.731 300.907 124.407 299.846 118.003C299.846 118.003 299.846 117.89 299.691 117.665C300.672 121.035 300.803 124.596 300.071 128.029C299.648 129.775 299.254 131.577 297.378 132.464C285.944 133.436 275.13 131.535 265.275 125.424C264.651 124.966 263.962 124.605 263.23 124.354C260.805 123.495 260.411 121.171 259.565 119.2C257.802 113.727 256.519 108.111 255.73 102.415C253.051 106.119 249.611 108.414 246.847 111.399C244.442 113.848 241.753 116.004 238.839 117.82C237.161 118.904 235.371 119.791 233.693 120.862C233.098 121.305 232.376 121.545 231.634 121.545C230.892 121.545 230.17 121.305 229.576 120.862C227.137 119.313 224.542 118.045 222.089 116.482C221.553 116.13 220.933 115.877 220.679 115.257C220.526 114.771 220.508 114.252 220.627 113.756C220.747 113.26 220.998 112.805 221.356 112.441C224.628 108.913 228.434 105.92 232.635 103.57C235.864 102.077 237.852 99.2472 239.939 96.5296C243.139 92.4742 246.142 88.2499 249.23 84.1101C249.23 85.7575 248.92 87.391 248.863 89.0525C248.722 91.3669 249.248 93.6734 250.38 95.6977C251.512 97.7221 253.203 99.3792 255.25 100.472C258.324 102.359 260.326 102.528 262.779 100.641C264.156 99.4795 265.214 97.987 265.853 96.3043C267.397 92.4804 268.38 88.4539 268.771 84.3494C269.152 80.9418 268.941 77.5624 269.053 74.1688C269.035 73.2084 269.197 72.2529 269.533 71.3526C269.724 71.3242 269.919 71.3501 270.096 71.4273C270.273 71.5045 270.425 71.6299 270.534 71.7891C275.962 77.506 282.476 77.1117 288.482 74.2251C290.693 73.1038 292.738 71.6822 294.559 70.0008C294.322 69.9651 294.08 69.9904 293.855 70.0742C293.631 70.1579 293.431 70.2975 293.276 70.4796C291.131 72.1404 288.786 73.5264 286.297 74.6053C280.657 76.7457 275.652 76.0134 271.295 71.7891C270.737 71.3674 270.218 70.8961 269.744 70.381C269.974 69.4863 270.392 68.651 270.971 67.9309C271.535 68.0436 271.789 68.5082 272.071 68.9307C272.927 70.1456 274.063 71.1377 275.383 71.8237C276.703 72.5097 278.168 72.8697 279.656 72.8734C284.633 73.2817 288.679 71.2681 292.345 68.1844C292.909 67.7056 293.346 66.9593 294.277 67.1283C295.207 67.2973 295.517 67.9731 296.236 68.297Z" fill="#DC5ED7"/>
<path d="M208.188 49.7487C208.188 63.0412 208.188 76.3383 208.188 89.6402C208.343 90.2316 207.877 90.4288 207.511 90.6541C202.647 93.4703 197.811 96.3991 192.862 99.1027C192.689 99.1784 192.509 99.2396 192.326 99.2858C192.007 99.3349 191.697 99.4347 191.41 99.5815C191.188 99.7881 190.936 99.9592 190.662 100.088C187.991 101.347 185.41 102.786 182.936 104.397C175.012 108.917 167.159 113.536 159.264 118.112L132.757 133.489C130.182 135.103 128.203 137.51 127.118 140.346C127.118 131.447 126.892 122.534 127.188 113.592C127.371 108.058 129.782 103.059 132.532 98.2719C136.564 91.2314 142.852 86.8522 149.775 83.0503C157.149 78.9809 164.367 74.6017 171.671 70.4619C179.519 65.9465 187.373 61.4265 195.23 56.9018C198.99 54.7615 202.717 52.6071 206.411 50.4386C206.94 50.0706 207.549 49.8341 208.188 49.7487Z" fill="#EAB04B"/>
<path d="M328.735 159.37C329.194 156.504 329.472 153.611 329.566 150.71C329.566 149.949 329.468 149.161 330.032 148.527C331.033 148.246 331.766 148.865 332.527 149.302C346.443 157.455 360.401 165.537 374.303 173.704C376.079 174.76 377.884 175.76 379.646 176.844C380.309 177.239 381.056 177.633 381.197 178.478C382.001 183.505 382.086 188.588 382.466 193.643C382.946 200.12 383.495 206.583 383.876 213.061C383.946 213.57 383.946 214.086 383.876 214.596C383.284 215.919 382.466 215.074 381.846 214.708C376.968 211.892 372.117 209.076 367.267 206.26C361.459 202.908 355.621 199.599 349.855 196.192C348.727 195.53 348.093 195.685 347.613 196.853C347.388 197.388 347.063 197.881 346.838 198.402C346.665 198.929 346.318 199.381 345.855 199.685C345.391 199.989 344.838 200.128 344.286 200.078C343.101 200.078 341.988 200.458 340.832 200.486C340.211 200.486 339.859 200.768 339.859 201.416C339.365 208.062 338.688 214.694 338.237 221.354C338.254 221.773 338.184 222.191 338.031 222.581C337.879 222.971 337.646 223.326 337.349 223.621C333.119 221.481 329.115 219.059 325.055 216.68C324.575 216.398 324.11 216.13 324.195 215.539C324.73 212.131 324.674 208.667 325.125 205.26C325.379 203.303 325.407 201.331 325.633 199.374C326.281 193.854 326.408 188.292 326.916 182.758C327.508 176.535 328.034 170.306 328.495 164.073C328.699 162.514 328.779 160.941 328.735 159.37Z" fill="#CDC9F8"/>
<path d="M293.557 161.598C298.111 162.274 301.523 159.655 305.161 157.641C308.728 163.048 312.126 168.526 313.747 174.919C314.516 177.686 314.724 180.578 314.359 183.427C313.993 186.275 313.061 189.022 311.618 191.506C309.87 194.52 306.712 196.181 303.525 197.42C298.681 199.143 293.643 200.264 288.524 200.757C281.136 201.687 273.748 201.335 266.36 201.532C265.327 202.029 264.144 202.119 263.047 201.785C261.848 201.588 260.65 201.785 259.452 201.644C258.615 201.765 257.765 201.552 257.083 201.053C255.306 200.208 253.333 200.56 251.443 200.433C244.859 199.927 238.359 198.758 231.803 197.997C230.069 197.8 229.604 196.477 229.11 195.181C228.899 194.59 228.786 193.956 228.631 193.351C227.862 191.572 227.53 189.636 227.662 187.704C227.795 185.771 228.388 183.898 229.392 182.241C231.006 181.174 232.916 180.647 234.849 180.734C240.488 180.636 246.255 180.213 251.965 180.354C253 180.436 254.031 180.158 254.884 179.565C255.604 179.278 256.381 179.162 257.153 179.227C263.836 179.396 270.519 179.002 277.202 178.847C279.219 178.847 279.275 178.706 278.274 176.96C277.394 175.699 276.688 174.326 276.173 172.877C276.144 172.492 276.214 172.106 276.377 171.756C276.54 171.406 276.79 171.103 277.104 170.877C278.669 169.263 280.459 167.883 282.419 166.78C285.535 165.146 288.721 163.612 291.88 162.035C292.379 161.717 292.966 161.564 293.557 161.598Z" fill="#6855C9"/>
<path d="M190.676 99.6134C190.774 99.3177 190.676 98.9234 191.099 98.7967C194.201 99.8105 196.738 101.81 199.558 103.387C209.428 108.921 219.086 114.652 228.884 120.284C235.483 124.058 242.067 127.874 248.694 131.62C249.235 131.908 249.709 132.308 250.084 132.794C250.458 133.279 250.724 133.839 250.865 134.436C254.136 146.63 257.689 158.754 261.016 170.948C261.164 171.373 261.236 171.821 261.228 172.272C260.833 173.426 259.818 174.004 259 174.848C258.094 174.868 257.213 174.547 256.533 173.947C251.344 170.948 246.184 167.892 240.925 165.034C228.983 157.993 216.957 151.136 204.902 144.236C203.995 143.853 203.211 143.227 202.639 142.427C202.066 141.626 201.727 140.683 201.659 139.702C201.196 136.904 200.469 134.155 199.488 131.493C199.186 130.848 199.083 130.127 199.192 129.423C198.758 127.087 198.141 124.79 197.345 122.551L190.676 99.6134Z" fill="#1B195B"/>
<path d="M337.321 223.678C337.955 217.257 338.533 210.85 338.928 204.415C338.999 203.218 339.337 202.035 339.295 200.81C340.169 200.571 340.705 201.19 341.395 201.556C351.942 207.766 362.544 213.863 373.09 220.059C373.812 220.361 374.389 220.932 374.698 221.65C375.241 224.042 375.478 226.493 375.403 228.944C375.854 235.243 376.3 241.537 376.742 247.827C377.193 254.065 377.517 260.303 378.152 266.512C378.236 267.385 378.222 268.258 378.222 269.216C379.125 267.808 379.28 266.076 380.563 264.992C382.707 264.537 384.944 264.867 386.865 265.921C387.415 266.724 386.724 267.104 386.231 267.427C383.91 269.094 381.42 270.51 378.8 271.652C376.982 271.919 375.811 270.568 374.458 269.807C364.673 264.302 354.959 258.683 345.202 253.121C342.307 251.46 339.398 249.822 336.475 248.207C335.798 247.841 335.319 247.447 335.403 246.588C335.911 241.307 336.447 236.027 336.912 230.746C337.123 228.409 337.194 226.043 337.321 223.678Z" fill="#FBADCC"/>
<path d="M199.277 129.423C200.826 133.186 201.882 137.133 202.421 141.166C202.42 141.481 202.507 141.79 202.671 142.058C202.835 142.326 203.071 142.544 203.351 142.687C211.712 147.475 220.073 152.262 228.391 157.12C232.621 159.641 237.133 161.908 241.236 164.738C242.357 165.5 243.335 166.454 244.126 167.554C247.185 171.089 250.597 174.285 253.826 177.665C254.305 178.171 255.828 178.805 254.235 179.833C250.442 180.044 246.65 180.284 242.871 180.34C239.318 180.34 235.822 180.622 232.269 180.776C231.365 180.85 230.507 181.205 229.815 181.79C229.669 181.889 229.493 181.936 229.317 181.923C229.14 181.91 228.973 181.839 228.842 181.72C225.557 178.904 221.948 176.341 218.677 173.412C214.938 170.093 211.398 166.557 208.075 162.823C204.507 158.856 201.513 154.41 199.178 149.615C197.011 145.482 196.008 140.839 196.274 136.182C196.457 133.633 196.936 131.098 199.277 129.423Z" fill="#6855C9"/>
<path d="M397.115 213.202C399.315 213.385 401.458 212.596 403.657 212.793C404.427 212.769 405.177 213.036 405.758 213.539C408.211 215.905 410.735 218.2 413.174 220.58C420.421 227.649 427.645 234.736 434.845 241.842C435.254 242.251 436.156 242.589 435.832 243.25C435.507 243.912 434.69 243.659 434.055 243.757C428.105 244.673 422.17 245.63 416.22 246.574C410.27 247.517 403.968 248.559 397.891 249.531C394.408 250.08 390.926 250.573 387.443 251.094C387.443 251.009 387.373 250.925 387.345 250.826C387.641 249.869 388.529 249.531 389.276 249.08C391.955 247.475 394.62 245.813 397.256 244.124C397.834 243.757 398.568 243.49 398.384 242.561C397.999 240.016 397.811 237.446 397.82 234.872C397.313 228.282 397.087 221.664 396.58 215.074C396.509 214.742 396.522 214.398 396.615 214.072C396.708 213.745 396.88 213.447 397.115 213.202Z" fill="#EAB04B"/>
<path d="M397.115 213.201C397.454 218.834 397.609 224.466 398.173 230.014C398.412 232.436 398.173 234.872 398.553 237.308C398.835 239.308 398.553 241.392 398.934 243.405C395.746 243.668 392.555 242.94 389.798 241.321C388.853 238.589 389.022 235.689 388.754 232.873C387.768 222.157 386.851 211.427 385.864 200.711C385.145 192.812 384.525 184.912 383.707 177.013C383.608 176.126 383.707 175.211 383.58 174.324C383.501 173.865 383.604 173.394 383.868 173.01C384.131 172.626 384.533 172.36 384.99 172.268C387.803 171.365 390.665 170.622 393.562 170.043C393.82 170.003 394.084 170.053 394.309 170.184C395.254 173 394.732 176.027 395.057 178.942C395.635 184.42 395.649 189.939 395.931 195.431C395.931 196.445 396.227 197.459 396.368 198.458C396.227 203.415 396.833 208.301 397.115 213.201Z" fill="#C0BAF8"/>
<path d="M378.8 271.68C381.296 269.554 384.44 268.456 386.921 266.259C386.42 265.432 386.134 264.493 386.09 263.527C386.09 259.5 385.385 255.487 385.61 251.46C385.626 251.343 385.671 251.232 385.743 251.138C385.815 251.044 385.91 250.97 386.019 250.925C386.235 250.822 386.478 250.787 386.715 250.825C386.951 250.862 387.171 250.971 387.344 251.136C391.391 251.812 393.802 255.05 396.847 257.275C400.922 260.26 404.841 263.471 409.057 266.752C405.907 267.546 402.709 268.139 399.484 268.526C392.857 269.653 386.202 270.624 379.562 271.652C379.309 271.682 379.054 271.691 378.8 271.68Z" fill="#EAB04B"/>
<path d="M228.772 181.692H229.463C229.523 181.737 229.574 181.794 229.611 181.86C229.649 181.925 229.673 181.997 229.682 182.072C229.692 182.147 229.686 182.223 229.665 182.295C229.644 182.368 229.609 182.436 229.562 182.494C228.302 185.498 227.987 188.813 228.659 191.999C228.714 192.467 228.714 192.939 228.659 193.407C225.684 193.013 222.709 192.605 219.72 192.238C216.731 191.872 214.081 193.027 211.261 193.759C209.95 193.407 208.78 194.196 207.497 194.252C206.27 194.318 205.043 194.161 203.873 193.787C201.786 193.097 201.406 191.633 202.872 189.957C203.608 189.139 204.475 188.449 205.438 187.916C210.401 185.136 215.648 182.893 221.088 181.227C221.696 181.004 222.348 180.927 222.991 181.002C224.822 181.741 226.818 181.98 228.772 181.692Z" fill="#F9C89F"/>
<path d="M222.991 180.945C219.537 182.241 216.055 183.424 212.671 184.86C209.447 185.999 206.432 187.659 203.746 189.774C203.069 190.394 202.195 190.971 202.407 192.041C202.618 193.112 203.605 193.14 204.479 193.365C206.191 193.872 208.013 193.872 209.724 193.365C210.161 193.224 210.866 192.971 211.261 193.661C206.205 195.198 201.01 196.24 195.752 196.773C194.342 196.857 192.932 196.899 192.199 195.28C191.966 194.52 191.952 193.71 192.159 192.943C192.366 192.176 192.786 191.483 193.369 190.943C195.932 188.104 199.09 185.863 202.618 184.381C207.182 182.161 211.983 180.465 216.929 179.326C217.994 179.058 219.11 179.065 220.171 179.349C221.232 179.632 222.203 180.182 222.991 180.945Z" fill="#1B195B"/>
<path d="M259.381 201.613C261.736 201.289 264.034 201.993 266.36 202.021C265.683 203.697 265.951 205.499 265.613 207.245C264.95 210.624 264.626 214.088 262.976 217.214C262.666 217.806 262.37 218.524 261.736 218.524C261.101 218.524 260.622 217.749 260.326 217.116C259.458 214.608 258.982 211.982 258.916 209.329C258.775 206.724 258.253 204.119 259.381 201.613Z" fill="#1B195B"/>
<path d="M259.381 201.613C259.621 204.204 258.874 206.738 258.93 209.315C258.155 206.766 258.141 204.035 257.083 201.542L259.381 201.613Z" fill="#F9C89F"/>
<path d="M320.289 339.481C320.148 341.001 319.162 340.382 318.358 340.255C318.019 340.579 317.709 340.438 317.385 340.255C316.88 339.662 316.18 339.268 315.411 339.143C314.415 338.783 313.492 338.243 312.69 337.551C312.233 336.957 311.569 336.555 310.829 336.425C310.494 336.344 310.187 336.174 309.941 335.932C309.457 335.353 308.772 334.976 308.023 334.876C307.027 334.522 306.104 333.988 305.302 333.299C304.828 332.699 304.142 332.301 303.385 332.187C302.372 331.799 301.443 331.221 300.649 330.483C300.174 329.869 299.474 329.469 298.704 329.37C296.793 328.531 294.982 327.483 293.304 326.244C292.833 325.63 292.139 325.225 291.372 325.118C290.37 324.754 289.443 324.21 288.637 323.513C288.165 322.902 287.471 322.503 286.705 322.4C285.706 322.03 284.781 321.486 283.97 320.795C283.493 320.184 282.794 319.784 282.025 319.683C280.116 318.845 278.306 317.801 276.625 316.571C276.155 315.952 275.462 315.542 274.693 315.43C273.688 315.063 272.757 314.519 271.944 313.825C271.46 313.204 270.751 312.8 269.97 312.698C269.251 312.332 268.278 312.248 268.292 311.107C267.869 310.361 267.925 309.868 268.941 310.009C269.375 310.089 269.804 310.197 270.224 310.333C272.296 310.811 273.875 312.206 275.694 313.149C276.314 313.622 276.986 314.024 277.696 314.346C278.626 314.804 279.526 315.321 280.389 315.895C281.003 316.354 281.665 316.746 282.363 317.063C283.282 317.52 284.172 318.033 285.028 318.598C285.621 319.051 286.264 319.434 286.945 319.739C287.241 319.894 287.537 320.049 287.819 320.218C288.422 320.664 289.075 321.037 289.765 321.33C290.681 321.797 291.571 322.314 292.43 322.879C293.036 323.338 293.694 323.725 294.389 324.034C295.316 324.497 296.216 325.014 297.082 325.583C297.703 326.055 298.38 326.448 299.099 326.751C300.875 327.765 302.68 328.723 304.4 329.807C305.015 330.284 305.687 330.681 306.402 330.99C307.327 331.461 308.226 331.983 309.095 332.553C309.704 333.015 310.367 333.403 311.069 333.707C311.98 334.169 312.865 334.682 313.719 335.242C314.313 335.698 314.956 336.086 315.637 336.397C315.947 336.552 316.243 336.707 316.525 336.876C317.135 337.321 317.792 337.699 318.485 338.002C319.119 338.495 319.993 338.636 320.289 339.481Z" fill="#FEFEFE"/>
<path d="M285.013 318.95C283.969 318.63 283.007 318.087 282.194 317.359C281.616 316.908 280.882 316.697 280.29 316.233C279.275 315.901 278.339 315.364 277.541 314.655C276.949 314.191 276.23 313.98 275.637 313.529C273.701 312.693 271.865 311.64 270.167 310.389C270.167 309.938 269.251 309.713 269.8 309.136C270.35 308.558 271.069 309.333 271.718 309.234C272.367 309.136 273.128 309.84 273.776 310.192C274.378 310.642 275.031 311.02 275.722 311.318C276.635 311.777 277.52 312.29 278.373 312.853C278.967 313.307 279.611 313.694 280.29 314.008C280.595 314.151 280.891 314.311 281.178 314.487C281.783 314.922 282.43 315.295 283.11 315.599C284.026 316.061 284.916 316.573 285.775 317.134C286.384 317.596 287.047 317.984 287.749 318.288C288.672 318.763 289.571 319.285 290.442 319.851C291.062 320.316 291.734 320.708 292.444 321.02C294.22 322.02 296.025 322.977 297.759 324.062C298.374 324.535 299.041 324.936 299.747 325.258C300.674 325.722 301.573 326.239 302.44 326.807C303.052 327.269 303.714 327.661 304.414 327.976C305.33 328.438 306.219 328.951 307.078 329.511C307.671 329.968 308.315 330.355 308.996 330.666C309.292 330.806 309.588 330.961 309.87 331.13C310.476 331.576 311.128 331.953 311.816 332.257C312.729 332.716 313.614 333.228 314.466 333.792C315.077 334.252 315.74 334.639 316.44 334.946C317.356 335.408 318.246 335.921 319.105 336.481C319.702 336.943 320.35 337.335 321.037 337.65C321.353 337.786 321.619 338.018 321.798 338.312C322.207 339.945 320.896 339.283 320.233 339.48C319.584 339.072 318.823 338.931 318.259 338.283C317.695 337.636 316.948 337.608 316.37 337.157C316.207 337.173 316.043 337.142 315.898 337.067C315.753 336.992 315.633 336.876 315.552 336.735C314.96 336.27 314.227 336.059 313.649 335.608C312.602 335.293 311.639 334.749 310.829 334.017C310.237 333.566 309.504 333.355 308.925 332.89C307.885 332.57 306.923 332.032 306.106 331.313C305.528 330.849 304.794 330.637 304.216 330.187C302.281 329.349 300.445 328.295 298.746 327.047C298.154 326.596 297.435 326.385 296.843 325.92C295.824 325.589 294.887 325.047 294.093 324.329C293.501 323.879 292.782 323.667 292.19 323.217C291.171 322.887 290.234 322.344 289.441 321.626C288.848 321.175 288.115 320.964 287.537 320.499C287.375 320.515 287.211 320.484 287.066 320.409C286.921 320.334 286.8 320.218 286.719 320.077C286.325 319.626 285.591 319.415 285.013 318.95Z" fill="#FEFEFE"/>
<path d="M314.48 334.059C313.459 333.735 312.521 333.192 311.731 332.468C311.139 332.017 310.406 331.806 309.827 331.342C309.665 331.358 309.501 331.326 309.356 331.251C309.211 331.176 309.091 331.061 309.01 330.919C308.432 330.469 307.699 330.257 307.106 329.793C306.066 329.47 305.106 328.933 304.287 328.216C303.694 327.751 302.975 327.54 302.383 327.089C301.365 326.758 300.428 326.216 299.634 325.498C299.042 325.047 298.323 324.836 297.73 324.371C295.789 323.544 293.953 322.49 292.26 321.231C291.682 320.781 290.949 320.57 290.371 320.119C289.329 319.793 288.368 319.251 287.551 318.528C286.973 318.077 286.24 317.852 285.662 317.401C284.617 317.081 283.655 316.538 282.842 315.81C282.264 315.36 281.531 315.148 280.938 314.684C280.776 314.698 280.613 314.666 280.468 314.591C280.323 314.516 280.203 314.402 280.121 314.261C279.543 313.811 278.81 313.6 278.231 313.135C277.191 312.814 276.229 312.276 275.412 311.558C274.834 311.093 274.1 310.882 273.522 310.431C272.745 310.263 272.046 309.842 271.534 309.234C271.126 308.488 271.168 307.995 272.197 308.136C272.627 308.216 273.051 308.324 273.466 308.46C273.803 308.438 274.138 308.522 274.425 308.699C275.028 309.133 275.675 309.501 276.356 309.798C277.259 310.262 278.147 310.769 278.993 311.318C279.599 311.786 280.262 312.174 280.967 312.473C281.878 312.94 282.763 313.457 283.617 314.022C284.212 314.472 284.855 314.854 285.535 315.163L286.423 315.641C287.023 316.084 287.671 316.457 288.355 316.754C289.271 317.218 290.159 317.739 291.019 318.289C291.625 318.761 292.288 319.153 292.993 319.457C293.919 319.924 294.818 320.441 295.686 321.006C296.303 321.476 296.976 321.868 297.688 322.175C299.465 323.189 301.269 324.146 303.004 325.23C303.615 325.704 304.283 326.101 304.992 326.413C305.919 326.882 306.818 327.403 307.684 327.976C308.3 328.436 308.968 328.824 309.672 329.131C310.596 329.605 311.495 330.127 312.365 330.694C312.986 331.158 313.658 331.55 314.367 331.863C316.144 332.876 317.949 333.834 319.683 334.904C320.376 335.408 321.135 335.815 321.939 336.115C322.587 336.538 323.475 336.678 323.786 337.523C323.645 339.044 322.644 338.41 321.854 338.284C321.691 338.303 321.526 338.274 321.38 338.198C321.234 338.123 321.114 338.005 321.036 337.861C320.444 337.411 319.725 337.199 319.133 336.735C318.115 336.409 317.178 335.872 316.384 335.158C315.791 334.707 315.058 334.51 314.48 334.059Z" fill="#FEFEFE"/>
<path d="M279.191 311.586C278.15 311.265 277.189 310.727 276.371 310.009C275.793 309.544 275.06 309.333 274.482 308.882C274.317 308.898 274.152 308.866 274.004 308.791C273.857 308.716 273.734 308.602 273.65 308.46C273.65 307.995 272.691 307.756 273.325 307.164C273.96 306.573 274.298 307.024 274.735 307.291L284.703 313.107L307.657 326.413L325.125 336.523C325.281 336.608 325.351 336.819 325.464 336.96C325.055 337.748 324.336 337.467 323.73 337.551C323.067 337.143 322.249 337.002 321.756 336.34C321.164 335.89 320.445 335.679 319.852 335.214C317.914 334.386 316.079 333.337 314.382 332.088C313.804 331.623 313.071 331.412 312.493 330.961C311.448 330.641 310.486 330.098 309.673 329.37C309.095 328.92 308.362 328.708 307.769 328.244C306.754 327.912 305.819 327.375 305.02 326.667C304.428 326.202 303.709 325.991 303.117 325.54C301.181 324.702 299.346 323.649 297.646 322.4C297.068 321.95 296.335 321.738 295.757 321.274C294.713 320.953 293.751 320.411 292.937 319.682C292.359 319.232 291.626 319.021 291.048 318.556C290.005 318.241 289.042 317.703 288.228 316.979C287.65 316.514 286.917 316.303 286.339 315.852C286.176 315.868 286.013 315.837 285.867 315.762C285.722 315.687 285.602 315.572 285.521 315.43C284.929 314.965 284.196 314.754 283.618 314.303C282.574 313.983 281.611 313.44 280.798 312.712C280.502 312.262 279.769 312.051 279.191 311.586Z" fill="#FEFEFE"/>
<path d="M284.196 320.457C284.986 321.181 285.924 321.724 286.945 322.048C287.558 322.459 288.194 322.835 288.848 323.175C289.659 323.907 290.622 324.451 291.668 324.766C292.232 325.244 292.965 325.456 293.572 325.892C295.266 327.144 297.102 328.194 299.042 329.018C299.652 329.426 300.283 329.802 300.931 330.145C301.745 330.873 302.707 331.416 303.751 331.736C304.315 332.215 305.048 332.426 305.64 332.862C306.458 333.581 307.419 334.118 308.46 334.439C309.07 334.847 309.701 335.223 310.35 335.566C310.433 335.709 310.556 335.825 310.703 335.9C310.851 335.974 311.017 336.005 311.181 335.988C311.79 336.399 312.42 336.775 313.071 337.115C313.884 337.843 314.846 338.386 315.891 338.706C316.454 339.185 317.174 339.396 317.78 339.832C317.861 339.974 317.981 340.089 318.126 340.164C318.271 340.239 318.435 340.271 318.598 340.255C318.865 342.043 317.709 341.508 316.99 341.114C312.916 338.804 308.883 336.425 304.837 334.073L282.024 320.837L266.953 312.262C266.628 312.065 266.332 311.811 266.078 311.628C266.797 310.516 267.573 311.135 268.292 311.163C268.791 311.779 269.489 312.203 270.266 312.36C270.879 312.771 271.514 313.147 272.169 313.487C272.963 314.205 273.9 314.747 274.918 315.078C275.497 315.557 276.216 315.782 276.822 316.204C278.519 317.454 280.354 318.503 282.292 319.33C282.905 319.741 283.541 320.117 284.196 320.457Z" fill="#FEFEFE"/>
<path d="M191.861 98.4587C194.433 97.3051 196.913 95.954 199.277 94.4175C202.266 92.6855 205.226 90.9113 208.215 89.1511C213.855 92.432 219.593 95.6847 225.233 99.0079C227.818 100.306 230.297 101.803 232.649 103.486C230.478 105.767 227.545 107.104 225.275 109.273C223.527 110.963 221.046 112.089 220.947 115.088C220.397 115.511 220.016 115.088 219.537 114.849C212.826 111.061 206.143 107.189 199.474 103.331C197.359 102.106 195.244 100.867 193.115 99.6838C192.608 99.4162 191.846 99.3177 191.861 98.4587Z" fill="#F8BE59"/>
<path d="M294.291 67.0298C291.65 69.8639 288.264 71.8988 284.52 72.9016C282.727 73.424 280.843 73.5598 278.993 73.3001C277.143 73.0403 275.37 72.3909 273.791 71.3949C272.554 70.4747 271.582 69.2462 270.971 67.8324C271.464 66.1849 272.931 65.1148 273.466 63.425C273.838 62.4858 274.08 61.5005 274.185 60.4961C276.954 59.1242 279.331 57.0753 281.094 54.5399C279.177 55.6382 277.231 57.511 274.482 57.8067L272.155 58.5389C269.223 59.4823 267.376 58.6938 265.839 55.9339C264.241 53.3849 263.478 50.4027 263.653 47.4008C263.893 44.6972 262.159 42.4864 261.821 39.9096C261.637 38.5015 261.736 37.882 263.329 37.9946C264.152 38.0462 264.955 38.2718 265.684 38.6564C266.784 39.3014 268.046 39.6189 269.321 39.5717C270.241 39.4611 271.173 39.5429 272.059 39.812C272.945 40.0811 273.765 40.5316 274.467 41.1347C275.188 41.6599 276.01 42.0301 276.881 42.2215C277.753 42.413 278.654 42.4217 279.529 42.2471C279.733 42.4202 279.895 42.6363 280.005 42.8798C280.115 43.1234 280.169 43.3882 280.163 43.6552C280.16 44.0159 280.232 44.3733 280.376 44.7043C280.519 45.0354 280.731 45.3326 280.997 45.5768C281.262 45.821 281.577 46.0068 281.919 46.1221C282.261 46.2374 282.624 46.2796 282.983 46.2461C283.914 49.0623 284.816 51.8785 285.803 54.6947C287.34 58.6402 289.656 62.2366 292.613 65.2697C293.163 65.8188 293.741 66.4243 294.291 67.0298Z" fill="#F9C89F"/>
<path d="M269.772 70.2825C270.491 69.9868 270.843 70.5359 271.182 70.9443C276.399 76.6471 283.124 76.2247 289.13 72.6903C290.776 71.8351 292.29 70.7493 293.628 69.4658C294.135 68.9307 294.798 68.7476 295.32 69.2827C295.841 69.8178 295.32 70.1417 294.953 70.4514C290.723 73.7887 286.254 76.7034 280.558 76.7457C278.42 76.7749 276.306 76.2991 274.387 75.3569C272.469 74.4148 270.8 73.0331 269.518 71.3245C269.459 71.1444 269.451 70.9514 269.496 70.7672C269.541 70.5831 269.636 70.4151 269.772 70.2825Z" fill="#FEFEFE"/>
<path d="M282.983 46.1756C280.938 46.8374 280.417 46.598 279.952 44.683C279.754 43.8804 279.67 43.0637 279.529 42.247C279.261 40.9375 278.443 39.4308 280.53 38.8394C281.382 38.7538 282.234 38.9982 282.911 39.5223C283.588 40.0464 284.038 40.81 284.167 41.6556C284.324 42.4494 284.299 43.2684 284.094 44.0511C283.889 44.8339 283.509 45.5602 282.983 46.1756Z" fill="#F4A776"/>
<path d="M274.481 57.8067C277.189 56.5207 279.792 55.0235 282.264 53.3289C280.318 56.5535 278.147 59.5246 274.185 60.4962C274.432 59.6221 274.532 58.7134 274.481 57.8067Z" fill="#F4A776"/>
<path d="M394.281 169.723L385.822 172.032C384.948 172.271 384.031 172.426 383.876 173.567C383.101 175.059 382.833 176.946 380.817 177.51C372.564 172.675 364.311 167.855 356.059 163.048C347.402 158.026 338.736 153.023 330.06 148.038C329.961 147.404 329.961 146.926 330.835 146.855C333.26 146.644 335.657 146.264 338.068 146.123C338.484 146.163 338.9 146.052 339.242 145.812C339.583 145.572 339.827 145.218 339.929 144.813C340.296 143.504 341.226 142.42 341.551 141.138C342.143 138.829 343.13 139.322 344.681 140.237C357.577 147.747 370.496 155.257 383.439 162.767L393.238 168.399C393.746 168.667 394.465 168.85 394.281 169.723Z" fill="#FEFEFE"/>
<path d="M191.861 98.4587L208.78 108.231C212.798 110.54 216.703 113.061 220.877 115.117C224.119 117.046 227.376 118.947 230.591 120.918C230.94 121.134 231.348 121.236 231.758 121.208C232.168 121.18 232.558 121.025 232.875 120.763L238.782 117.369C239.877 117.407 240.931 117.797 241.786 118.482C245.705 120.791 249.639 123.1 253.629 125.297C260.904 129.521 268.25 133.746 275.567 137.97C280.586 140.871 285.634 143.729 290.653 146.672C291.203 146.996 291.795 147.292 291.908 148.08C290.425 149.733 289.111 151.53 287.988 153.445C287.691 154.173 287.249 154.834 286.691 155.388C284.266 157.782 281.841 160.176 279.458 162.612C279.006 163.112 278.447 163.505 277.822 163.761C277.197 164.017 276.523 164.129 275.849 164.09C274.242 164.09 272.634 164.09 271.027 164.09C270.348 164.085 269.677 164.232 269.062 164.52C268.448 164.807 267.905 165.228 267.474 165.752C267.263 165.991 267.051 166.287 267.206 166.625C267.361 166.963 267.827 166.949 268.207 166.864C269.251 166.625 270.153 165.766 271.337 166.203C271.647 167.245 270.745 167.442 270.139 167.822C267.545 169.413 264.838 170.807 262.3 172.511C262.105 172.681 261.854 172.775 261.595 172.775C261.336 172.775 261.085 172.681 260.89 172.511C257.365 159.847 253.85 147.174 250.344 134.492C250.209 133.974 249.964 133.49 249.626 133.075C249.288 132.66 248.864 132.322 248.384 132.084C235.657 124.818 222.968 117.515 210.316 110.174C204.141 106.612 197.98 103.007 191.818 99.4162C191.558 99.2341 191.313 99.0316 191.085 98.8107C191.226 98.4164 191.55 98.4587 191.861 98.4587Z" fill="#24227A"/>
<path d="M291.964 148.066C287.213 145.25 282.475 142.504 277.71 139.758L254.263 126.283C254.01 126.092 253.783 125.869 253.586 125.621C254.136 124.931 254.996 125.016 255.687 124.987C257.266 124.987 258.859 124.987 260.438 124.987C260.951 125.035 261.467 124.974 261.953 124.806C262.44 124.639 262.885 124.369 263.258 124.016C263.639 123.424 263.963 123.776 264.344 124.016C269.365 127.446 275.021 129.839 280.981 131.056C285.116 131.935 289.347 132.29 293.571 132.112C294.854 132.112 296.151 132.112 297.434 132.112C297.669 132.334 297.84 132.613 297.932 132.922C298.024 133.231 298.032 133.559 297.956 133.872C297.615 136.214 297.691 138.598 298.182 140.913C298.269 141.484 298.165 142.068 297.886 142.574L291.964 148.066Z" fill="#6855C9"/>
<path d="M260.96 172.469C261.327 172.314 261.863 172.652 262.102 172.102C263.284 171.448 264.558 170.973 265.881 170.694C268.39 170.286 269.871 168.455 271.52 166.808C271.647 166.667 271.52 166.442 271.422 166.287C270.257 166.482 269.13 166.858 268.08 167.399C267.432 167.611 266.811 167.709 266.473 167.09C266.355 166.822 266.33 166.523 266.401 166.24C266.473 165.957 266.637 165.706 266.868 165.527C268.01 164.372 269.279 163.245 270.985 163.541C276.06 164.414 279.811 162.541 282.884 158.542C284.493 156.716 286.226 155.003 288.073 153.417C289.553 156.388 291.851 158.796 293.586 161.584C290.244 163.302 286.903 165.006 283.561 166.738C280.816 168.104 278.382 170.021 276.413 172.37C275.406 174.14 273.979 175.637 272.259 176.729C270.538 177.822 268.576 178.476 266.543 178.636C264.495 179.035 262.372 178.758 260.495 177.848C259.339 177.144 258.07 176.439 258.986 174.651C259.085 173.497 260.227 173.159 260.96 172.469Z" fill="#F9C89F"/>
<path d="M263.202 124.016C263.442 125.128 263.202 125.621 261.792 125.593C258.972 125.508 256.265 125.593 253.502 125.593C249.399 123.706 245.677 121.157 241.729 118.989C240.742 118.454 239.755 117.891 238.782 117.341C241.534 115.516 244.12 113.452 246.509 111.174C248.793 111.568 250.47 113.159 252.416 114.229C255.124 115.518 257.682 117.1 260.044 118.947C260.805 120.862 261.313 122.861 263.202 124.016Z" fill="#F8BE59"/>
<path d="M260.1 118.975C256.308 117.172 252.783 114.891 249.159 112.779C248.206 112.414 247.328 111.88 246.565 111.202C248.299 108.865 250.795 107.273 252.797 105.246C253.911 104.133 254.545 102.556 256.167 101.74C256.993 107.584 258.309 113.35 260.1 118.975Z" fill="#F8C56E"/>
<path d="M297.829 142.589C297.109 139.168 296.956 135.653 297.378 132.183C299.831 130.239 299.747 127.367 300.085 124.663C300.424 121.96 299.705 119.566 299.874 117.003C301.509 123.734 303.149 130.46 304.794 137.181C304.843 137.237 304.879 137.302 304.901 137.373C304.923 137.443 304.929 137.518 304.92 137.591C304.91 137.664 304.886 137.734 304.847 137.797C304.808 137.86 304.757 137.914 304.696 137.956L297.829 142.589Z" fill="#F8C56E"/>
<path d="M297.054 96.8675C296.842 92.1222 296.941 87.7289 299.155 83.6876C299.757 82.4392 300.726 81.4038 301.933 80.7195C303.139 80.0352 304.526 79.7345 305.908 79.8575C306.317 79.928 306.684 79.9561 306.641 80.4912C306.599 81.0263 306.303 80.984 305.979 81.0122C300.832 81.4065 299.225 86.1236 298.577 90.0804C297.59 95.9522 298.323 101.782 299.267 107.583C299.352 108.16 299.507 108.907 298.788 109.062C298.069 109.217 297.829 108.78 297.759 108.02C297.392 104.204 296.659 100.472 297.054 96.8675Z" fill="#FEFEFE"/>
<path d="M241.193 105.823C241.08 106.316 241.292 106.781 240.742 106.921C240.192 107.062 240.093 106.724 239.882 106.358C239.245 104.89 238.185 103.645 236.837 102.782C236.725 102.725 236.625 102.647 236.544 102.552C236.463 102.456 236.401 102.346 236.363 102.226C236.325 102.107 236.311 101.982 236.323 101.857C236.334 101.732 236.369 101.611 236.428 101.5C236.879 100.909 237.443 101.12 237.838 101.599C239.163 102.922 240.714 104.035 241.193 105.823Z" fill="#FEFEFE"/>
<path d="M304.696 137.956C304.696 137.703 304.766 137.449 304.794 137.182C305.783 136.628 306.8 136.126 307.84 135.675C308.277 135.52 309.052 135.281 309.334 136.027C309.616 136.773 308.855 136.83 308.46 137.055C307.642 137.52 306.74 137.872 305.908 138.322C305.813 138.405 305.698 138.463 305.574 138.49C305.45 138.516 305.322 138.511 305.2 138.474C305.079 138.438 304.969 138.371 304.881 138.28C304.793 138.19 304.729 138.078 304.696 137.956Z" fill="#FEFEFE"/>
<path d="M380.789 177.999C382.311 177.055 382.41 175.042 383.848 174.056C384.793 175.563 384.243 177.295 384.525 178.914C385.089 182.251 385.131 185.673 385.427 189.053C385.907 194.277 386.442 199.501 386.908 204.725C387.218 208.104 387.443 211.498 387.754 214.877C388.233 220.172 388.783 225.452 389.248 230.746C389.572 234.323 389.812 237.9 390.094 241.476C390.205 241.595 390.279 241.743 390.307 241.904C390.334 242.064 390.314 242.229 390.249 242.377C388.952 245.306 388.05 248.418 386.203 251.094C386.081 251.114 385.957 251.114 385.836 251.094C385.626 250.891 385.464 250.645 385.361 250.372C385.259 250.099 385.219 249.807 385.244 249.517C385.159 244.63 384.666 239.758 384.398 234.886C384.116 229.62 383.862 224.354 383.411 219.102C383.298 218.205 383.27 217.3 383.326 216.398C383.305 215.921 383.367 215.445 383.51 214.99C382.903 209.259 382.593 203.514 382.255 197.769C381.874 191.249 381.296 184.617 380.789 177.999Z" fill="#AEA7EC"/>
<path d="M383.51 215.102C383.642 215.184 383.745 215.306 383.803 215.451C383.862 215.595 383.872 215.754 383.834 215.905C383.383 216.891 382.424 216.834 381.522 217.102C379.943 217.609 378.194 217.651 376.883 218.89C376.376 219.486 375.905 220.111 375.473 220.763C375.149 221.2 374.839 221.819 374.063 221.326L356.538 211.033L339.182 200.81C340.042 199.191 341.833 199.796 342.918 199.81C345.301 199.81 346.175 198.74 346.979 196.882C347.924 194.657 347.994 194.755 350.109 195.98L376.375 211.061L383.51 215.102Z" fill="#FEFEFE"/>
<path d="M345.104 188.662C341.875 183.156 342.284 177.087 342.383 171.075C342.666 169.784 342.548 168.438 342.045 167.216C341.964 167.072 341.914 166.912 341.899 166.748C341.884 166.583 341.904 166.417 341.957 166.261C342.01 166.104 342.096 165.96 342.208 165.839C342.32 165.717 342.457 165.621 342.608 165.555C342.939 165.407 343.313 165.392 343.655 165.513C343.996 165.633 344.277 165.88 344.441 166.203C345.048 167.259 345.738 168.315 344.3 169.399C344.022 169.702 343.814 170.061 343.689 170.453C343.565 170.845 343.528 171.259 343.581 171.666C343.497 176.327 343.158 181.044 345.118 185.465C346.528 188.662 348.756 191.211 352.337 191.717C356.285 192.281 358.893 189.971 360.514 185.902C361.501 183.438 362.657 180.762 361.078 178.003C360.782 177.482 361.219 177.045 361.6 176.665C361.981 176.285 362.347 176.411 362.784 176.665C363.152 176.804 363.48 177.032 363.739 177.327C363.998 177.623 364.18 177.978 364.269 178.361C364.359 178.743 364.352 179.142 364.25 179.522C364.149 179.901 363.955 180.25 363.687 180.537C362.982 181.452 363.687 182.579 363.193 183.536C362.82 185.304 362.178 187.004 361.29 188.577C358.71 192.999 354.917 194.477 350.01 192.999C347.96 192.103 346.244 190.586 345.104 188.662Z" fill="#724AA7"/>
<path d="M362.925 183.241C362.925 182.438 362.925 181.635 362.925 180.847C362.925 180.058 363.348 180.467 363.673 180.509C364.418 184.111 364.351 187.835 363.475 191.408C362.389 195.266 360.12 196.871 356.101 196.829C353.692 196.608 351.391 195.729 349.448 194.288C347.506 192.848 345.998 190.901 345.09 188.662C346.52 190.083 348.077 191.37 349.743 192.506C351.046 193.402 352.47 194.109 353.972 194.604C357.68 195.913 360.387 194.505 361.656 190.788C362.179 188.543 362.514 186.259 362.657 183.959C362.678 183.699 362.771 183.451 362.925 183.241Z" fill="#C0BAF8"/>
<path d="M258.958 174.722C259.17 176.904 260.58 178.003 263.188 178.256C265.336 178.534 267.519 178.28 269.545 177.516C271.571 176.753 273.378 175.503 274.806 173.877C275.285 173.356 275.849 172.919 276.371 172.469L280.248 179.298C271.788 179.664 263.414 179.904 255.095 179.875C254.743 179.875 254.616 179.763 254.644 179.425C253.535 177.94 252.258 176.588 250.837 175.398C247.39 172.059 244.155 168.508 241.151 164.766C244.084 165.865 246.579 167.794 249.329 169.258C252.6 170.948 255.758 172.877 258.958 174.722Z" fill="#F8BE59"/>
<path d="M254.658 179.397L255.109 179.847C254.902 180.244 254.576 180.566 254.177 180.768C253.777 180.97 253.324 181.042 252.882 180.974C250.499 180.974 248.116 180.974 245.747 180.974C241.518 180.861 237.175 181.692 232.875 181.34C231.535 181.241 230.873 182.748 229.562 182.537C229.562 182.269 229.562 182.002 229.463 181.734C229.632 180.805 230.14 180.143 231.112 180.228C233.495 180.425 235.807 179.819 238.162 179.791C243.675 179.706 249.173 179.523 254.658 179.397Z" fill="#FEFEFE"/>
<path d="M376.502 218.594C378.138 216.792 380.577 217.186 382.579 216.313C382.988 216.158 383.425 216.046 383.834 215.905C384.229 223.185 384.778 230.465 385.103 237.759C385.3 242.223 385.808 246.686 385.836 251.164C385.995 251.444 386.104 251.748 386.16 252.065C386.16 256.81 386.625 261.528 386.921 266.259C384.932 265.628 382.872 265.245 380.788 265.118C380.093 264.177 379.753 263.019 379.83 261.852C378.871 250.587 377.799 239.322 376.827 228.057C376.559 224.875 375.727 221.749 376.502 218.594Z" fill="#FB94BD"/>
<path d="M376.503 218.594C376.883 222.917 377.25 227.24 377.673 231.563C378.152 236.449 378.73 241.321 379.153 246.221C379.407 249.277 379.576 252.333 379.957 255.374C380.338 258.416 380.521 261.866 380.789 265.118C379.661 266.963 379.238 269.159 377.715 271.215C377.631 268.779 377.504 266.653 377.335 264.527C376.799 258.092 376.601 251.629 376.08 245.194C375.643 239.843 375.346 234.478 374.881 229.141C374.872 226.521 374.636 223.906 374.176 221.326C375.516 220.946 375.516 219.242 376.503 218.594Z" fill="#FB71A8"/>
<path d="M350.137 229.451C347.571 225.227 347.43 220.749 348.093 216.102C348.142 215.531 348.075 214.956 347.895 214.412C347.769 213.92 347.515 213.215 348.22 212.892C348.925 212.568 349.122 213.061 349.348 213.427C349.573 213.793 350.56 214.638 349.742 215.215C348.925 215.792 348.953 216.736 348.981 217.581C349.052 220.073 348.657 222.593 349.376 225.058C349.592 226.191 350.057 227.262 350.737 228.195C351.418 229.127 352.296 229.898 353.31 230.451C356.538 231.957 359.739 230.042 360.782 225.917C361.304 224.815 361.438 223.57 361.163 222.382C360.923 221.777 360.599 220.89 361.572 220.622C362.544 220.355 362.911 221.312 363.08 222.115C363.085 222.492 363.028 222.868 362.911 223.227C362.276 223.959 362.685 224.889 362.446 225.691C362.049 227.436 361.253 229.065 360.119 230.451C359.353 231.362 358.33 232.022 357.184 232.345C356.038 232.669 354.821 232.642 353.69 232.267C352.195 231.805 350.927 230.8 350.137 229.451Z" fill="#D53E7B"/>
<path d="M362.15 225.565C362.432 224.79 361.515 223.636 362.911 223.227C362.911 225.1 362.911 226.959 362.911 228.86C362.812 233.084 360.091 235.351 356.031 234.492C354.691 234.265 353.438 233.685 352.399 232.811C351.36 231.937 350.574 230.801 350.123 229.521C351.163 230.495 352.347 231.303 353.634 231.915C354.68 232.55 355.847 232.962 357.06 233.126C357.963 233.256 358.881 233.037 359.628 232.514C360.375 231.991 360.894 231.202 361.078 230.31C361.557 228.705 361.797 227.114 362.15 225.565Z" fill="#FB94BD"/>
<path d="M386.202 251.094C386.907 248.277 388.486 245.799 389.459 243.095C389.656 242.546 389.882 242.011 390.094 241.476L398.934 243.405C396.791 245.391 394.084 246.531 391.729 248.193C390.159 249.002 388.688 249.99 387.344 251.136L386.202 251.094Z" fill="#CDC9F8"/>
<path d="M275.694 313.585C276.08 313.602 276.455 313.713 276.787 313.91C277.119 314.106 277.397 314.382 277.597 314.712C277.208 314.71 276.827 314.605 276.492 314.407C276.158 314.209 275.882 313.925 275.694 313.585Z" fill="#C0BAF8"/>
<path d="M276.822 316.204C276.433 316.203 276.051 316.098 275.717 315.9C275.382 315.702 275.106 315.418 274.918 315.078C275.304 315.094 275.68 315.206 276.012 315.402C276.344 315.599 276.622 315.874 276.822 316.204Z" fill="#C0BAF8"/>
<path d="M280.346 316.233C280.732 316.249 281.108 316.36 281.44 316.557C281.772 316.754 282.05 317.029 282.25 317.359C281.86 317.36 281.477 317.256 281.142 317.058C280.807 316.86 280.532 316.574 280.346 316.233Z" fill="#C0BAF8"/>
<path d="M285.013 318.95C285.396 318.969 285.769 319.082 286.099 319.278C286.428 319.474 286.704 319.749 286.902 320.077C286.515 320.076 286.136 319.97 285.803 319.772C285.471 319.574 285.198 319.29 285.013 318.95Z" fill="#C0BAF8"/>
<path d="M284.195 320.457C283.806 320.46 283.422 320.356 283.087 320.158C282.751 319.959 282.477 319.673 282.292 319.33C282.677 319.349 283.052 319.462 283.383 319.658C283.715 319.854 283.994 320.129 284.195 320.457Z" fill="#C0BAF8"/>
<path d="M287.72 320.499C288.106 320.515 288.482 320.627 288.814 320.823C289.146 321.02 289.424 321.296 289.624 321.626C289.235 321.625 288.853 321.521 288.518 321.323C288.183 321.124 287.908 320.84 287.72 320.499Z" fill="#C0BAF8"/>
<path d="M288.848 323.174C288.459 323.174 288.077 323.07 287.742 322.872C287.407 322.673 287.132 322.389 286.945 322.048C287.33 322.067 287.705 322.179 288.036 322.376C288.368 322.572 288.647 322.846 288.848 323.174Z" fill="#C0BAF8"/>
<path d="M292.331 323.217C292.716 323.23 293.091 323.339 293.423 323.533C293.755 323.728 294.034 324.001 294.234 324.329C293.846 324.335 293.463 324.234 293.127 324.038C292.792 323.842 292.516 323.558 292.331 323.217Z" fill="#C0BAF8"/>
<path d="M293.501 325.892C293.112 325.892 292.73 325.787 292.395 325.589C292.06 325.391 291.785 325.107 291.598 324.766C291.984 324.78 292.361 324.89 292.693 325.087C293.026 325.284 293.303 325.561 293.501 325.892Z" fill="#C0BAF8"/>
<path d="M272.169 313.487C271.78 313.488 271.397 313.384 271.062 313.186C270.727 312.987 270.451 312.702 270.266 312.36C270.651 312.377 271.027 312.488 271.359 312.685C271.691 312.881 271.969 313.157 272.169 313.487Z" fill="#C0BAF8"/>
<path d="M300.861 330.145C300.474 330.143 300.094 330.038 299.761 329.84C299.429 329.642 299.156 329.358 298.971 329.018C299.355 329.036 299.728 329.148 300.058 329.344C300.388 329.541 300.663 329.816 300.861 330.145Z" fill="#C0BAF8"/>
<path d="M304.399 330.187C304.783 330.204 305.156 330.316 305.486 330.513C305.816 330.71 306.091 330.985 306.289 331.313C305.902 331.312 305.522 331.207 305.189 331.009C304.857 330.811 304.584 330.527 304.399 330.187Z" fill="#C0BAF8"/>
<path d="M305.514 332.862C305.126 332.861 304.747 332.756 304.414 332.558C304.082 332.36 303.809 332.076 303.624 331.736C304.008 331.753 304.381 331.865 304.711 332.062C305.04 332.259 305.316 332.534 305.514 332.862Z" fill="#C0BAF8"/>
<path d="M309.052 332.89C309.437 332.909 309.812 333.022 310.144 333.218C310.475 333.414 310.754 333.688 310.956 334.017C310.566 334.017 310.184 333.912 309.849 333.714C309.515 333.516 309.239 333.231 309.052 332.89Z" fill="#C0BAF8"/>
<path d="M310.166 335.566C309.778 335.568 309.397 335.464 309.064 335.265C308.731 335.067 308.459 334.781 308.277 334.439C308.66 334.457 309.033 334.569 309.363 334.765C309.693 334.962 309.968 335.237 310.166 335.566Z" fill="#C0BAF8"/>
<path d="M313.705 335.608C314.09 335.627 314.465 335.739 314.797 335.936C315.128 336.132 315.407 336.406 315.608 336.735C315.219 336.734 314.837 336.63 314.502 336.432C314.167 336.233 313.892 335.949 313.705 335.608Z" fill="#C0BAF8"/>
<path d="M312.887 337.115C312.499 337.118 312.118 337.015 311.784 336.816C311.451 336.618 311.179 336.331 310.998 335.988C311.381 336.007 311.754 336.12 312.084 336.316C312.413 336.512 312.689 336.787 312.887 337.115Z" fill="#C0BAF8"/>
<path d="M316.426 337.157C316.81 337.175 317.183 337.287 317.513 337.483C317.842 337.68 318.118 337.955 318.315 338.284C317.928 338.282 317.549 338.177 317.216 337.979C316.884 337.781 316.611 337.497 316.426 337.157Z" fill="#C0BAF8"/>
<path d="M317.54 339.832C317.153 339.831 316.773 339.726 316.441 339.528C316.108 339.33 315.836 339.046 315.651 338.706C316.034 338.723 316.408 338.835 316.737 339.032C317.067 339.228 317.343 339.503 317.54 339.832Z" fill="#C0BAF8"/>
<path d="M297.026 325.92C297.412 325.937 297.787 326.048 298.119 326.245C298.451 326.441 298.73 326.717 298.929 327.047C298.54 327.045 298.159 326.94 297.824 326.742C297.49 326.544 297.214 326.26 297.026 325.92Z" fill="#C0BAF8"/>
<path d="M273.762 310.431C274.146 310.449 274.519 310.561 274.849 310.757C275.178 310.954 275.454 311.229 275.652 311.558C275.264 311.556 274.885 311.451 274.552 311.253C274.22 311.055 273.947 310.771 273.762 310.431Z" fill="#C0BAF8"/>
<path d="M278.415 313.135C278.799 313.152 279.172 313.264 279.501 313.461C279.831 313.657 280.107 313.932 280.304 314.261C279.917 314.263 279.536 314.159 279.203 313.961C278.87 313.762 278.597 313.477 278.415 313.135Z" fill="#C0BAF8"/>
<path d="M281.122 314.684C281.507 314.7 281.883 314.811 282.215 315.008C282.547 315.205 282.826 315.48 283.025 315.81C282.636 315.812 282.253 315.707 281.918 315.509C281.583 315.311 281.308 315.026 281.122 314.684Z" fill="#C0BAF8"/>
<path d="M285.788 317.401C286.172 317.42 286.544 317.533 286.874 317.729C287.203 317.925 287.479 318.2 287.678 318.528C287.291 318.527 286.911 318.421 286.578 318.223C286.246 318.025 285.973 317.741 285.788 317.401Z" fill="#C0BAF8"/>
<path d="M290.442 320.119C290.825 320.13 291.199 320.238 291.53 320.432C291.86 320.627 292.136 320.902 292.331 321.231C291.944 321.236 291.564 321.135 291.231 320.939C290.898 320.743 290.625 320.459 290.442 320.119Z" fill="#C0BAF8"/>
<path d="M297.801 324.371C298.187 324.388 298.563 324.499 298.895 324.696C299.227 324.892 299.505 325.168 299.705 325.498C299.316 325.496 298.934 325.391 298.6 325.193C298.265 324.995 297.989 324.711 297.801 324.371Z" fill="#C0BAF8"/>
<path d="M302.454 327.089C302.84 327.103 303.217 327.213 303.549 327.41C303.882 327.607 304.16 327.884 304.357 328.216C303.968 328.214 303.587 328.109 303.252 327.911C302.918 327.713 302.642 327.429 302.454 327.089Z" fill="#C0BAF8"/>
<path d="M307.107 329.793C307.492 329.809 307.868 329.92 308.2 330.117C308.532 330.314 308.81 330.589 309.01 330.919C308.621 330.917 308.24 330.812 307.905 330.614C307.57 330.416 307.295 330.133 307.107 329.793Z" fill="#C0BAF8"/>
<path d="M309.828 331.342C310.213 331.36 310.587 331.473 310.919 331.669C311.251 331.866 311.53 332.14 311.731 332.468C311.342 332.468 310.96 332.363 310.625 332.165C310.29 331.967 310.015 331.682 309.828 331.342Z" fill="#C0BAF8"/>
<path d="M314.48 334.059C314.866 334.076 315.242 334.187 315.574 334.384C315.906 334.58 316.184 334.856 316.384 335.186C315.995 335.186 315.613 335.081 315.278 334.883C314.943 334.685 314.668 334.4 314.48 334.059Z" fill="#C0BAF8"/>
<path d="M319.119 336.763C319.505 336.779 319.88 336.891 320.213 337.087C320.545 337.284 320.823 337.559 321.022 337.889C320.633 337.892 320.249 337.789 319.914 337.59C319.579 337.392 319.304 337.106 319.119 336.763Z" fill="#C0BAF8"/>
<path d="M274.538 308.882C274.921 308.9 275.295 309.012 275.624 309.208C275.954 309.405 276.23 309.68 276.427 310.009C276.04 310.008 275.66 309.903 275.328 309.704C274.995 309.506 274.723 309.222 274.538 308.882Z" fill="#C0BAF8"/>
<path d="M279.191 311.586C279.574 311.603 279.947 311.715 280.277 311.912C280.607 312.108 280.883 312.383 281.08 312.712C280.692 312.714 280.311 312.61 279.978 312.412C279.645 312.213 279.373 311.928 279.191 311.586Z" fill="#C0BAF8"/>
<path d="M283.871 314.303C284.256 314.322 284.631 314.435 284.963 314.631C285.294 314.827 285.573 315.102 285.775 315.43C285.385 315.43 285.003 315.325 284.668 315.127C284.333 314.929 284.058 314.644 283.871 314.303Z" fill="#C0BAF8"/>
<path d="M286.564 315.852C286.947 315.871 287.32 315.984 287.649 316.18C287.979 316.377 288.255 316.651 288.453 316.979C288.066 316.978 287.686 316.873 287.354 316.674C287.022 316.476 286.749 316.192 286.564 315.852Z" fill="#C0BAF8"/>
<path d="M291.217 318.556C291.6 318.574 291.974 318.686 292.303 318.882C292.633 319.079 292.909 319.354 293.106 319.683C292.718 319.684 292.337 319.58 292.004 319.382C291.671 319.183 291.399 318.898 291.217 318.556Z" fill="#C0BAF8"/>
<path d="M295.87 321.274C296.253 321.291 296.626 321.403 296.956 321.6C297.286 321.796 297.562 322.071 297.759 322.4C297.372 322.399 296.992 322.294 296.66 322.095C296.327 321.897 296.054 321.613 295.87 321.274Z" fill="#C0BAF8"/>
<path d="M303.229 325.54C303.615 325.554 303.992 325.664 304.324 325.861C304.657 326.058 304.935 326.335 305.132 326.667C304.743 326.665 304.362 326.56 304.027 326.362C303.693 326.164 303.417 325.88 303.229 325.54Z" fill="#C0BAF8"/>
<path d="M307.84 328.244C308.225 328.26 308.601 328.371 308.933 328.568C309.265 328.765 309.543 329.04 309.743 329.37C309.354 329.369 308.973 329.263 308.638 329.065C308.303 328.867 308.028 328.584 307.84 328.244Z" fill="#C0BAF8"/>
<path d="M312.549 330.961C312.932 330.98 313.305 331.093 313.634 331.289C313.964 331.485 314.24 331.76 314.438 332.088C314.051 332.087 313.671 331.981 313.339 331.783C313.006 331.585 312.734 331.301 312.549 330.961Z" fill="#C0BAF8"/>
<path d="M319.908 335.214C320.294 335.23 320.67 335.342 321.002 335.538C321.334 335.735 321.612 336.01 321.812 336.34C321.422 336.343 321.039 336.24 320.703 336.041C320.368 335.843 320.093 335.557 319.908 335.214Z" fill="#C0BAF8"/>
<path d="M342.735 140.322C346.477 142.149 350.124 144.165 353.662 146.362C360.974 150.53 368.273 154.755 375.558 159.035L393.21 169.244C390.799 169.864 388.74 170.497 386.639 170.892C385.756 171.004 384.914 171.336 384.192 171.857C383.47 172.379 382.891 173.073 382.508 173.877C381.098 176.594 380.718 176.552 378.279 175.088C368.748 169.455 359.188 163.921 349.7 158.19C347.005 156.856 344.442 155.272 342.044 153.459C341.749 153.035 341.545 152.555 341.446 152.048C341.346 151.542 341.353 151.02 341.466 150.516C341.776 147.109 341.438 143.603 342.735 140.322Z" fill="#CDC9F8"/>
<path d="M342.735 140.322C342.481 144.701 341.889 149.052 341.987 153.459C340.937 153.255 339.98 152.722 339.252 151.938C338.804 151.105 338.57 150.174 338.57 149.228C338.57 148.282 338.804 147.351 339.252 146.517C340.563 145.391 340.831 143.701 341.564 142.293C341.795 141.553 342.195 140.878 342.735 140.322Z" fill="#AEA7EC"/>
<path d="M339.294 146.517V151.938L331.089 147.418L339.294 146.517Z" fill="#C0BAF8"/>
<path d="M282.264 155.388L265.345 165.386C264.189 166.076 262.977 166.695 261.863 167.456C260.975 168.061 260.594 167.977 260.298 166.907C257.948 158.298 255.598 149.704 253.248 141.124C252.995 140.195 252.741 139.28 252.473 138.308C253.389 137.717 254.08 138.378 254.771 138.773C263.555 143.87 272.409 148.883 281.15 154.051C281.602 154.389 282.363 154.515 282.264 155.388Z" fill="#2F2C9D"/>
<path d="M282.264 155.388L266.684 146.25C262.699 143.931 258.7 141.626 254.686 139.336C254.008 138.842 253.227 138.505 252.402 138.35C252.025 137.261 251.729 136.145 251.514 135.013C251.175 131.929 248.567 131.211 246.466 129.972C242.941 127.874 239.417 125.86 235.737 123.762C235.918 123.486 236.155 123.25 236.432 123.07C236.71 122.891 237.022 122.771 237.349 122.719C237.676 122.668 238.01 122.685 238.329 122.77C238.649 122.855 238.948 123.006 239.205 123.213C252.092 130.723 264.992 138.2 277.907 145.644C280.967 147.418 284.069 149.122 287.142 150.868C288.214 151.474 288.623 152.037 287.142 152.755C285.662 153.473 283.871 154.501 282.264 155.388Z" fill="#292689"/>
<path d="M271.394 166.301L272.381 166.231C270.054 169.822 268.038 170.962 262.102 172.103C264.615 170.399 267.212 168.825 269.885 167.385C270.407 167.048 271.083 166.921 271.394 166.301Z" fill="#1B195B"/>
<path d="M348.191 196.149C348.403 195.811 348.657 195.811 348.995 196.008L376.925 212.202C378.335 213.046 379.844 213.835 381.31 214.623C381.648 214.807 382.128 214.919 382.043 215.384C381.959 215.849 381.493 215.82 381.099 215.905C380.224 216.088 379.379 216.468 378.504 216.567C377.794 216.606 377.111 216.855 376.542 217.281C375.973 217.706 375.542 218.291 375.304 218.96C374.867 220.045 374.317 220.369 373.076 219.665C365.914 215.44 358.681 211.216 351.505 206.992C350.156 206.399 348.902 205.611 347.782 204.654C346.796 203.246 347.204 201.584 347.374 200.036C347.471 198.709 347.746 197.402 348.191 196.149Z" fill="#FBADCC"/>
<path d="M348.191 195.66C348.388 198.476 347.528 201.292 347.81 204.193C347.007 204.08 346.485 203.461 345.837 203.067C345.45 202.572 345.24 201.962 345.24 201.335C345.24 200.707 345.45 200.098 345.837 199.603C347.091 198.533 347.007 196.73 348.191 195.66Z" fill="#FB71A9"/>
<path d="M345.907 199.603V203.067C344.104 202.262 342.401 201.251 340.832 200.053C342.538 200.236 344.159 199.406 345.907 199.603Z" fill="#FB95BD"/>
<path d="M362.925 183.241C363.111 185.798 362.892 188.369 362.276 190.858C360.866 194.872 358.3 196.491 354.254 195.224C352.46 194.931 350.849 193.957 349.756 192.506C352.844 193.266 355.904 193.435 358.498 191.267C360.577 189.354 361.989 186.828 362.53 184.057C362.615 183.748 362.587 183.41 362.925 183.241Z" fill="#CDC9F8"/>
<path d="M361.882 178.369C361.797 177.228 362.206 176.961 363.151 177.665C362.728 177.918 362.093 177.918 361.882 178.369Z" fill="#F3E8E8"/>
<path d="M343.891 166.414C343.7 166.611 343.488 166.786 343.257 166.935C343.158 166.935 342.876 166.808 342.848 166.681C342.82 166.555 343.017 166.259 343.285 166.259C343.492 166.29 343.695 166.342 343.891 166.414Z" fill="#F3E8E8"/>
<path d="M362.149 225.565C362.152 226.838 362.048 228.11 361.839 229.366C361.798 230.3 361.468 231.198 360.895 231.937C360.322 232.676 359.534 233.219 358.639 233.492C357.735 233.699 356.793 233.655 355.913 233.364C355.033 233.074 354.25 232.548 353.647 231.845C355.225 232.298 356.919 232.107 358.356 231.315C359.794 230.524 360.859 229.195 361.317 227.62C361.474 226.892 361.755 226.197 362.149 225.565Z" fill="#FBADCC"/>
<path d="M23.9399 208.428C27.6887 209.311 31.5395 209.685 35.3884 209.54C41.1409 209.005 46.6677 207.865 51.0525 203.626C52.7206 201.824 53.673 199.476 53.7314 197.022C54.4786 190.742 55.1413 184.448 55.7899 178.168C61.7115 179.576 67.0692 181.787 71.4681 186.292C77.1077 192.122 76.1208 200.176 69.8749 205.175C63.629 210.174 56.4948 211.948 48.7262 212.694C41.359 213.406 33.9254 212.483 26.9572 209.991C25.8728 209.638 24.8536 209.11 23.9399 208.428Z" fill="#E4E3F4"/>
<path d="M32.4702 209.822C50.403 209.822 64.9404 195.303 64.9404 177.393C64.9404 159.483 50.403 144.965 32.4702 144.965C14.5374 144.965 0 159.483 0 177.393C0 195.303 14.5374 209.822 32.4702 209.822Z" fill="#B0C2C2"/>
<path d="M60.8373 176.76C60.8373 198.67 43.7774 206.752 32.4699 206.752C21.1624 206.752 4.10254 199.374 4.10254 176.76C4.10254 168.48 21.1624 176.76 32.4699 176.76C43.7774 176.76 60.8373 168.55 60.8373 176.76Z" fill="#DC5ED7"/>
<path d="M32.4699 191.267C48.1368 191.267 60.8373 184.553 60.8373 176.271C60.8373 167.988 48.1368 161.274 32.4699 161.274C16.803 161.274 4.10254 167.988 4.10254 176.271C4.10254 184.553 16.803 191.267 32.4699 191.267Z" fill="#FF94F9"/>
<g style="mix-blend-mode:multiply">
<path d="M32.4701 144.951C27.2662 144.939 22.1366 146.183 17.517 148.576C12.8974 150.968 8.92441 154.439 5.93556 158.694C1.75827 164.627 -0.304108 171.788 0.0788267 179.031C0.461761 186.273 3.26785 193.178 8.04752 198.639C12.8272 204.099 19.3038 207.799 26.4395 209.146C33.5753 210.493 40.9573 209.409 47.4026 206.067C53.848 202.725 58.9836 197.32 61.9868 190.716C64.99 184.112 65.6868 176.693 63.9656 169.647C62.2444 162.601 58.2049 156.336 52.4942 151.855C46.7835 147.375 39.7322 144.938 32.4701 144.937V144.951ZM35.8257 202.908C29.1845 202.911 22.7642 200.527 17.7387 196.191C12.7132 191.855 9.41836 185.857 8.45664 179.294C7.49493 172.731 8.9306 166.042 12.5011 160.45C16.0717 154.857 21.5385 150.735 27.902 148.837C30.4712 148.06 33.1413 147.666 35.8257 147.668C43.1585 147.668 50.1909 150.577 55.376 155.756C60.5611 160.934 63.474 167.958 63.474 175.281C63.474 182.605 60.5611 189.628 55.376 194.807C50.1909 199.985 43.1585 202.894 35.8257 202.894V202.908Z" fill="#9CC8D9"/>
</g>
<g style="mix-blend-mode:screen">
<path d="M47.5989 150.319C39.1394 145.475 25.6042 145.447 17.2435 150.319C8.88269 155.191 8.925 162.992 17.3422 167.822C25.7593 172.652 39.3367 172.694 47.6975 167.822C56.0583 162.95 56.016 155.163 47.5989 150.319Z" fill="#545656"/>
</g>
<g style="mix-blend-mode:multiply">
<path d="M26.0409 159.035C26.0409 159.035 20.2462 155.853 16.1716 155.473C15.7679 155.445 15.3627 155.445 14.959 155.473C11.8348 155.891 8.80617 156.843 6.0061 158.289C8.511 154.729 11.7084 151.71 15.4074 149.412C19.1064 147.114 23.2311 145.583 27.5354 144.912C27.7529 146.075 27.8989 147.251 27.9725 148.432C28.1558 152.572 27.8738 158.289 26.0409 159.035Z" fill="#71B0C9"/>
</g>
<path d="M45.3147 94.9909V153.132C45.3147 155.032 44.1022 156.948 41.5925 158.398C38.8797 159.761 35.8945 160.496 32.8583 160.55C29.822 160.604 26.8126 159.974 24.0533 158.708C23.8286 158.612 23.6118 158.499 23.4047 158.37C20.8951 156.962 19.6262 155.032 19.6121 153.132V94.9909L22.5165 97.1312L23.3624 96.5961C23.5851 96.4603 23.8158 96.338 24.0533 96.23C26.8105 94.99 29.811 94.383 32.8341 94.4537C35.8571 94.5243 38.8259 95.2708 41.522 96.6383C41.7899 96.7932 42.0719 96.9622 42.3116 97.1312L45.3147 94.9909Z" fill="#A4B8B8"/>
<path d="M39.5481 148.348C37.3481 147.233 34.916 146.652 32.4492 146.652C29.9824 146.652 27.5503 147.233 25.3503 148.348C21.4449 150.601 21.459 154.262 25.3503 156.529C27.5503 157.643 29.9824 158.224 32.4492 158.224C34.916 158.224 37.3481 157.643 39.5481 156.529C43.4958 154.304 43.4676 150.643 39.5481 148.348Z" fill="#B5C5C5"/>
<g style="mix-blend-mode:multiply">
<path d="M24.0532 95.741V158.205C23.8286 158.109 23.6117 157.996 23.4047 157.867C20.8951 156.459 19.6262 154.529 19.6121 152.628V94.5019L22.5165 96.6422L23.3624 96.1071C23.5851 95.9713 23.8158 95.849 24.0532 95.741Z" fill="#71B0C9"/>
</g>
<g style="mix-blend-mode:screen">
<path d="M41.5925 158.398C41.8604 158.243 42.0577 158.06 42.2974 157.891V97.1312C42.0577 96.9622 41.8039 96.7933 41.5361 96.6384C40.0363 95.8196 38.4196 95.2355 36.7424 94.9064H34.416V160.454C36.9274 160.286 39.3741 159.586 41.5925 158.398Z" fill="#6D8168"/>
</g>
<path d="M41.5924 99.5533C38.7747 100.983 35.6589 101.728 32.4985 101.728C29.338 101.728 26.2222 100.983 23.4045 99.5533C18.3711 96.6526 18.3429 91.9636 23.4045 89.077C26.2232 87.6506 29.3386 86.9072 32.4985 86.9072C35.6583 86.9072 38.7737 87.6506 41.5924 89.077C46.5694 91.9073 46.5835 96.5963 41.5924 99.5533Z" fill="#F1F4F4"/>
<path d="M39.4068 89.9782C37.2498 88.8881 34.8663 88.3201 32.4489 88.3201C30.0315 88.3201 27.6479 88.8881 25.491 89.9782C21.6701 92.1748 21.6842 95.7655 25.491 97.9903C27.647 99.0837 30.0309 99.6535 32.4489 99.6535C34.8669 99.6535 37.2508 99.0837 39.4068 97.9903C43.2699 95.7937 43.2558 92.203 39.4068 89.9782Z" fill="#A5B8B8"/>
<g style="mix-blend-mode:multiply">
<path d="M39.4071 89.9781C39.0828 89.7951 38.7162 89.6542 38.3637 89.4993C38.3637 89.7669 39.4071 96.9905 31.3142 99.5814C34.126 99.8498 36.9556 99.3022 39.4635 98.0043C43.2702 95.7936 43.2561 92.2029 39.4071 89.9781Z" fill="#71B0C9"/>
</g>
<g style="mix-blend-mode:multiply">
<path d="M50.1929 159.246C50.1929 159.246 44.3417 160.134 44.5532 163.569C44.5679 165.19 45.1343 166.757 46.1592 168.014C47.1841 169.27 48.6066 170.141 50.1929 170.483C53.3793 170.948 54.9302 169.906 57.8487 168.075C51.9693 160.471 50.1929 159.246 50.1929 159.246Z" fill="#71B0C9"/>
</g>
<path d="M67.5064 159.186L65.8145 158.905L65.7299 158.482C65.2728 157.102 64.4977 155.847 63.4667 154.82C62.4358 153.793 61.1779 153.021 59.7942 152.568L59.3571 152.47L59.1033 150.822L50.1927 159.736C49.8626 160.142 49.6457 160.628 49.564 161.145C49.4823 161.661 49.5387 162.191 49.7274 162.679C50.179 164.06 50.9507 165.316 51.9796 166.343C53.0085 167.371 54.2658 168.142 55.649 168.593C56.1396 168.78 56.6715 168.833 57.1896 168.747C57.7077 168.66 58.1931 168.437 58.5957 168.1L67.5064 159.186Z" fill="#DCE4E4"/>
<path d="M72.1029 157.624L69.8048 157.229L69.6778 156.666C69.0571 154.78 68.0014 153.066 66.5956 151.662C65.1899 150.258 63.4736 149.203 61.585 148.584L60.9787 148.457L60.6404 146.204L56.4106 150.245C55.9595 150.799 55.6632 151.461 55.5517 152.166C55.4403 152.871 55.5177 153.593 55.7761 154.258C56.3969 156.144 57.4526 157.859 58.8583 159.262C60.2641 160.666 61.9804 161.721 63.869 162.341C64.5371 162.594 65.2613 162.664 65.9656 162.543C66.67 162.421 67.3288 162.113 67.8732 161.651L72.1029 157.624Z" fill="#DCE4E4"/>
<path d="M68.4371 157.962C66.5447 157.349 64.8246 156.297 63.4179 154.892C62.0112 153.487 60.9579 151.769 60.3442 149.879C59.3855 146.345 61.4721 144.246 64.9828 145.176C66.8714 145.796 68.5878 146.85 69.9935 148.254C71.3992 149.658 72.455 151.372 73.0757 153.258C74.0344 156.793 71.9478 158.905 68.4371 157.962Z" fill="#F1F4F4"/>
<path d="M70.8195 151.882C70.4327 150.698 69.7713 149.622 68.8894 148.741C68.0074 147.86 66.9297 147.199 65.7438 146.813C63.5303 146.222 62.2332 147.545 62.8253 149.756C63.2161 150.938 63.8788 152.012 64.7602 152.893C65.6417 153.773 66.7173 154.435 67.901 154.825C70.1145 155.388 71.4117 154.093 70.8195 151.882Z" fill="#9AB1B1"/>
<path d="M70.2279 152.667C69.9281 151.581 69.378 150.579 68.6216 149.743C67.8651 148.907 66.9232 148.259 65.8712 147.851C63.8973 147.218 62.6425 148.33 63.0513 150.344C63.3511 151.43 63.9012 152.432 64.6576 153.268C65.4141 154.104 66.356 154.752 67.408 155.159C69.396 155.793 70.6508 154.681 70.2279 152.667Z" fill="#FF3317"/>
<path d="M67.6473 150.879C67.6595 150.92 67.6595 150.964 67.6473 151.005C67.6453 151.081 67.6216 151.154 67.5791 151.216C67.5367 151.279 67.4771 151.328 67.4076 151.357C67.2699 151.417 67.1287 151.469 66.9847 151.512C66.6314 151.735 66.3671 152.073 66.2374 152.47C66.1387 152.639 66.3079 152.653 65.9836 152.737C65.7517 152.764 65.5188 152.698 65.3351 152.554C65.2157 152.457 65.1233 152.331 65.0665 152.188C65.0098 152.045 64.9906 151.89 65.0108 151.738C65.0813 151.217 65.5889 150.865 65.8285 150.4C66.075 149.742 66.075 149.016 65.8285 148.358C66.1192 148.336 66.4072 148.427 66.6322 148.612C66.9142 148.851 67.0552 149.217 67.3372 149.442C67.0266 149.015 66.6451 148.643 66.2092 148.344C66.0614 148.235 65.8914 148.159 65.7111 148.122C65.5308 148.086 65.3447 148.09 65.1659 148.133C64.9403 148.203 64.5455 148.231 64.475 148.499C64.4243 148.721 64.4006 148.948 64.4045 149.175C64.3025 149.015 64.148 148.895 63.9675 148.837L63.4458 148.654C63.742 148.586 64.0206 148.456 64.2635 148.274C64.5032 148.048 64.6301 147.922 64.9403 148.105C65.1038 148.21 65.2471 148.343 65.3633 148.499C65.4469 148.641 65.5463 148.773 65.6594 148.893C65.9977 149.161 66.3361 149.414 66.6463 149.71C66.6463 149.71 66.7732 149.837 66.7591 149.921C66.745 150.006 66.6463 150.076 66.5617 150.104C65.7439 150.386 64.7288 150.4 64.2072 151.104C64.1757 151.134 64.1527 151.172 64.1403 151.214C64.128 151.256 64.1267 151.301 64.1366 151.343C64.1366 151.442 64.2917 151.47 64.3904 151.498C65.1073 151.645 65.8324 151.748 66.5617 151.808C66.3504 152.406 66.2361 153.033 66.2233 153.667C66.4207 153.667 66.7168 153.667 66.7591 153.484C66.8014 153.301 66.6886 152.85 66.7591 152.554C66.8296 152.259 67.2102 151.878 67.6191 151.695C67.7876 151.614 67.9442 151.509 68.0844 151.386C68.0844 151.386 68.1831 151.259 68.2536 151.245C68.3671 151.256 68.4772 151.29 68.5778 151.343L69.7199 151.794H69.7904C69.797 151.817 69.797 151.841 69.7904 151.864C69.7903 152.117 69.7221 152.365 69.593 152.582C69.4783 152.502 69.3979 152.381 69.3674 152.245C69.2898 151.995 69.2286 151.741 69.1841 151.484C69.1841 151.287 69.1841 151.062 68.9163 151.076C68.6453 151.108 68.3825 151.189 68.1408 151.315C68.2113 151.315 68.2536 150.935 68.2677 150.879C68.2818 150.822 68.2677 150.541 68.3664 150.372C68.3862 150.279 68.3862 150.183 68.3664 150.09C68.3664 149.935 68.2536 149.823 68.3664 149.654C68.321 149.787 68.247 149.909 68.1496 150.011C68.0523 150.113 67.9338 150.193 67.8024 150.245C67.6755 150.245 67.5204 150.329 67.4781 150.456C67.4358 150.583 67.5768 150.851 67.6191 151.005C67.6614 151.16 67.6191 151.625 67.746 151.935C67.8423 152.552 67.9742 153.163 68.1408 153.765C68.1408 153.991 68.2959 154.244 68.5074 154.314C68.7189 154.385 69.0854 154.174 69.3251 154.314C69.3671 154.351 69.4008 154.397 69.4238 154.448C69.4468 154.499 69.4588 154.554 69.4588 154.61C69.4588 154.666 69.4468 154.721 69.4238 154.772C69.4008 154.823 69.3671 154.869 69.3251 154.906C69.1451 155.047 68.9192 155.117 68.6907 155.103C68.4608 155.082 68.2296 155.082 67.9998 155.103C67.8588 154.709 67.464 154.427 67.4076 154.019C67.4079 153.793 67.468 153.571 67.5819 153.375C67.6958 153.18 67.8594 153.018 68.0562 152.906C68.1757 152.832 68.2808 152.736 68.3664 152.625C68.4077 152.567 68.4299 152.498 68.4299 152.428C68.4299 152.357 68.4077 152.288 68.3664 152.23C68.3247 152.181 68.2715 152.142 68.2113 152.118C67.3688 151.724 66.4605 151.49 65.5325 151.428C65.3774 151.428 65.18 151.287 65.2505 151.16C65.2606 151.134 65.2778 151.111 65.3001 151.093C65.3225 151.076 65.3492 151.065 65.3774 151.062C65.6808 150.936 66.0154 150.907 66.3361 150.977C66.5511 151.046 66.7736 151.088 66.9988 151.104C67.2243 151.104 67.4781 150.949 67.4781 150.724L67.6473 150.879Z" fill="#90241A"/>
<path d="M64.574 151.808C64.5465 151.933 64.5465 152.063 64.574 152.188L64.7431 152.709C64.7686 152.803 64.8065 152.893 64.856 152.977C64.856 153.047 64.9969 153.103 65.0674 153.174L65.8993 153.822C66.0687 153.991 66.2714 154.124 66.4946 154.211C66.7179 154.298 66.9569 154.338 67.1964 154.329C67.1948 154.205 67.1647 154.084 67.1084 153.974C67.0522 153.864 66.9713 153.768 66.8721 153.695C66.6674 153.546 66.4447 153.423 66.2095 153.329C65.6431 153.085 65.0963 152.797 64.574 152.47C64.3625 152.351 64.172 152.199 64.01 152.019C63.8287 151.762 63.7038 151.469 63.6434 151.16C63.5306 150.752 63.4461 150.245 63.7562 149.949C63.9261 149.825 64.1253 149.748 64.3343 149.724L66.2377 149.316C66.3773 149.288 66.5211 149.288 66.6606 149.316C66.7824 149.358 66.8942 149.424 66.9889 149.511C67.0835 149.599 67.159 149.705 67.2105 149.823C67.5676 150.437 67.8156 151.109 67.9437 151.808C67.965 151.913 68.0162 152.011 68.0912 152.088C68.1661 152.165 68.2617 152.22 68.3666 152.245C68.7332 152.385 68.7614 152.245 68.8601 152.639C68.9727 153.311 69.2932 153.932 69.7765 154.413C69.8752 153.92 69.9457 153.413 70.0021 152.92L68.5076 153.118C68.4089 152.78 68.7755 152.498 68.7614 152.16C67.7322 152.329 68.1411 150.541 67.8168 150.048C67.6766 149.886 67.4949 149.765 67.2913 149.698C67.0877 149.631 66.8698 149.621 66.6606 149.668C66.2468 149.769 65.8279 149.849 65.4058 149.907C65.1595 149.899 64.9143 149.871 64.6727 149.823C64.4954 149.804 64.3256 149.741 64.1792 149.64C64.0523 149.541 63.9959 149.316 63.8408 149.259C63.3192 149.09 63.2205 149.963 63.2205 150.287C63.5447 150.372 63.8126 150.062 64.0382 149.879C64.2537 149.702 64.5059 149.575 64.7764 149.506C65.047 149.438 65.3294 149.431 65.6032 149.485C65.4993 149.609 65.405 149.74 65.3212 149.879C65.1943 150.034 65.0675 150.245 64.8701 150.273C64.6128 150.309 64.3518 150.309 64.0946 150.273C63.8935 150.245 63.6895 150.245 63.4883 150.273C63.5311 150.435 63.6144 150.583 63.7303 150.704C63.8462 150.824 63.991 150.914 64.151 150.963C64.151 151.146 63.9536 151.287 63.9536 151.47C63.9604 151.536 63.9604 151.602 63.9536 151.667C63.9536 151.78 63.8267 151.907 63.9536 152.005L64.574 151.808Z" fill="#90241A"/>
<path d="M360.444 247.263C359.379 247.51 358.33 247.815 357.299 248.179L356.792 248.334C356.744 248.363 356.691 248.383 356.636 248.391C356.58 248.4 356.523 248.396 356.469 248.382C356.415 248.367 356.364 248.342 356.32 248.307C356.276 248.272 356.24 248.228 356.214 248.179C356.51 248.291 356.693 248.066 356.891 247.897C357.088 247.728 357.187 247.658 357.299 247.531C357.429 247.37 357.599 247.247 357.793 247.175C357.987 247.103 358.196 247.085 358.399 247.123C359.076 247.123 359.809 247.123 360.472 247.207L360.444 247.263Z" fill="#DC5ED7"/>
<path d="M352.04 253.361C352.08 252.723 352.032 252.084 351.899 251.46C351.786 250.896 352.054 250.53 352.548 250.051C352.262 250.738 352.198 251.496 352.364 252.22C352.364 252.22 352.364 252.15 352.449 252.107C352.88 251.544 353.144 250.87 353.21 250.164H353.295L353.506 250.854C353.506 250.967 353.506 251.051 353.408 251.122C353.013 251.755 352.632 252.375 352.28 253.023C352.28 253.121 352.153 253.206 352.153 253.318L352.04 253.361Z" fill="#DC5ED7"/>
<path d="M353.592 245.391C353.139 244.183 352.542 243.034 351.815 241.969C351.745 241.856 351.815 241.772 351.815 241.673C352.294 241.012 352.816 240.392 353.338 239.758C354.244 238.73 355.055 237.622 355.763 236.449C355.114 239.434 354.367 242.406 353.592 245.391Z" fill="#DC5ED7"/>
<path d="M354.437 245.475C355.198 242.476 355.847 239.491 356.58 236.506C356.707 236.506 356.651 236.604 356.651 236.661C356.744 237.738 356.962 238.801 357.299 239.829C357.511 240.575 357.75 241.321 357.934 242.082C357.953 242.141 357.953 242.204 357.932 242.263C357.912 242.321 357.873 242.372 357.821 242.406C356.624 243.32 355.515 244.343 354.508 245.461L354.437 245.475Z" fill="#DC5ED7"/>
<path d="M360.303 239.589C360.449 241.155 359.99 242.716 359.02 243.954C358.905 244.157 358.752 244.335 358.568 244.478C358.384 244.62 358.173 244.725 357.948 244.785C357.618 244.874 357.293 244.982 356.975 245.109C356.93 245.134 356.879 245.147 356.827 245.147C356.776 245.147 356.725 245.134 356.679 245.109C357.134 244.816 357.605 244.548 358.089 244.306C358.173 244.274 358.245 244.218 358.297 244.146C358.35 244.073 358.38 243.987 358.385 243.898C358.462 243.432 358.462 242.956 358.385 242.49C358.38 242.433 358.391 242.375 358.416 242.323C358.44 242.271 358.479 242.227 358.526 242.194L359.132 241.603C359.667 241.05 360.009 240.338 360.105 239.575L360.303 239.589Z" fill="#DC5ED7"/>
<path d="M350.856 238.956C350.743 239.336 350.676 239.728 350.659 240.125C350.681 240.622 350.826 241.105 351.082 241.533C351.146 241.613 351.181 241.712 351.181 241.814C351.181 241.917 351.146 242.016 351.082 242.096C350.83 242.506 350.631 242.946 350.49 243.405C350.468 243.459 350.465 243.519 350.48 243.574C350.495 243.63 350.528 243.68 350.574 243.715C350.921 243.996 351.242 244.307 351.533 244.645C351.533 244.645 351.617 244.645 351.533 244.785C351.448 244.926 351.406 244.785 351.35 244.785C351.293 244.785 351.068 244.588 350.912 244.504C349.982 243.969 349.996 243.969 349.841 242.884C349.66 241.507 349.985 240.111 350.757 238.956H350.856Z" fill="#DC5ED7"/>
<path d="M351.547 242.265C352.369 243.467 353.015 244.78 353.464 246.165C353.255 246.062 353.068 245.919 352.915 245.743C352.383 245.008 351.768 244.337 351.082 243.743C351.019 243.698 350.976 243.63 350.963 243.553C350.95 243.477 350.967 243.399 351.011 243.335C351.158 242.963 351.338 242.605 351.547 242.265Z" fill="#DC5ED7"/>
<path d="M358.018 242.701C358.06 243.109 358.06 243.519 358.018 243.927C358.012 243.976 357.993 244.022 357.964 244.062C357.934 244.101 357.894 244.132 357.849 244.152C356.865 244.67 355.922 245.264 355.029 245.926C354.861 246.063 354.654 246.142 354.437 246.151C355.513 244.885 356.713 243.73 358.018 242.701Z" fill="#DC5ED7"/>
<path d="M350.955 246.306L349.953 246.236H349.855H349.784C349.025 245.183 348.625 243.914 348.642 242.617C348.629 242.591 348.622 242.562 348.622 242.532C348.622 242.503 348.629 242.474 348.642 242.448C348.804 242.641 348.912 242.875 348.952 243.124C349.028 243.537 349.261 243.905 349.601 244.152C349.651 244.188 349.693 244.234 349.725 244.287C349.757 244.341 349.777 244.4 349.784 244.461C349.891 244.924 349.953 245.395 349.968 245.869C349.946 245.924 349.946 245.984 349.968 246.039C349.998 246.081 350.043 246.112 350.094 246.123L350.87 246.405L350.955 246.306Z" fill="#DC5ED7"/>
<path d="M356.595 246.63L357.455 246.461C357.526 246.459 357.595 246.434 357.652 246.39C357.71 246.347 357.754 246.289 357.779 246.221C358.038 245.767 358.325 245.33 358.639 244.912C358.696 244.814 358.786 244.739 358.893 244.701C359.368 244.496 359.778 244.165 360.077 243.743C360.218 243.56 360.486 243.222 360.557 243.293C360.627 243.363 360.458 243.701 360.345 243.898C359.684 244.988 358.823 245.944 357.807 246.714H357.694H357.568H356.595V246.63Z" fill="#DC5ED7"/>
<path d="M357.708 249.615C357.167 249.663 356.622 249.639 356.087 249.545C355.368 249.432 354.677 249.235 354 249.066C353.845 249.066 353.803 248.953 353.803 248.798C353.803 248.643 353.803 248.179 353.803 247.869C353.803 247.869 353.718 247.728 353.803 247.672C353.887 247.616 353.944 247.672 353.986 247.785C354.185 248.02 354.36 248.274 354.508 248.545C354.747 249.122 355.17 249.249 355.819 248.939C355.963 248.855 356.131 248.821 356.296 248.841C356.462 248.861 356.616 248.935 356.735 249.052C357.003 249.319 357.398 249.39 357.708 249.615Z" fill="#DC5ED7"/>
<path d="M348.417 248.995C348.974 248.859 349.517 248.67 350.038 248.432C350.08 248.404 350.129 248.389 350.179 248.389C350.23 248.389 350.279 248.404 350.32 248.432C350.602 248.573 350.87 248.686 351.138 248.841C351.406 248.996 351.392 248.841 351.547 248.841L352.957 247.77C352.957 247.77 353.07 247.644 353.126 247.7C353.183 247.756 353.126 247.813 353.126 247.883L352.619 248.855L352.548 248.953C352.507 248.965 352.463 248.965 352.421 248.953C351.168 249.161 349.891 249.194 348.628 249.052L348.417 248.995Z" fill="#DC5ED7"/>
<path d="M350.673 247.756C350.585 247.852 350.469 247.915 350.342 247.938C350.214 247.961 350.083 247.942 349.968 247.883C349.028 247.324 348.059 246.816 347.063 246.362L349.517 246.531C349.615 246.531 349.644 246.531 349.686 246.672L350.024 247.292C350.137 247.531 350.137 247.897 350.673 247.756Z" fill="#DC5ED7"/>
<path d="M354.536 246.517C355.734 245.918 356.973 245.405 358.244 244.982C357.972 245.327 357.722 245.689 357.497 246.067C357.497 246.165 357.37 246.165 357.285 246.179L355.269 246.559C355.024 246.581 354.777 246.566 354.536 246.517Z" fill="#DC5ED7"/>
<path d="M353.027 246.419C352.775 246.461 352.518 246.461 352.266 246.419L350.546 245.785C350.475 245.785 350.377 245.785 350.377 245.658C350.342 245.263 350.271 244.872 350.165 244.49C351.176 245.043 352.135 245.689 353.027 246.419Z" fill="#DC5ED7"/>
<path d="M350.024 246.573L352.844 246.771C352.608 246.919 352.351 247.032 352.083 247.109L350.673 247.39C350.56 247.39 350.476 247.39 350.419 247.292C350.363 247.193 350.137 246.855 350.024 246.573Z" fill="#DC5ED7"/>
<path d="M354.55 246.883L357.37 247.08C357.102 247.334 356.862 247.531 356.623 247.742C356.623 247.742 356.623 247.742 356.538 247.742H356.439C355.811 247.57 355.212 247.304 354.663 246.954C354.663 246.954 354.536 246.982 354.55 246.883Z" fill="#DC5ED7"/>
<path d="M350.588 248.179L353.408 246.883C353.329 246.995 353.228 247.091 353.112 247.165L351.477 248.404C351.336 248.517 351.237 248.545 351.096 248.404C350.932 248.318 350.762 248.243 350.588 248.179Z" fill="#DC5ED7"/>
<path d="M353.944 246.954L356.016 248.531H355.932C355.156 248.798 355.156 248.798 354.761 248.207L354.324 247.588L353.901 246.954H353.944Z" fill="#DC5ED7"/>
<path d="M360.303 239.589H360.204C360.204 239.505 360.204 239.378 360.204 239.378C360.204 239.378 360.303 239.505 360.303 239.589Z" fill="#DC5ED7"/>
<path d="M350.856 238.956H350.771L350.87 238.744C350.94 238.801 350.898 238.871 350.856 238.956Z" fill="#DC5ED7"/>
</svg>
