<svg width="8" height="8" viewBox="0 0 8 8" fill="none" xmlns="http://www.w3.org/2000/svg">
<path d="M3.54592 0.985064C3.72458 0.597482 4.27542 0.597483 4.45408 0.985064L5.10905 2.40593C5.17991 2.55966 5.32374 2.66709 5.49126 2.69143L7.01968 2.91342C7.4257 2.9724 7.5918 3.46831 7.30321 3.75993L6.15922 4.91594C6.04588 5.03047 5.99468 5.1926 6.02169 5.35145L6.29628 6.96646C6.36679 7.38116 5.92488 7.69228 5.55824 7.48607L4.24509 6.7475C4.09291 6.66191 3.90709 6.6619 3.7549 6.74749L2.44152 7.48608C2.07486 7.69228 1.63296 7.38111 1.70352 6.96641L1.97827 5.35148C2.0053 5.19262 1.95411 5.03046 1.84075 4.91592L0.696793 3.75993C0.408202 3.46831 0.574301 2.9724 0.980321 2.91342L2.50874 2.69143C2.67626 2.66709 2.82009 2.55966 2.89095 2.40593L3.54592 0.985064Z" fill="#DC5ED7"/>
</svg>
