<svg width="16" height="15" viewBox="0 0 16 15" fill="none" xmlns="http://www.w3.org/2000/svg">
<path d="M15.4 8.38111C14.7432 8.38111 14.2088 7.85159 14.2088 7.20079C14.2088 6.5492 14.7432 6.01969 15.4 6.01969C15.5592 6.01969 15.712 5.95706 15.824 5.84609C15.9368 5.73432 16 5.58291 16 5.42517L15.9992 3.28332C15.9992 1.47282 14.512 0 12.6848 0H3.3152C1.488 0 0.0008 1.47282 0.0008 3.28332L0 5.49413C0 5.65188 0.0632 5.80328 0.176 5.91505C0.288 6.02603 0.4408 6.08865 0.6 6.08865C1.2792 6.08865 1.7912 6.56664 1.7912 7.20079C1.7912 7.85159 1.2568 8.38111 0.6 8.38111C0.2688 8.38111 0 8.64745 0 8.97563V11.1159C0 12.9264 1.4864 14.4 3.3144 14.4H12.6856C14.5136 14.4 16 12.9264 16 11.1159V8.97563C16 8.64745 15.7312 8.38111 15.4 8.38111Z" fill="#DC5ED7"/>
<path d="M10.7446 6.87104L9.80136 7.78944L10.0246 9.08784C10.063 9.31264 9.97256 9.53425 9.78776 9.66705C9.60456 9.80145 9.36536 9.81825 9.16376 9.71105L7.99976 9.09904L6.83336 9.71184C6.74696 9.75745 6.65256 9.78145 6.55896 9.78145C6.43656 9.78145 6.31576 9.74304 6.21176 9.66784C6.02776 9.53425 5.93736 9.31264 5.97576 9.08784L6.19816 7.78944L5.25496 6.87104C5.09176 6.71264 5.03496 6.47984 5.10536 6.26304C5.17656 6.04704 5.36056 5.89344 5.58536 5.86144L6.88616 5.67184L7.46936 4.49024C7.57096 4.28704 7.77416 4.16064 7.99976 4.16064H8.00136C8.22776 4.16144 8.43096 4.28784 8.53096 4.49104L9.11416 5.67184L10.4174 5.86224C10.6398 5.89344 10.8238 6.04704 10.8942 6.26304C10.9654 6.47984 10.9086 6.71264 10.7446 6.87104Z" fill="white"/>
</svg>
