<svg width="12" height="9" viewBox="0 0 12 9" fill="none" xmlns="http://www.w3.org/2000/svg">
<path d="M10.6633 0.000289773C10.4901 0.00545077 10.3257 0.0778357 10.205 0.202116L3.34299 7.0641L1.14768 4.86878C1.08625 4.8048 1.01267 4.75372 0.931247 4.71853C0.849827 4.68334 0.762207 4.66475 0.673517 4.66385C0.584827 4.66294 0.496837 4.67975 0.414717 4.71327C0.332604 4.7468 0.258 4.79637 0.195281 4.85909C0.132562 4.92181 0.0829885 4.99642 0.0494625 5.07853C0.0159365 5.16065 -0.000867521 5.24863 3.44794e-05 5.33733C0.000936479 5.42602 0.0195275 5.51364 0.0547175 5.59506C0.0899075 5.67648 0.140989 5.75006 0.204971 5.81149L2.87164 8.47816C2.99667 8.60314 3.16621 8.67334 3.34299 8.67334C3.51978 8.67334 3.68932 8.60314 3.81435 8.47816L11.1477 1.14483C11.244 1.05118 11.3098 0.930616 11.3364 0.798936C11.3631 0.667256 11.3493 0.530606 11.297 0.406876C11.2446 0.283156 11.1561 0.178136 11.043 0.105586C10.9299 0.0330358 10.7976 -0.00367023 10.6633 0.000289773Z" fill="#DC5ED7"/>
</svg>
