<svg width="16" height="15" viewBox="0 0 16 15" fill="none" xmlns="http://www.w3.org/2000/svg">
<path d="M15.4 8.38111C14.7432 8.38111 14.2088 7.85159 14.2088 7.20079C14.2088 6.5492 14.7432 6.01969 15.4 6.01969C15.5592 6.01969 15.712 5.95706 15.824 5.84609C15.9368 5.73432 16 5.58291 16 5.42517L15.9992 3.28332C15.9992 1.47282 14.512 0 12.6848 0H3.3152C1.488 0 0.0008 1.47282 0.0008 3.28332L0 5.49413C0 5.65188 0.0632 5.80328 0.176 5.91505C0.288 6.02603 0.4408 6.08865 0.6 6.08865C1.2792 6.08865 1.7912 6.56664 1.7912 7.20079C1.7912 7.85159 1.2568 8.38111 0.6 8.38111C0.2688 8.38111 0 8.64745 0 8.97563V11.1159C0 12.9264 1.4864 14.4 3.3144 14.4H12.6856C14.5136 14.4 16 12.9264 16 11.1159V8.97563C16 8.64745 15.7312 8.38111 15.4 8.38111Z" fill="#CDCDCD"/>
<path d="M10.7445 6.8708L9.8013 7.7892L10.0245 9.0876C10.0629 9.3124 9.9725 9.534 9.7877 9.6668C9.6045 9.8012 9.3653 9.818 9.1637 9.7108L7.9997 9.0988L6.8333 9.7116C6.7469 9.7572 6.6525 9.7812 6.5589 9.7812C6.4365 9.7812 6.3157 9.7428 6.2117 9.6676C6.0277 9.534 5.9373 9.3124 5.9757 9.0876L6.1981 7.7892L5.2549 6.8708C5.0917 6.7124 5.0349 6.4796 5.1053 6.2628C5.1765 6.0468 5.3605 5.8932 5.5853 5.8612L6.8861 5.6716L7.4693 4.49C7.5709 4.2868 7.7741 4.1604 7.9997 4.1604H8.0013C8.2277 4.1612 8.4309 4.2876 8.5309 4.4908L9.1141 5.6716L10.4173 5.862C10.6397 5.8932 10.8237 6.0468 10.8941 6.2628C10.9653 6.4796 10.9085 6.7124 10.7445 6.8708Z" fill="white"/>
</svg>
