<svg width="49" height="49" viewBox="0 0 49 49" fill="none" xmlns="http://www.w3.org/2000/svg">
<g id="Iconly/Bulk/Buy">
<path id="Combined Shape" opacity="0.4" fill-rule="evenodd" clip-rule="evenodd" d="M12.0675 43.0557C12.0675 41.3407 13.4558 39.9523 15.1708 39.9523C16.8654 39.9523 18.2538 41.3407 18.2538 43.0557C18.2538 44.7502 16.8654 46.1386 15.1708 46.1386C13.4558 46.1386 12.0675 44.7502 12.0675 43.0557ZM35.0363 43.0557C35.0363 41.3407 36.4246 39.9523 38.1396 39.9523C39.8342 39.9523 41.2225 41.3407 41.2225 43.0557C41.2225 44.7502 39.8342 46.1386 38.1396 46.1386C36.4246 46.1386 35.0363 44.7502 35.0363 43.0557Z" fill="#23DCCE"/>
<path id="Fill 7" fill-rule="evenodd" clip-rule="evenodd" d="M41.2228 13.9833C42.4682 13.9833 43.2849 14.4121 44.1016 15.3512C44.9182 16.2904 45.0611 17.6379 44.8774 18.8609L42.9378 32.2542C42.5703 34.8287 40.3653 36.7254 37.7724 36.7254H15.4978C12.7824 36.7254 10.5366 34.6429 10.312 31.95L8.43364 9.69378L5.35072 9.16294C4.53406 9.02003 3.96239 8.22378 4.10531 7.40711C4.24822 6.57003 5.04447 6.01878 5.88156 6.14128L10.7509 6.87628C11.4451 7.00082 11.9555 7.57044 12.0168 8.26461L12.4047 12.8379C12.4659 13.4933 12.9968 13.9833 13.6501 13.9833H41.2228ZM28.8504 24.598H34.5058C35.3633 24.598 36.0371 23.9038 36.0371 23.0667C36.0371 22.2092 35.3633 21.5355 34.5058 21.5355H28.8504C27.9929 21.5355 27.3192 22.2092 27.3192 23.0667C27.3192 23.9038 27.9929 24.598 28.8504 24.598Z" fill="#23DCCE"/>
</g>
</svg>
