<svg width="14" height="13" viewBox="0 0 14 13" fill="none" xmlns="http://www.w3.org/2000/svg">
<path fill-rule="evenodd" clip-rule="evenodd" d="M13.9975 3.76259H11.0332C9.65378 3.76502 8.53627 4.8546 8.53378 6.1996C8.53191 7.54762 9.65067 8.64206 11.0332 8.64388H14V8.85804C14 11.2095 12.5745 12.6 10.1621 12.6H3.83849C1.42551 12.6 0 11.2095 0 8.85804V3.7365C0 1.38504 1.42551 0 3.83849 0H10.1596C12.572 0 13.9975 1.38504 13.9975 3.7365V3.76259ZM3.31765 3.75715H7.26565H7.26814H7.27311C7.56867 3.75594 7.8076 3.52116 7.80636 3.23238C7.80511 2.94421 7.56369 2.71125 7.26814 2.71246H3.31765C3.02396 2.71368 2.78565 2.94603 2.7844 3.23299C2.78316 3.52116 3.02209 3.75594 3.31765 3.75715Z" fill="#CDCDCD"/>
<path d="M9.82623 6.50768C9.97262 7.17351 10.5564 7.64197 11.2229 7.62979H13.4978C13.7751 7.62979 14 7.40013 14 7.11625V5.34416C13.9995 5.06089 13.7751 4.83063 13.4978 4.83002H11.1693C10.4112 4.83245 9.79886 5.46173 9.80005 6.23721C9.80005 6.32798 9.80898 6.41875 9.82623 6.50768Z" fill="#CDCDCD"/>
<circle cx="11.2" cy="6.22997" r="0.7" fill="white"/>
</svg>
