<svg width="16" height="16" viewBox="0 0 16 16" fill="none" xmlns="http://www.w3.org/2000/svg">
<path fill-rule="evenodd" clip-rule="evenodd" d="M14.9975 5.76259H12.0332C10.6538 5.76502 9.53627 6.8546 9.53378 8.1996C9.53191 9.54762 10.6507 10.6421 12.0332 10.6439H15V10.858C15 13.2095 13.5745 14.6 11.1621 14.6H4.83849C2.42551 14.6 1 13.2095 1 10.858V5.7365C1 3.38504 2.42551 2 4.83849 2H11.1596C13.572 2 14.9975 3.38504 14.9975 5.7365V5.76259ZM4.31765 5.75715H8.26565H8.26814H8.27311C8.56867 5.75594 8.8076 5.52116 8.80636 5.23238C8.80511 4.94421 8.56369 4.71125 8.26814 4.71246H4.31765C4.02396 4.71368 3.78565 4.94603 3.7844 5.23299C3.78316 5.52116 4.02209 5.75594 4.31765 5.75715Z" fill="#DC5ED7"/>
<path d="M10.8262 8.50762C10.9726 9.17345 11.5564 9.64191 12.2229 9.62972H14.4978C14.7751 9.62972 15 9.40007 15 9.11619V7.3441C14.9995 7.06083 14.7751 6.83057 14.4978 6.82996H12.1693C11.4112 6.83239 10.7989 7.46167 10.8001 8.23715C10.8001 8.32792 10.809 8.41868 10.8262 8.50762Z" fill="#DC5ED7"/>
<circle cx="12.2" cy="8.23003" r="0.7" fill="white"/>
</svg>
