<svg width="17" height="18" viewBox="0 0 17 18" fill="none" xmlns="http://www.w3.org/2000/svg">
<path d="M12.2624 17.3684H4.23763C1.90118 17.3684 0 15.4849 0 13.1692V8.5413C0 6.22566 1.90118 4.3421 4.23763 4.3421H12.2624C14.5988 4.3421 16.5 6.22566 16.5 8.5413V13.1692C16.5 15.4849 14.5988 17.3684 12.2624 17.3684Z" fill="#CDCDCD"/>
<path d="M11.5111 6.94737C11.154 6.94737 10.8642 6.6663 10.8642 6.31997V3.78362C10.8642 2.38913 9.69471 1.25479 8.25782 1.25479C7.5963 1.25479 6.902 1.51244 6.4078 1.98676C5.91274 2.46274 5.63847 3.09599 5.63588 3.77191V6.31997C5.63588 6.6663 5.34609 6.94737 4.98902 6.94737C4.63196 6.94737 4.34216 6.6663 4.34216 6.31997V3.78362C4.34648 2.75552 4.75702 1.8069 5.49702 1.09669C6.23617 0.384803 7.1918 0.0276054 8.26041 0C10.408 0 12.158 1.69732 12.158 3.78362V6.31997C12.158 6.6663 11.8682 6.94737 11.5111 6.94737Z" fill="#CDCDCD"/>
</svg>
